<svg width="448" height="376" viewBox="0 0 448 376" fill="none" xmlns="http://www.w3.org/2000/svg">
<path d="M188.919 331.12H10.1895L33.3595 274.15L45.5995 267.44L64.8694 222.89L80.4494 213.74L95.2695 186.94H109.889L142.389 241.81L158.929 250.35L188.919 331.12Z" fill="#EBEBEB"/>
<path d="M10.1895 331.12H87.2794V286.66L107.059 255.54L97.6395 222.89L109.889 186.94H95.2695L80.4494 213.74L64.8694 222.89L45.5995 267.44L33.3595 274.15L10.1895 331.12Z" fill="#DBDBDB"/>
<path d="M109.889 331.12L117.359 307.71L129.439 295.81L134.839 281.78L138.599 284.83V298.25L129.439 308.93V331.2L109.889 331.12Z" fill="#DBDBDB"/>
<path d="M124.25 259.03L126.25 249.64L131.64 244.25L134.16 247.45L130.8 251.64L132.31 260.57L124.25 259.03Z" fill="#DBDBDB"/>
<path d="M176.059 331.07H437.509L388.179 228.05L364.449 217.87L339.259 168.65L322.649 150.79L308.009 118.2L290.869 120.98L261.559 189.26L245.189 201.47L218.609 271.8L192.429 297.23L176.059 331.07Z" fill="#EBEBEB"/>
<path d="M308.009 118.2L310.019 169.54L290.719 196.51L299.769 217.14L281.849 262.64L297.469 300.28L288.219 331.07H176.059L192.429 297.23L218.609 271.8L245.189 201.47L261.559 189.26L290.869 120.98L308.009 118.2Z" fill="#DBDBDB"/>
<path d="M303.189 249.41L316.649 226.01L315.589 216.09L320.609 208.97L326.679 229.19L308.469 249.41H303.189Z" fill="#DBDBDB"/>
<path d="M292.629 77.4L293.579 79.34L295.719 79.65L294.169 81.15L294.539 83.28L292.629 82.28L290.719 83.28L291.079 81.15L289.539 79.65L291.669 79.34L292.629 77.4Z" fill="#DBDBDB"/>
<path d="M113.119 174.19L114.079 176.12L116.209 176.43L114.669 177.94L115.029 180.07L113.119 179.06L111.209 180.07L111.569 177.94L110.029 176.43L112.159 176.12L113.119 174.19Z" fill="#DBDBDB"/>
<path d="M362.52 6.46002L363.48 8.39002L365.61 8.70002L364.07 10.21L364.43 12.33L362.52 11.33L360.61 12.33L360.98 10.21L359.43 8.70002L361.57 8.39002L362.52 6.46002Z" fill="#DBDBDB"/>
<path d="M148.029 9.40002L148.989 11.33L151.119 11.64L149.579 13.15L149.939 15.27L148.029 14.27L146.119 15.27L146.489 13.15L144.939 11.64L147.079 11.33L148.029 9.40002Z" fill="#DBDBDB"/>
<path d="M420 168.31L420.96 170.24L423.1 170.55L421.55 172.06L421.91 174.19L420 173.18L418.09 174.19L418.46 172.06L416.91 170.55L419.05 170.24L420 168.31Z" fill="#DBDBDB"/>
<path d="M209.559 74.07L210.509 76.01L212.649 76.32L211.099 77.82L211.469 79.95L209.559 78.95L207.639 79.95L208.009 77.82L206.459 76.32L208.599 76.01L209.559 74.07Z" fill="#DBDBDB"/>
<path d="M19.2895 34.22L20.2395 36.15L22.3695 36.46L20.8295 37.97L21.1895 40.1L19.2895 39.09L17.3695 40.1L17.7395 37.97L16.1895 36.46L18.3295 36.15L19.2895 34.22Z" fill="#DBDBDB"/>
<path d="M60.5002 149.77L61.4502 151.7L63.5902 152.01L62.0402 153.52L62.4102 155.65L60.5002 154.64L58.5902 155.65L58.9502 153.52L57.4102 152.01L59.5402 151.7L60.5002 149.77Z" fill="#DBDBDB"/>
<path d="M19.2891 182.71L19.8691 183.91L21.1891 184.1L20.2391 185.03L20.4691 186.35L19.2891 185.72L18.0991 186.35L18.3291 185.03L17.3691 184.1L18.6891 183.91L19.2891 182.71Z" fill="#DBDBDB"/>
<path d="M153.57 61.3L154.16 62.5L155.48 62.69L154.53 63.62L154.76 64.94L153.57 64.32L152.39 64.94L152.62 63.62L151.66 62.69L152.98 62.5L153.57 61.3Z" fill="#DBDBDB"/>
<path d="M252.789 167.61L253.379 168.81L254.699 169L253.749 169.93L253.969 171.25L252.789 170.63L251.609 171.25L251.839 169.93L250.879 169L252.199 168.81L252.789 167.61Z" fill="#DBDBDB"/>
<path d="M29.65 44.58L30.25 45.78L31.57 45.97L30.61 46.9L30.84 48.22L29.65 47.6L28.47 48.22L28.7 46.9L27.75 45.97L29.07 45.78L29.65 44.58Z" fill="#DBDBDB"/>
<path d="M365.609 150.89L366.199 152.09L367.519 152.28L366.569 153.21L366.789 154.53L365.609 153.91L364.429 154.53L364.659 153.21L363.699 152.28L365.019 152.09L365.609 150.89Z" fill="#DBDBDB"/>
<path d="M68.4686 207.15L69.0586 208.35L70.3786 208.54L69.4286 209.47L69.6486 210.79L68.4686 210.17L67.2886 210.79L67.5186 209.47L66.5586 208.54L67.8786 208.35L68.4686 207.15Z" fill="#DBDBDB"/>
<path d="M45.5487 143.32L46.1387 144.51L47.4587 144.71L46.5087 145.64L46.7287 146.95L45.5487 146.33L44.3687 146.95L44.5987 145.64L43.6387 144.71L44.9587 144.51L45.5487 143.32Z" fill="#DBDBDB"/>
<path d="M239.33 52.04L239.92 53.23L241.24 53.42L240.28 54.35L240.51 55.67L239.33 55.05L238.15 55.67L238.37 54.35L237.41 53.42L238.73 53.23L239.33 52.04Z" fill="#DBDBDB"/>
<path d="M370.289 207.15L370.879 208.35L372.199 208.54L371.239 209.47L371.469 210.79L370.289 210.17L369.109 210.79L369.339 209.47L368.379 208.54L369.699 208.35L370.289 207.15Z" fill="#DBDBDB"/>
<path d="M429.599 93L430.189 94.2L431.509 94.39L430.549 95.32L430.779 96.64L429.599 96.02L428.419 96.64L428.639 95.32L427.689 94.39L429.009 94.2L429.599 93Z" fill="#DBDBDB"/>
<path d="M377.469 91.19L378.059 92.38L379.379 92.57L378.419 93.51L378.649 94.82L377.469 94.2L376.289 94.82L376.509 93.51L375.559 92.57L376.879 92.38L377.469 91.19Z" fill="#DBDBDB"/>
<path d="M339.199 38.78C337.022 42.578 333.933 45.7736 330.211 48.0779C326.49 50.3823 322.252 51.7227 317.882 51.978C313.512 52.2333 309.147 51.3954 305.182 49.5402C301.217 47.6849 297.777 44.8707 295.173 41.352C292.569 37.8333 290.883 33.7211 290.268 29.3871C289.652 25.0531 290.126 20.634 291.647 16.5294C293.169 12.4247 295.689 8.76389 298.98 5.8779C302.272 2.9919 306.231 0.971721 310.499 0C307.173 1.53258 304.231 3.78722 301.886 6.59992C299.541 9.41261 297.852 12.7126 296.943 16.2599C296.033 19.8072 295.926 23.5126 296.629 27.1066C297.332 30.7005 298.827 34.0926 301.005 37.0362C303.183 39.9798 305.991 42.4008 309.222 44.1231C312.454 45.8454 316.029 46.8257 319.687 46.9927C323.345 47.1597 326.995 46.5092 330.37 45.0886C333.745 43.6679 336.761 41.5128 339.199 38.78Z" fill="#DBDBDB"/>
<path d="M10 331.11L63.46 330.86L116.92 330.78L223.85 330.61L330.78 330.77L384.24 330.86L437.7 331.11L384.24 331.35L330.78 331.44L223.85 331.61L116.92 331.44L63.46 331.35L10 331.11Z" fill="#263238"/>
<path d="M443.22 340.07H4.48001C3.29184 340.07 2.15234 339.598 1.31217 338.758C0.472011 337.918 1.12117e-05 336.778 1.12117e-05 335.59C-0.00130725 335.001 0.113672 334.418 0.338346 333.874C0.56302 333.33 0.892963 332.835 1.30923 332.419C1.7255 332.003 2.2199 331.673 2.76403 331.448C3.30816 331.224 3.89132 331.109 4.48001 331.11H443.22C444.408 331.11 445.548 331.582 446.388 332.422C447.228 333.262 447.7 334.402 447.7 335.59C447.697 336.777 447.225 337.915 446.385 338.755C445.545 339.594 444.407 340.067 443.22 340.07Z" fill="#455A64"/>
<path d="M353.999 348.93H77.4292C74.955 348.93 72.9492 350.936 72.9492 353.41C72.9492 355.884 74.955 357.89 77.4292 357.89H353.999C356.473 357.89 358.479 355.884 358.479 353.41C358.479 350.936 356.473 348.93 353.999 348.93Z" fill="#455A64"/>
<path d="M329.159 375.61H127.669C127.081 375.611 126.498 375.496 125.953 375.272C125.409 375.047 124.915 374.717 124.499 374.301C124.082 373.884 123.752 373.39 123.528 372.846C123.303 372.302 123.188 371.719 123.189 371.13C123.189 369.942 123.661 368.802 124.502 367.962C125.342 367.122 126.481 366.65 127.669 366.65H329.159C329.748 366.65 330.33 366.766 330.874 366.991C331.417 367.216 331.911 367.546 332.327 367.962C332.743 368.378 333.073 368.872 333.298 369.416C333.524 369.959 333.639 370.542 333.639 371.13C333.641 371.719 333.526 372.302 333.301 372.846C333.076 373.39 332.747 373.884 332.33 374.301C331.914 374.717 331.42 375.047 330.875 375.272C330.331 375.496 329.748 375.611 329.159 375.61Z" fill="#455A64"/>
<path d="M58.7605 348.93H37.7105C35.2362 348.93 33.2305 350.936 33.2305 353.41C33.2305 355.884 35.2362 357.89 37.7105 357.89H58.7605C61.2347 357.89 63.2405 355.884 63.2405 353.41C63.2405 350.936 61.2347 348.93 58.7605 348.93Z" fill="#455A64"/>
<path d="M363.981 375.61H353.451C352.862 375.61 352.28 375.494 351.736 375.269C351.193 375.044 350.699 374.714 350.283 374.298C349.867 373.882 349.537 373.388 349.312 372.844C349.087 372.301 348.971 371.718 348.971 371.13C348.973 369.943 349.446 368.805 350.286 367.965C351.125 367.125 352.263 366.653 353.451 366.65H363.981C365.168 366.653 366.306 367.125 367.146 367.965C367.985 368.805 368.458 369.943 368.461 371.13C368.461 371.718 368.345 372.301 368.12 372.844C367.895 373.388 367.565 373.882 367.149 374.298C366.733 374.714 366.239 375.044 365.695 375.269C365.152 375.494 364.569 375.61 363.981 375.61Z" fill="#455A64"/>
<path d="M207.329 349.02H91.4395C92.6329 349.02 93.7775 348.546 94.6214 347.702C95.4654 346.858 95.9395 345.713 95.9395 344.52C95.9395 343.327 95.4654 342.182 94.6214 341.338C93.7775 340.494 92.6329 340.02 91.4395 340.02H207.329C206.136 340.02 204.991 340.494 204.147 341.338C203.304 342.182 202.829 343.327 202.829 344.52C202.829 345.713 203.304 346.858 204.147 347.702C204.991 348.546 206.136 349.02 207.329 349.02Z" fill="#455A64"/>
<path d="M327.68 349.02H251.68C252.873 349.02 254.018 348.546 254.862 347.702C255.706 346.858 256.18 345.713 256.18 344.52C256.18 343.327 255.706 342.182 254.862 341.338C254.018 340.494 252.873 340.02 251.68 340.02H327.68C326.486 340.02 325.342 340.494 324.498 341.338C323.654 342.182 323.18 343.327 323.18 344.52C323.18 345.713 323.654 346.858 324.498 347.702C325.342 348.546 326.486 349.02 327.68 349.02Z" fill="#455A64"/>
<path d="M270.19 366.75H153.58C154.774 366.75 155.918 366.276 156.762 365.432C157.606 364.588 158.08 363.443 158.08 362.25C158.08 361.057 157.606 359.912 156.762 359.068C155.918 358.224 154.774 357.75 153.58 357.75H270.19C268.997 357.75 267.852 358.224 267.008 359.068C266.164 359.912 265.69 361.057 265.69 362.25C265.69 363.443 266.164 364.588 267.008 365.432C267.852 366.276 268.997 366.75 270.19 366.75Z" fill="#455A64"/>
<path d="M39.9805 331.03H318.99L268.06 205.47L243.56 193.07L217.56 133.09L200.4 111.32L185.29 71.6L167.59 74.99L137.33 158.2L120.44 173.08L83.9105 258.79L56.8805 289.78L39.9805 331.03Z" fill="#455A64"/>
<path d="M185.29 71.6L187.36 134.17L167.44 167.03L176.78 192.18L158.28 247.63L174.41 293.51L164.86 331.03H39.9805L56.8805 289.78L83.9105 258.79L120.44 173.08L137.33 158.2L167.59 74.99L185.29 71.6Z" fill="#37474F"/>
<path d="M180.311 231.51L194.211 202.99L193.121 190.9L198.301 182.22L204.571 206.87L185.761 231.51H180.311Z" fill="#37474F"/>
<path d="M407.721 331.05H201.131L228.411 264.02L247.701 248.55L267.591 190.83L283.681 178.97L298.971 144.25H314.071L347.621 215.34L364.701 226.41L407.721 331.05Z" fill="#37474F"/>
<path d="M201.131 331.05H290.731V273.45L311.151 233.13L301.421 190.83L314.071 144.25H298.971L283.681 178.97L267.591 190.83L247.701 248.55L228.411 264.02L201.131 331.05Z" fill="#263238"/>
<path d="M314.07 331.05L321.78 300.73L334.26 285.31L339.82 267.13L343.71 271.08V288.47L334.26 302.31V331.16L314.07 331.05Z" fill="#263238"/>
<path d="M328.891 237.65L330.961 225.48L336.521 218.5L339.131 222.65L335.651 228.07L337.221 239.65L328.891 237.65Z" fill="#263238"/>
<path d="M316.08 327.04H314.6V331.21H316.08V327.04Z" fill="#263238"/>
<path d="M244.47 327.04H242.99V331.21H244.47V327.04Z" fill="#263238"/>
<path d="M242.99 331.2L263.89 300.13L285.34 331.2H242.99Z" fill="#FFC200"/>
<path opacity="0.1" d="M242.99 331.2L263.89 300.13L285.34 331.2H242.99Z" fill="#191B1D"/>
<path d="M263.891 300.13H294.531L315.821 331.2H285.341L263.891 300.13Z" fill="#FFC200"/>
<path d="M276.949 305.78H290.949L295.209 312H281.239L276.949 305.78Z" fill="white"/>
<path opacity="0.3" d="M257.02 331.2H270.2L263.89 300.13L257.02 331.2Z" fill="#191B1D"/>
<path d="M286.07 327.04H284.59V331.21H286.07V327.04Z" fill="#263238"/>
<path d="M263.849 300.13C258.789 310.22 252.919 321.32 247.439 331.2C252.509 321.1 258.359 310 263.849 300.13Z" fill="white"/>
<path d="M263.85 300.13C269.28 309.95 275.07 320.99 280.09 331.03C274.66 321.2 268.86 310.17 263.85 300.13Z" fill="white"/>
<path d="M257.02 331.2C256.068 327.946 254.15 325.059 251.52 322.92L263.85 300.13L257.02 331.2Z" fill="#FFC200"/>
<path d="M270.2 331.2L263.85 300.13L276.73 324.13C275.021 324.44 273.461 325.298 272.283 326.573C271.105 327.849 270.373 329.473 270.2 331.2Z" fill="#FFC200"/>
<path d="M52.5287 330.8C51.3887 331.95 38.0287 332.46 33.1687 332.46C28.3087 332.46 14.9487 331.95 13.8487 330.8C12.7487 329.65 28.8487 240.8 33.2187 240.8C37.5887 240.8 53.6787 329.65 52.5287 330.8Z" fill="#263238"/>
<path d="M52.8489 308.17C49.5489 309.43 37.3189 314.41 34.6789 315.86C34.6789 315.3 34.6789 314.75 34.6789 314.19C37.6289 312.45 40.5989 310.74 43.5489 309.01C46.8118 307.307 49.9798 305.427 53.0389 303.38C53.1789 303.27 53.0989 302.98 52.8989 303.06C49.6756 304.567 46.5585 306.291 43.5689 308.22C40.5689 309.98 37.5689 311.8 34.6189 313.63C34.6189 309.37 34.6022 305.113 34.5689 300.86C39.39 298.86 44.0503 296.493 48.5089 293.78C48.6589 293.69 48.5089 293.41 48.3789 293.48C43.6068 295.398 38.9869 297.674 34.5589 300.29C34.5589 298.08 34.5589 295.86 34.5589 293.65C34.4289 282.25 34.4089 270.85 34.1189 259.45C37.0189 257.99 40.0089 256.7 42.9089 255.23C43.0989 255.13 42.9089 254.8 42.7589 254.88C39.8189 256.02 36.9889 257.39 34.0989 258.65C33.9389 252.77 33.7189 246.9 33.3589 241.02C33.3589 240.98 33.3431 240.942 33.3149 240.914C33.2868 240.886 33.2487 240.87 33.2089 240.87C33.1691 240.87 33.1309 240.886 33.1028 240.914C33.0747 240.942 33.0589 240.98 33.0589 241.02C32.6489 251.94 32.6789 262.87 32.8189 273.8C29.8189 271.4 26.6089 269.28 23.5589 266.95C23.4389 266.86 23.3189 267.06 23.4389 267.15C26.6389 269.58 29.6289 272.28 32.8289 274.7V276.55C29.5689 275.06 26.2589 273.68 22.9689 272.27C22.7089 272.16 22.4789 272.53 22.7489 272.65C26.0989 274.26 29.4389 275.9 32.8389 277.42C32.9089 282.83 33.0089 288.24 33.0789 293.65C33.1989 303.1 33.4089 312.55 33.6089 322C27.4622 318.893 21.2689 315.867 15.0289 312.92C14.7889 312.81 14.5789 313.14 14.8189 313.28C20.9104 316.764 27.1862 319.915 33.6189 322.72C33.7889 330.57 33.9489 323.43 34.0489 331.28C34.0634 331.369 34.1092 331.45 34.1779 331.508C34.2465 331.567 34.3337 331.599 34.4239 331.599C34.514 331.599 34.6012 331.567 34.6699 331.508C34.7386 331.45 34.7843 331.369 34.7989 331.28C34.6889 321.28 34.6689 326.28 34.6389 316.28C37.8789 315.48 50.1289 310.23 53.0389 308.79C53.3289 308.57 53.1189 308.05 52.8489 308.17Z" fill="#37474F"/>
<path d="M152.518 330.73C151.518 331.73 140.068 332.15 135.898 332.15C131.728 332.15 120.258 331.71 119.278 330.73C118.298 329.75 132.178 253.53 135.898 253.53C139.618 253.53 153.498 329.74 152.518 330.73Z" fill="#263238"/>
<path d="M152.748 311.31C149.918 312.39 139.418 316.66 137.158 317.91C137.158 317.43 137.158 316.91 137.158 316.47C139.688 314.98 142.228 313.47 144.768 312.03C147.585 310.557 150.319 308.931 152.958 307.16C153.088 307.07 153.018 306.82 152.848 306.89C150.084 308.184 147.411 309.664 144.848 311.32C142.268 312.83 139.718 314.39 137.178 315.96C137.178 312.31 137.178 308.65 137.128 304.96C141.28 303.247 145.292 301.215 149.128 298.88C149.258 298.81 149.128 298.56 149.018 298.63C144.927 300.277 140.966 302.229 137.168 304.47C137.168 302.57 137.168 300.67 137.168 298.77C137.058 288.99 137.038 279.2 136.788 269.42C139.278 268.17 141.848 267.06 144.328 265.8C144.498 265.72 144.328 265.43 144.208 265.5C141.678 266.5 139.208 267.65 136.768 268.74C136.638 263.74 136.448 258.65 136.138 253.61C136.138 253.576 136.124 253.542 136.1 253.518C136.076 253.494 136.043 253.48 136.008 253.48C135.974 253.48 135.941 253.494 135.916 253.518C135.892 253.542 135.878 253.576 135.878 253.61C135.528 262.98 135.558 272.36 135.678 281.73C133.098 279.68 130.348 277.86 127.728 275.86C127.628 275.78 127.528 275.96 127.628 276.03C130.368 278.12 132.938 280.43 135.688 282.51C135.688 283.04 135.688 283.57 135.688 284.1C132.888 282.82 130.058 281.63 127.228 280.42C127.008 280.33 126.808 280.65 127.038 280.75C129.918 282.14 132.778 283.54 135.698 284.84C135.758 289.49 135.838 294.13 135.898 298.77C136.008 306.88 136.188 314.99 136.358 323.1C131.078 320.433 125.765 317.837 120.418 315.31C120.208 315.22 120.028 315.5 120.238 315.62C125.462 318.614 130.847 321.318 136.368 323.72C136.518 330.46 136.658 325.37 136.738 332.11C136.738 332.195 136.772 332.276 136.832 332.336C136.892 332.396 136.973 332.43 137.058 332.43C137.143 332.43 137.224 332.396 137.284 332.336C137.344 332.276 137.378 332.195 137.378 332.11C137.278 323.52 137.268 326.75 137.248 318.16C140.028 317.47 150.538 312.97 153.038 311.73C153.198 311.65 153.018 311.2 152.748 311.31Z" fill="#37474F"/>
<path d="M44.2081 331.13C45.0381 331.96 54.6881 332.33 58.2081 332.33C61.7281 332.33 71.3781 331.96 72.2081 331.13C73.0381 330.3 61.3481 266.13 58.2081 266.13C55.0681 266.13 43.3781 330.3 44.2081 331.13Z" fill="#263238"/>
<path d="M44.0097 314.77C46.3997 315.68 55.2397 319.28 57.1497 320.33V319.13C55.0197 317.87 52.8797 316.63 50.7397 315.39C48.3711 314.142 46.0681 312.774 43.8397 311.29C43.7397 311.21 43.8397 310.99 43.9397 311.05C46.2694 312.143 48.5243 313.389 50.6897 314.78C52.8597 316.06 55.0097 317.37 57.1497 318.69C57.1497 315.62 57.1497 312.54 57.1497 309.47C53.6837 308.027 50.3309 306.325 47.1197 304.38C47.0097 304.31 47.1197 304.11 47.2097 304.16C50.6619 305.546 54.0048 307.191 57.2097 309.08C57.2097 307.48 57.2097 305.88 57.2097 304.28C57.2997 296.05 57.3097 287.8 57.5197 279.57C55.4297 278.51 53.2697 277.57 51.1797 276.52C51.0397 276.45 51.1797 276.21 51.2797 276.26C53.4097 277.09 55.4497 278.08 57.5397 278.99C57.653 274.743 57.8297 270.497 58.0697 266.25C58.0697 266.221 58.0813 266.193 58.1019 266.172C58.1225 266.152 58.1505 266.14 58.1797 266.14C58.2089 266.14 58.2368 266.152 58.2575 266.172C58.2781 266.193 58.2897 266.221 58.2897 266.25C58.5897 274.14 58.5597 282.04 58.4597 289.94C60.6297 288.2 62.9497 286.67 65.1597 284.99C65.2397 284.92 65.3297 285.07 65.2397 285.13C62.9297 286.89 60.7697 288.84 58.4597 290.59C58.4597 291.04 58.4597 291.48 58.4597 291.93C60.8097 290.85 63.1997 289.85 65.5797 288.83C65.7697 288.75 65.9297 289.02 65.7397 289.11C63.3197 290.27 60.8997 291.46 58.4497 292.55C58.3897 296.46 58.3297 300.38 58.2797 304.28C58.1897 311.11 58.0397 317.94 57.8897 324.77C62.3297 322.52 66.8197 320.33 71.3197 318.21C71.4897 318.13 71.6397 318.37 71.4697 318.47C67.058 320.982 62.5111 323.249 57.8497 325.26C57.7297 330.94 57.6097 326.52 57.5397 332.2C57.5277 332.262 57.4947 332.317 57.4463 332.357C57.398 332.397 57.3373 332.418 57.2747 332.418C57.212 332.418 57.1514 332.397 57.103 332.357C57.0547 332.317 57.0217 332.262 57.0097 332.2C57.0797 324.96 57.0997 327.81 57.1197 320.58C52.6018 319.018 48.1719 317.212 43.8497 315.17C43.6297 315.06 43.7797 314.69 44.0097 314.77Z" fill="#455A64"/>
<path d="M398.618 330.6C397.558 331.66 385.228 332.13 380.748 332.13C376.268 332.13 363.928 331.66 362.868 330.6C361.808 329.54 376.748 247.6 380.748 247.6C384.748 247.6 399.678 329.54 398.618 330.6Z" fill="#263238"/>
<path d="M398.849 309.71C395.849 310.87 384.519 315.47 382.079 316.81C382.079 316.3 382.079 315.81 382.079 315.27L390.269 310.49C393.298 308.906 396.239 307.161 399.079 305.26C399.209 305.16 399.139 304.89 398.949 304.96C395.975 306.357 393.096 307.947 390.329 309.72C387.559 311.35 384.819 313.03 382.079 314.72C382.079 310.79 382.079 306.86 382.029 302.93C386.482 301.082 390.785 298.892 394.899 296.38C395.039 296.29 394.949 296.03 394.789 296.1C390.387 297.869 386.125 299.969 382.039 302.38C382.039 300.38 382.039 298.3 381.989 296.26C381.879 285.74 381.859 275.26 381.589 264.69C384.269 263.34 387.029 262.15 389.699 260.8C389.869 260.71 389.699 260.4 389.559 260.47C386.849 261.53 384.239 262.79 381.559 263.96C381.419 258.53 381.209 253.11 380.879 247.69C380.879 247.653 380.865 247.617 380.838 247.591C380.812 247.565 380.777 247.55 380.739 247.55C380.702 247.55 380.667 247.565 380.64 247.591C380.614 247.617 380.599 247.653 380.599 247.69C380.219 257.77 380.259 267.85 380.379 277.93C377.609 275.72 374.649 273.76 371.829 271.62C371.719 271.53 371.619 271.72 371.729 271.8C374.669 274.05 377.429 276.53 380.389 278.8C380.389 279.37 380.389 279.94 380.389 280.51C377.389 279.14 374.339 277.86 371.299 276.56C371.059 276.45 370.849 276.79 371.089 276.91C374.189 278.39 377.269 279.91 380.409 281.31C380.483 286.303 380.556 291.303 380.629 296.31C380.739 305.03 380.929 313.75 381.119 322.47C375.439 319.597 369.723 316.803 363.969 314.09C363.749 313.99 363.559 314.3 363.779 314.42C369.402 317.636 375.194 320.547 381.129 323.14C381.289 330.38 381.439 324.91 381.529 332.14C381.529 332.23 381.565 332.317 381.629 332.38C381.693 332.444 381.779 332.48 381.869 332.48C381.96 332.48 382.046 332.444 382.11 332.38C382.174 332.317 382.209 332.23 382.209 332.14C382.109 322.9 382.099 326.37 382.069 317.14C385.069 316.4 396.369 311.56 399.069 310.24C399.359 310.08 399.159 309.6 398.849 309.71Z" fill="#455A64"/>
<path d="M347.618 330.6C346.558 331.66 334.228 332.13 329.738 332.13C325.248 332.13 312.928 331.66 311.868 330.6C310.808 329.54 325.738 247.6 329.738 247.6C333.738 247.6 348.668 329.54 347.618 330.6Z" fill="#263238"/>
<path d="M347.849 309.71C344.849 310.87 333.519 315.47 331.079 316.81V315.27C333.799 313.67 336.525 312.077 339.259 310.49C342.287 308.906 345.228 307.161 348.069 305.26C348.199 305.16 348.129 304.89 347.949 304.96C344.974 306.355 342.094 307.945 339.329 309.72C336.549 311.35 333.809 313.03 331.069 314.72C331.069 310.79 331.069 306.86 331.019 302.93C335.473 301.08 339.779 298.89 343.899 296.38C344.039 296.29 343.899 296.03 343.779 296.1C339.378 297.871 335.116 299.971 331.029 302.38C331.029 300.34 331.029 298.3 331.029 296.26C330.909 285.74 330.889 275.26 330.629 264.69C333.299 263.34 336.059 262.15 338.729 260.8C338.909 260.71 338.789 260.4 338.599 260.47C335.879 261.53 333.269 262.79 330.599 263.96C330.449 258.53 330.239 253.11 329.909 247.69C329.909 247.653 329.894 247.617 329.868 247.591C329.841 247.565 329.806 247.55 329.769 247.55C329.732 247.55 329.696 247.565 329.67 247.591C329.643 247.617 329.629 247.653 329.629 247.69C329.259 257.77 329.289 267.85 329.419 277.93C326.639 275.72 323.689 273.76 320.869 271.62C320.759 271.53 320.649 271.72 320.759 271.8C323.709 274.05 326.469 276.53 329.429 278.8C329.429 279.37 329.429 279.94 329.429 280.51C326.429 279.14 323.369 277.86 320.329 276.56C320.099 276.45 319.879 276.79 320.129 276.91C323.219 278.39 326.309 279.91 329.439 281.31C329.509 286.31 329.599 291.31 329.659 296.31C329.769 305.03 329.969 313.75 330.149 322.47C324.475 319.597 318.759 316.803 312.999 314.09C312.779 313.99 312.589 314.3 312.809 314.42C318.435 317.636 324.23 320.547 330.169 323.14C330.319 330.38 330.469 324.91 330.559 332.14C330.573 332.221 330.615 332.295 330.678 332.349C330.741 332.402 330.821 332.431 330.904 332.431C330.986 332.431 331.066 332.402 331.129 332.349C331.192 332.295 331.235 332.221 331.249 332.14C331.149 322.9 331.129 326.37 331.099 317.14C334.099 316.4 345.399 311.56 348.099 310.24C348.349 310.08 348.159 309.6 347.849 309.71Z" fill="#455A64"/>
<path d="M341.039 331.38C341.779 332.12 350.399 332.45 353.529 332.45C356.659 332.45 365.289 332.12 366.029 331.38C366.769 330.64 356.329 273.38 353.529 273.38C350.729 273.38 340.299 330.65 341.039 331.38Z" fill="#263238"/>
<path d="M340.848 316.79C342.978 317.6 350.848 320.79 352.568 321.79V320.71C350.668 319.59 348.758 318.49 346.848 317.38C344.736 316.267 342.683 315.045 340.698 313.72C340.598 313.65 340.698 313.46 340.778 313.51C342.849 314.487 344.853 315.599 346.778 316.84C348.718 317.98 350.628 319.15 352.548 320.33C352.548 317.58 352.548 314.84 352.548 312.09C349.435 310.801 346.426 309.273 343.548 307.52C343.448 307.47 343.548 307.28 343.628 307.33C346.703 308.569 349.682 310.036 352.538 311.72V307.44C352.618 300.09 352.638 292.73 352.818 285.38C350.948 284.44 349.028 283.61 347.158 282.66C347.038 282.6 347.158 282.38 347.248 282.43C349.148 283.17 350.978 284.05 352.838 284.87C352.938 281.08 353.078 277.29 353.318 273.5C353.324 273.48 353.337 273.463 353.354 273.45C353.371 273.438 353.392 273.431 353.413 273.431C353.434 273.431 353.454 273.438 353.471 273.45C353.489 273.463 353.501 273.48 353.508 273.5C353.768 280.5 353.748 287.59 353.658 294.64C355.598 293.09 357.658 291.72 359.658 290.22C359.728 290.16 359.808 290.29 359.728 290.35C357.668 291.92 355.728 293.66 353.678 295.22C353.678 295.62 353.678 296.02 353.678 296.41C355.778 295.41 357.908 294.56 360.038 293.65C360.198 293.58 360.348 293.82 360.178 293.9C358.018 294.9 355.858 295.99 353.668 296.97C353.668 300.46 353.558 303.97 353.518 307.44C353.438 313.54 353.308 319.63 353.168 325.72C357.168 323.72 361.168 321.72 365.168 319.87C365.318 319.8 365.458 320.02 365.298 320.1C361.373 322.352 357.327 324.385 353.178 326.19C353.068 331.26 352.958 327.19 352.898 332.27C352.898 332.334 352.873 332.395 352.828 332.44C352.783 332.485 352.721 332.51 352.658 332.51C352.594 332.51 352.533 332.485 352.488 332.44C352.443 332.395 352.418 332.334 352.418 332.27C352.488 325.81 352.498 328.47 352.518 322.01C348.478 320.614 344.515 319.001 340.648 317.18C340.528 317.05 340.658 316.71 340.848 316.79Z" fill="#37474F"/>
<path d="M101.369 331.27C102.109 332.01 110.729 332.34 113.869 332.34C117.009 332.34 125.619 332.01 126.359 331.27C127.099 330.53 116.659 273.27 113.869 273.27C111.079 273.27 100.629 330.53 101.369 331.27Z" fill="#263238"/>
<path d="M101.199 316.68C103.329 317.49 111.199 320.68 112.919 321.68C112.919 321.32 112.919 320.96 112.919 320.6L107.199 317.26C105.08 316.153 103.024 314.931 101.039 313.6C100.949 313.53 101.039 313.34 101.129 313.4C103.202 314.369 105.206 315.478 107.129 316.72C109.069 317.86 110.989 319.03 112.899 320.21C112.899 317.47 112.899 314.72 112.899 311.98C109.787 310.687 106.779 309.159 103.899 307.41C103.799 307.35 103.899 307.17 103.979 307.22C107.054 308.459 110.033 309.926 112.889 311.61C112.889 310.18 112.889 308.75 112.889 307.33C112.959 299.98 112.979 292.62 113.169 285.27C111.299 284.27 109.369 283.49 107.499 282.54C107.379 282.48 107.499 282.27 107.589 282.32C109.489 283.06 111.319 283.94 113.179 284.76C113.279 280.96 113.429 277.17 113.659 273.39C113.654 273.375 113.653 273.359 113.655 273.343C113.657 273.328 113.663 273.313 113.673 273.3C113.682 273.287 113.694 273.277 113.708 273.27C113.722 273.263 113.738 273.259 113.754 273.259C113.77 273.259 113.785 273.263 113.799 273.27C113.813 273.277 113.825 273.287 113.835 273.3C113.844 273.313 113.85 273.328 113.853 273.343C113.855 273.359 113.854 273.375 113.849 273.39C114.119 280.39 114.089 287.47 114.009 294.52C115.939 292.97 118.009 291.61 120.009 290.11C120.089 290.05 120.159 290.18 120.079 290.23C118.019 291.8 116.079 293.54 114.029 295.11C114.029 295.5 114.029 295.9 114.029 296.3C116.129 295.3 118.259 294.45 120.389 293.54C120.549 293.46 120.699 293.7 120.529 293.78C118.369 294.78 116.209 295.88 114.019 296.86L113.869 307.33C113.789 313.42 113.659 319.51 113.529 325.61C117.489 323.61 121.489 321.66 125.529 319.76C125.679 319.68 125.819 319.9 125.669 319.99C121.736 322.232 117.687 324.265 113.539 326.08C113.429 331.14 113.319 327.2 113.259 332.27C113.259 332.334 113.233 332.395 113.188 332.44C113.143 332.485 113.082 332.51 113.019 332.51C112.955 332.51 112.894 332.485 112.849 332.44C112.804 332.395 112.779 332.334 112.779 332.27C112.849 325.81 112.859 328.35 112.879 321.89C108.839 320.497 104.876 318.888 101.009 317.07C100.849 316.93 100.999 316.6 101.199 316.68Z" fill="#37474F"/>
<path d="M175.569 331.16C176.309 331.9 184.929 332.23 188.059 332.23C191.189 332.23 199.819 331.9 200.559 331.16C201.299 330.42 190.859 273.16 188.059 273.16C185.259 273.16 174.849 330.38 175.569 331.16Z" fill="#263238"/>
<path d="M175.4 316.56C177.53 317.37 185.4 320.56 187.12 321.56V320.48C185.22 319.36 183.31 318.26 181.4 317.15C179.49 316.04 177.16 314.89 175.25 313.49C175.15 313.42 175.25 313.23 175.33 313.28C177.401 314.257 179.405 315.369 181.33 316.61C183.27 317.75 185.18 318.92 187.1 320.1C187.1 317.35 187.1 314.61 187.1 311.86C183.986 310.571 180.977 309.043 178.1 307.29C178 307.23 178.1 307.05 178.18 307.1C181.255 308.339 184.233 309.806 187.09 311.49V307.21C187.17 299.86 187.19 292.5 187.37 285.15C185.5 284.21 183.58 283.38 181.71 282.43C181.59 282.37 181.71 282.15 181.8 282.2C183.7 282.94 185.53 283.82 187.39 284.64C187.49 280.85 187.64 277.06 187.87 273.27C187.876 273.25 187.889 273.233 187.906 273.22C187.923 273.208 187.944 273.201 187.965 273.201C187.986 273.201 188.006 273.208 188.023 273.22C188.04 273.233 188.053 273.25 188.06 273.27C188.32 280.27 188.3 287.36 188.21 294.41C190.15 292.86 192.21 291.49 194.21 289.99C194.29 289.93 194.36 290.06 194.28 290.12C192.22 291.69 190.28 293.43 188.28 294.99C188.28 295.39 188.28 295.79 188.28 296.18C190.38 295.18 192.51 294.33 194.64 293.42C194.8 293.35 194.95 293.59 194.78 293.67C192.62 294.67 190.46 295.76 188.27 296.74C188.22 300.23 188.16 303.74 188.12 307.21C188.04 313.31 187.91 319.4 187.78 325.49C191.78 323.49 195.78 321.49 199.78 319.64C199.93 319.57 200.07 319.78 199.91 319.87C195.983 322.118 191.937 324.151 187.79 325.96C187.68 331.03 187.57 327.2 187.51 332.27C187.51 332.334 187.484 332.395 187.439 332.44C187.394 332.485 187.333 332.51 187.27 332.51C187.206 332.51 187.145 332.485 187.1 332.44C187.055 332.395 187.03 332.334 187.03 332.27C187.1 325.81 187.11 328.27 187.13 321.78C183.089 320.384 179.127 318.771 175.26 316.95C175.06 316.82 175.19 316.48 175.4 316.56Z" fill="#37474F"/>
<path d="M408.938 331.16C409.678 331.9 418.298 332.23 421.428 332.23C424.558 332.23 433.178 331.9 433.918 331.16C434.658 330.42 424.218 273.16 421.428 273.16C418.638 273.16 408.198 330.38 408.938 331.16Z" fill="#263238"/>
<path d="M408.769 316.56C410.889 317.37 418.769 320.56 420.489 321.56V320.48C418.589 319.36 416.679 318.26 414.769 317.15C412.654 316.035 410.598 314.814 408.609 313.49C408.519 313.42 408.609 313.23 408.699 313.28C410.771 314.254 412.775 315.367 414.699 316.61C416.639 317.75 418.559 318.92 420.469 320.1C420.469 317.35 420.469 314.61 420.469 311.86C417.353 310.575 414.344 309.047 411.469 307.29C411.369 307.23 411.469 307.05 411.549 307.1C414.624 308.339 417.602 309.806 420.459 311.49C420.459 310.07 420.459 308.64 420.459 307.21C420.539 299.86 420.549 292.5 420.739 285.15C418.869 284.21 416.939 283.38 415.069 282.43C414.949 282.37 415.069 282.15 415.169 282.2C417.069 282.94 418.889 283.82 420.749 284.64C420.859 280.85 420.999 277.06 421.229 273.27C421.229 273.244 421.239 273.218 421.258 273.199C421.277 273.181 421.302 273.17 421.329 273.17C421.355 273.17 421.381 273.181 421.399 273.199C421.418 273.218 421.429 273.244 421.429 273.27C421.689 280.27 421.669 287.36 421.579 294.41C423.519 292.86 425.579 291.49 427.579 289.99C427.659 289.93 427.729 290.06 427.659 290.12C425.599 291.69 423.659 293.43 421.599 294.99C421.599 295.39 421.599 295.79 421.599 296.18C423.699 295.18 425.829 294.33 427.949 293.42C428.119 293.35 428.269 293.59 428.099 293.67C425.929 294.67 423.779 295.76 421.589 296.74C421.539 300.23 421.479 303.74 421.429 307.21C421.359 313.31 421.219 319.4 421.089 325.49C425.089 323.49 429.089 321.49 433.089 319.64C433.119 319.623 433.155 319.618 433.189 319.628C433.223 319.637 433.251 319.66 433.269 319.69C433.286 319.721 433.29 319.757 433.281 319.79C433.271 319.824 433.249 319.853 433.219 319.87C429.289 322.118 425.239 324.151 421.089 325.96C420.979 331.03 420.879 327.2 420.809 332.27C420.809 332.57 420.329 332.57 420.339 332.27C420.409 325.81 420.419 328.27 420.439 321.78C416.397 320.387 412.434 318.775 408.569 316.95C408.419 316.82 408.559 316.48 408.769 316.56Z" fill="#37474F"/>
<path d="M150.909 112.68C150.661 112.402 150.397 112.138 150.119 111.89C149.874 111.615 149.614 111.355 149.339 111.11C149.093 110.829 148.83 110.566 148.549 110.32C148.303 110.039 148.04 109.775 147.759 109.53C147.514 109.255 147.254 108.995 146.979 108.75C146.731 108.472 146.467 108.208 146.189 107.96C145.944 107.685 145.684 107.425 145.409 107.18C145.161 106.902 144.897 106.638 144.619 106.39C144.374 106.115 144.114 105.855 143.839 105.61C143.033 104.721 142.091 103.965 141.049 103.37V24.67C141.049 24.26 140.839 24.05 140.839 23.67C140.891 23.2418 140.818 22.8077 140.629 22.42C140.629 22.21 140.429 21.79 140.429 21.58C140.321 21.1531 140.181 20.7352 140.009 20.33C139.784 20.1013 139.637 19.8073 139.589 19.49C139.352 19.1225 139.07 18.7865 138.749 18.49C138.539 18.28 138.339 17.87 138.129 17.65L137.289 16.82C137.289 16.69 137.129 16.56 136.949 16.48L136.539 16.06H136.489C136.489 15.93 136.329 15.81 136.149 15.72L135.739 15.31C135.739 15.18 135.579 15.05 135.399 14.97L134.849 14.38C134.849 14.25 134.689 14.12 134.509 14.04L134.099 13.63C134.099 13.51 133.939 13.38 133.759 13.29L133.339 12.88C133.339 12.75 133.179 12.62 132.999 12.54L132.589 12.12C132.589 12 132.429 11.87 132.249 11.78L131.829 11.37C131.829 11.24 131.669 11.11 131.489 11.03L130.849 10.38C130.849 10.25 130.689 10.13 130.509 10.04L130.099 9.62997C130.099 9.49997 129.939 9.36998 129.759 9.28998L129.299 8.82997C129.299 8.62997 128.889 8.41998 128.679 8.41998C128.682 8.39208 128.679 8.3639 128.67 8.33728C128.661 8.31066 128.647 8.28618 128.628 8.26543C128.609 8.24469 128.586 8.22814 128.56 8.21687C128.535 8.20559 128.507 8.19983 128.479 8.19997C128.049 7.99997 127.839 7.78997 127.419 7.57997C127.209 7.36997 126.799 7.15997 126.419 6.73997C126.199 6.73997 125.789 6.53998 125.579 6.53998C125.159 6.32998 124.579 6.32998 124.329 6.10998C123.964 6.14165 123.597 6.07247 123.269 5.90997H119.729C119.48 6.0704 119.184 6.14096 118.889 6.10998C118.269 6.32998 117.889 6.32998 117.639 6.53998C117.229 6.53998 117.019 6.73997 116.799 7.15997C116.35 7.1732 115.915 7.31937 115.549 7.57997C115.349 7.78997 114.929 7.99997 114.709 8.19997C114.447 8.50592 114.098 8.72551 113.709 8.82997C113.559 9.14738 113.348 9.43264 113.089 9.66998C112.879 9.87998 112.879 10.08 112.669 10.08L35.279 106.09C33.4419 108.289 32.521 111.111 32.7072 113.97C32.8933 116.829 34.1723 119.508 36.279 121.45C36.5192 121.739 36.7835 122.006 37.069 122.25C37.3154 122.533 37.5829 122.797 37.869 123.04C38.1119 123.326 38.3759 123.594 38.659 123.84C38.9054 124.123 39.1729 124.387 39.459 124.63C39.6993 124.918 39.9636 125.186 40.249 125.43C40.4953 125.716 40.7627 125.984 41.049 126.23C41.2929 126.515 41.5605 126.78 41.849 127.02C42.0892 127.309 42.3535 127.576 42.639 127.82C42.8854 128.103 43.1529 128.367 43.439 128.61C43.9311 129.166 44.4771 129.672 45.069 130.12C47.032 131.825 49.5706 132.719 52.169 132.62H109.989V140.54C109.97 142.151 110.292 143.748 110.935 145.225C111.578 146.702 112.527 148.026 113.719 149.11C113.959 149.38 114.209 149.63 114.479 149.88C114.729 150.15 114.989 150.41 115.259 150.65C115.499 150.92 115.759 151.17 116.019 151.42C116.269 151.69 116.529 151.95 116.799 152.19C117.039 152.46 117.299 152.71 117.559 152.96C117.804 153.232 118.064 153.489 118.339 153.73C118.579 153.99 118.839 154.25 119.099 154.49C119.34 154.765 119.597 155.025 119.869 155.27C120.119 155.53 120.369 155.79 120.639 156.03C122.214 157.727 124.262 158.912 126.519 159.429C128.775 159.947 131.135 159.774 133.292 158.933C135.449 158.092 137.303 156.621 138.613 154.712C139.923 152.804 140.629 150.545 140.639 148.23V132.62H142.729C145.066 132.675 147.363 132.012 149.311 130.72C151.258 129.428 152.763 127.57 153.621 125.396C154.479 123.222 154.649 120.837 154.109 118.563C153.568 116.289 152.343 114.236 150.599 112.68H150.909ZM110.029 67.96V101.71H82.849L110.029 67.96Z" fill="#FFC200"/>
<path opacity="0.1" d="M150.909 112.68C150.661 112.402 150.397 112.138 150.119 111.89C149.874 111.615 149.614 111.355 149.339 111.11C149.093 110.829 148.83 110.566 148.549 110.32C148.303 110.039 148.04 109.775 147.759 109.53C147.514 109.255 147.254 108.995 146.979 108.75C146.731 108.472 146.467 108.208 146.189 107.96C145.944 107.685 145.684 107.425 145.409 107.18C145.161 106.902 144.897 106.638 144.619 106.39C144.374 106.115 144.114 105.855 143.839 105.61C143.033 104.721 142.091 103.965 141.049 103.37V24.67C141.049 24.26 140.839 24.05 140.839 23.67C140.891 23.2418 140.818 22.8077 140.629 22.42C140.629 22.21 140.429 21.79 140.429 21.58C140.321 21.1531 140.181 20.7352 140.009 20.33C139.784 20.1013 139.637 19.8073 139.589 19.49C139.352 19.1225 139.07 18.7865 138.749 18.49C138.539 18.28 138.339 17.87 138.129 17.65L137.289 16.82C137.289 16.69 137.129 16.56 136.949 16.48L136.539 16.06H136.489C136.489 15.93 136.329 15.81 136.149 15.72L135.739 15.31C135.739 15.18 135.579 15.05 135.399 14.97L134.849 14.38C134.849 14.25 134.689 14.12 134.509 14.04L134.099 13.63C134.099 13.51 133.939 13.38 133.759 13.29L133.339 12.88C133.339 12.75 133.179 12.62 132.999 12.54L132.589 12.12C132.589 12 132.429 11.87 132.249 11.78L131.829 11.37C131.829 11.24 131.669 11.11 131.489 11.03L130.849 10.38C130.849 10.25 130.689 10.13 130.509 10.04L130.099 9.62997C130.099 9.49997 129.939 9.36998 129.759 9.28998L129.299 8.82997C129.299 8.62997 128.889 8.41998 128.679 8.41998C128.682 8.39208 128.679 8.3639 128.67 8.33728C128.661 8.31066 128.647 8.28618 128.628 8.26543C128.609 8.24469 128.586 8.22814 128.56 8.21687C128.535 8.20559 128.507 8.19983 128.479 8.19997C128.049 7.99997 127.839 7.78997 127.419 7.57997C127.209 7.36997 126.799 7.15997 126.419 6.73997C126.199 6.73997 125.789 6.53998 125.579 6.53998C125.159 6.32998 124.579 6.32998 124.329 6.10998C123.964 6.14165 123.597 6.07247 123.269 5.90997H119.729C119.48 6.0704 119.184 6.14096 118.889 6.10998C118.269 6.32998 117.889 6.32998 117.639 6.53998C117.229 6.53998 117.019 6.73997 116.799 7.15997C116.35 7.1732 115.915 7.31937 115.549 7.57997C115.349 7.78997 114.929 7.99997 114.709 8.19997C114.447 8.50592 114.098 8.72551 113.709 8.82997C113.559 9.14738 113.348 9.43264 113.089 9.66998C112.879 9.87998 112.879 10.08 112.669 10.08L35.279 106.09C33.4419 108.289 32.521 111.111 32.7072 113.97C32.8933 116.829 34.1723 119.508 36.279 121.45C36.5192 121.739 36.7835 122.006 37.069 122.25C37.3154 122.533 37.5829 122.797 37.869 123.04C38.1119 123.326 38.3759 123.594 38.659 123.84C38.9054 124.123 39.1729 124.387 39.459 124.63C39.6993 124.918 39.9636 125.186 40.249 125.43C40.4953 125.716 40.7627 125.984 41.049 126.23C41.2929 126.515 41.5605 126.78 41.849 127.02C42.0892 127.309 42.3535 127.576 42.639 127.82C42.8854 128.103 43.1529 128.367 43.439 128.61C43.9311 129.166 44.4771 129.672 45.069 130.12C47.032 131.825 49.5706 132.719 52.169 132.62H109.989V140.54C109.97 142.151 110.292 143.748 110.935 145.225C111.578 146.702 112.527 148.026 113.719 149.11C113.959 149.38 114.209 149.63 114.479 149.88C114.729 150.15 114.989 150.41 115.259 150.65C115.499 150.92 115.759 151.17 116.019 151.42C116.269 151.69 116.529 151.95 116.799 152.19C117.039 152.46 117.299 152.71 117.559 152.96C117.804 153.232 118.064 153.489 118.339 153.73C118.579 153.99 118.839 154.25 119.099 154.49C119.34 154.765 119.597 155.025 119.869 155.27C120.119 155.53 120.369 155.79 120.639 156.03C122.214 157.727 124.262 158.912 126.519 159.429C128.775 159.947 131.135 159.774 133.292 158.933C135.449 158.092 137.303 156.621 138.613 154.712C139.923 152.804 140.629 150.545 140.639 148.23V132.62H142.729C145.066 132.675 147.363 132.012 149.311 130.72C151.258 129.428 152.763 127.57 153.621 125.396C154.479 123.222 154.649 120.837 154.109 118.563C153.568 116.289 152.343 114.236 150.599 112.68H150.909ZM110.029 67.96V101.71H82.849L110.029 67.96Z" fill="#191B1D"/>
<path d="M146.769 113.19C146.767 114.715 146.461 116.224 145.87 117.629C145.279 119.034 144.415 120.308 143.327 121.377C142.239 122.445 140.95 123.286 139.534 123.852C138.118 124.417 136.604 124.695 135.079 124.67H132.989V140.54C132.989 143.59 131.778 146.515 129.621 148.672C127.464 150.828 124.539 152.04 121.489 152.04C118.439 152.04 115.514 150.828 113.358 148.672C111.201 146.515 109.989 143.59 109.989 140.54V124.67H44.2494C41.6498 124.766 39.1114 123.868 37.1494 122.16C35.9398 121.251 34.9275 120.106 34.1738 118.794C33.4202 117.482 32.9409 116.031 32.7651 114.528C32.5893 113.025 32.7206 111.502 33.1511 110.052C33.5816 108.601 34.3023 107.254 35.2694 106.09L112.529 10.03C112.739 10.03 112.739 9.82998 112.949 9.61998C113.209 9.38065 113.422 9.09598 113.579 8.77998C113.962 8.66523 114.307 8.45131 114.579 8.15998C114.789 7.94998 115.209 7.73998 115.409 7.52998C115.778 7.26639 116.217 7.12001 116.669 7.10999C116.869 6.68999 117.079 6.48998 117.499 6.48998C117.709 6.27998 118.129 6.27998 118.759 6.06998C119.052 6.09987 119.346 6.0255 119.589 5.85999H123.139C123.447 6.02097 123.793 6.09365 124.139 6.06998C124.349 6.27998 124.979 6.27998 125.399 6.48998C125.609 6.48998 126.019 6.68998 126.229 6.68998C126.649 7.10998 127.069 7.31998 127.229 7.52998C127.649 7.73998 127.859 7.94998 128.279 8.15998C128.335 8.15998 128.389 8.18211 128.428 8.22149C128.467 8.26087 128.489 8.31428 128.489 8.36998C128.699 8.36998 129.119 8.56998 129.119 8.77998L129.949 9.61998C130.159 9.82998 130.369 10.24 130.579 10.45C130.895 10.7671 131.174 11.1194 131.409 11.5C131.462 11.8127 131.609 12.1021 131.829 12.33C132.001 12.7387 132.141 13.16 132.249 13.59C132.249 13.79 132.449 14.21 132.449 14.42C132.638 14.8079 132.711 15.2418 132.659 15.67C132.659 16.09 132.869 16.3 132.869 16.67V101.67H134.959C136.493 101.646 138.015 101.926 139.44 102.493C140.865 103.06 142.163 103.903 143.261 104.973C144.358 106.044 145.233 107.321 145.836 108.731C146.438 110.141 146.755 111.657 146.769 113.19ZM110.029 50.13L68.4694 101.7H110.029V50.13Z" fill="#FFC200"/>
<path d="M268.919 36.99C266.566 33.3887 263.826 30.0556 260.749 27.05C260.639 26.9235 260.518 26.8064 260.389 26.7C260.357 26.6585 260.32 26.6214 260.279 26.59C260.187 26.4851 260.091 26.385 259.989 26.29C259.719 26 259.439 25.73 259.159 25.46L259.089 25.39L258.799 25.11C258.767 25.0685 258.73 25.0315 258.689 25L258.399 24.69C258.129 24.41 257.839 24.14 257.569 23.87C257.55 23.8391 257.522 23.8147 257.489 23.8L257.209 23.52C257.177 23.4785 257.14 23.4414 257.099 23.41C257.007 23.2994 256.906 23.1958 256.799 23.1C256.539 22.82 256.249 22.55 255.979 22.27L255.899 22.21L255.619 21.92L255.509 21.82C255.409 21.71 255.319 21.61 255.209 21.51C254.949 21.22 254.659 20.96 254.389 20.68L254.309 20.62C254.222 20.5136 254.125 20.4165 254.019 20.33C253.988 20.2942 253.955 20.2608 253.919 20.23C245.539 11.58 234.599 5.85999 222.329 5.85999C205.839 5.85999 192.269 15.68 183.489 29.03C174.309 42.4 169.489 59.74 169.299 78.94C169.509 97.94 174.299 115.48 183.489 128.85C185.843 132.385 188.554 135.669 191.579 138.65L191.989 139.05C192.001 139.056 192.011 139.065 192.02 139.075C192.029 139.085 192.035 139.097 192.039 139.11L192.789 139.85C192.909 139.99 193.039 140.11 193.169 140.24L193.579 140.64L193.639 140.7L194.379 141.44L194.759 141.83C194.899 141.97 195.039 142.1 195.169 142.24C195.188 142.234 195.209 142.234 195.229 142.24L195.969 142.98C196.099 143.12 196.219 143.25 196.349 143.37L196.769 143.78C196.79 143.791 196.808 143.809 196.819 143.83L197.559 144.57L197.939 144.96L198.359 145.37C198.38 145.381 198.398 145.399 198.409 145.42C198.649 145.68 198.909 145.92 199.149 146.16C207.409 154.41 218.049 159.93 230.289 159.93C246.359 159.93 260.149 149.93 268.919 136.75C277.919 123.39 282.919 105.85 282.919 86.85C282.909 67.69 277.899 50.38 268.919 36.99ZM241.749 115.9C235.689 124.9 228.809 128.85 222.329 128.85C218.358 128.757 214.514 127.433 211.329 125.06C211.039 124.68 210.749 124.27 210.459 123.86C204.619 115.09 200.459 101.73 200.459 86.86C200.459 71.86 204.639 58.67 210.459 49.69C216.729 40.92 223.829 36.75 230.299 36.95C234.068 36.9312 237.742 38.1347 240.769 40.38C241.099 40.82 241.429 41.27 241.769 41.73C247.619 50.73 251.769 63.87 251.769 78.9C251.779 93.77 247.599 107.13 241.749 115.9Z" fill="#FFC200"/>
<path opacity="0.1" d="M268.919 36.99C266.566 33.3887 263.826 30.0556 260.749 27.05C260.639 26.9235 260.518 26.8064 260.389 26.7C260.357 26.6585 260.32 26.6214 260.279 26.59C260.187 26.4851 260.091 26.385 259.989 26.29C259.719 26 259.439 25.73 259.159 25.46L259.089 25.39L258.799 25.11C258.767 25.0685 258.73 25.0315 258.689 25L258.399 24.69C258.129 24.41 257.839 24.14 257.569 23.87C257.55 23.8391 257.522 23.8147 257.489 23.8L257.209 23.52C257.177 23.4785 257.14 23.4414 257.099 23.41C257.007 23.2994 256.906 23.1958 256.799 23.1C256.539 22.82 256.249 22.55 255.979 22.27L255.899 22.21L255.619 21.92L255.509 21.82C255.409 21.71 255.319 21.61 255.209 21.51C254.949 21.22 254.659 20.96 254.389 20.68L254.309 20.62C254.222 20.5136 254.125 20.4165 254.019 20.33C253.988 20.2942 253.955 20.2608 253.919 20.23C245.539 11.58 234.599 5.85999 222.329 5.85999C205.839 5.85999 192.269 15.68 183.489 29.03C174.309 42.4 169.489 59.74 169.299 78.94C169.509 97.94 174.299 115.48 183.489 128.85C185.843 132.385 188.554 135.669 191.579 138.65L191.989 139.05C192.001 139.056 192.011 139.065 192.02 139.075C192.029 139.085 192.035 139.097 192.039 139.11L192.789 139.85C192.909 139.99 193.039 140.11 193.169 140.24L193.579 140.64L193.639 140.7L194.379 141.44L194.759 141.83C194.899 141.97 195.039 142.1 195.169 142.24C195.188 142.234 195.209 142.234 195.229 142.24L195.969 142.98C196.099 143.12 196.219 143.25 196.349 143.37L196.769 143.78C196.79 143.791 196.808 143.809 196.819 143.83L197.559 144.57L197.939 144.96L198.359 145.37C198.38 145.381 198.398 145.399 198.409 145.42C198.649 145.68 198.909 145.92 199.149 146.16C207.409 154.41 218.049 159.93 230.289 159.93C246.359 159.93 260.149 149.93 268.919 136.75C277.919 123.39 282.919 105.85 282.919 86.85C282.909 67.69 277.899 50.38 268.919 36.99ZM241.749 115.9C235.689 124.9 228.809 128.85 222.329 128.85C218.358 128.757 214.514 127.433 211.329 125.06C211.039 124.68 210.749 124.27 210.459 123.86C204.619 115.09 200.459 101.73 200.459 86.86C200.459 71.86 204.639 58.67 210.459 49.69C216.729 40.92 223.829 36.75 230.299 36.95C234.068 36.9312 237.742 38.1347 240.769 40.38C241.099 40.82 241.429 41.27 241.769 41.73C247.619 50.73 251.769 63.87 251.769 78.9C251.779 93.77 247.599 107.13 241.749 115.9Z" fill="#191B1D"/>
<path d="M169.299 78.94C169.509 59.73 174.299 42.4 183.499 29.04C192.259 15.67 205.839 5.85999 222.329 5.85999C238.409 5.85999 252.189 15.67 260.969 29.04C269.969 42.4 274.969 59.73 274.969 78.94C274.969 97.94 269.969 115.48 260.969 128.85C252.189 142 238.409 152.02 222.329 152.02C205.839 152.02 192.259 142.02 183.499 128.85C174.309 115.48 169.509 97.94 169.299 78.94ZM251.769 78.94C251.769 63.94 247.599 50.75 241.769 41.77C235.769 33 228.829 28.83 222.349 29.04C215.879 28.83 208.779 33.04 202.519 41.77C196.669 50.77 192.519 63.91 192.519 78.94C192.519 93.77 196.699 107.13 202.519 115.94C208.779 124.94 215.879 128.89 222.349 128.89C228.819 128.89 235.719 124.89 241.769 115.94C247.599 107.13 251.769 93.77 251.769 78.94Z" fill="#FFC200"/>
<path d="M411.179 112.68C410.919 112.4 410.659 112.14 410.389 111.89C410.139 111.62 409.869 111.35 409.609 111.11C409.349 110.83 409.089 110.56 408.819 110.32C408.569 110.04 408.299 109.78 408.039 109.53C407.779 109.26 407.519 108.99 407.249 108.75C406.989 108.47 406.729 108.21 406.459 107.96C406.209 107.69 405.939 107.42 405.679 107.18C405.419 106.9 405.159 106.64 404.889 106.39C404.639 106.12 404.369 105.85 404.109 105.61C403.301 104.718 402.356 103.962 401.309 103.37V24.67C401.309 24.26 401.099 24.05 401.099 23.67C401.15 23.2418 401.077 22.8078 400.889 22.42C400.889 22.21 400.689 21.79 400.689 21.58C400.581 21.1532 400.44 20.7353 400.269 20.33C400.047 20.0987 399.901 19.8059 399.849 19.49C399.615 19.1202 399.333 18.7838 399.009 18.49C398.799 18.28 398.599 17.87 398.389 17.65L397.549 16.82C397.549 16.69 397.389 16.56 397.209 16.48L396.799 16.06H396.749C396.749 15.93 396.599 15.81 396.409 15.72L395.999 15.31C395.999 15.18 395.839 15.05 395.659 14.97L395.249 14.55H395.199C395.199 14.42 395.039 14.29 394.859 14.21L394.449 13.8C394.449 13.68 394.289 13.55 394.109 13.46L393.689 13.05C393.689 12.92 393.529 12.79 393.349 12.71L392.939 12.29C392.939 12.17 392.779 12.04 392.599 11.95L392.179 11.54C392.179 11.41 392.019 11.28 391.839 11.2L391.429 10.78C391.429 10.65 391.279 10.53 391.089 10.44L390.679 10.03C390.679 9.9 390.519 9.76999 390.339 9.68999L389.879 9.23C389.879 9.03 389.469 8.82 389.259 8.82C389.259 8.76165 389.235 8.70569 389.194 8.66444C389.153 8.62318 389.097 8.6 389.039 8.6C388.629 8.4 388.419 8.19 388.039 7.98C387.692 7.71664 387.358 7.4363 387.039 7.14C386.819 7.14 386.409 6.93999 386.199 6.93999C385.779 6.72999 385.199 6.72999 384.949 6.50999C384.584 6.54167 384.217 6.47249 383.889 6.31H379.849C379.6 6.47042 379.303 6.54098 379.009 6.50999C378.389 6.72999 378.009 6.72999 377.759 6.93999C377.349 6.93999 377.139 7.14 376.919 7.56C376.47 7.57499 376.035 7.72099 375.669 7.98C375.469 8.19 375.049 8.4 374.839 8.6C374.573 8.90184 374.226 9.12058 373.839 9.23C373.685 9.54531 373.474 9.82996 373.219 10.07C373.009 10.28 373.009 10.48 372.799 10.48L295.549 106.54C293.711 108.739 292.791 111.561 292.977 114.42C293.163 117.279 294.442 119.958 296.549 121.9C297.347 122.692 298.14 123.488 298.929 124.29C299.175 124.573 299.442 124.837 299.729 125.08C299.969 125.369 300.233 125.636 300.519 125.88C300.765 126.166 301.032 126.434 301.319 126.68C301.562 126.965 301.83 127.23 302.119 127.47C302.642 128.007 303.172 128.537 303.709 129.06C304.201 129.616 304.747 130.122 305.339 130.57C307.301 132.275 309.84 133.169 312.439 133.07H370.259V140.99C370.241 142.601 370.564 144.197 371.207 145.674C371.849 147.151 372.798 148.475 373.989 149.56C374.23 149.835 374.487 150.095 374.759 150.34C375.009 150.6 375.259 150.86 375.529 151.1C375.769 151.38 376.039 151.63 376.299 151.88C376.549 152.14 376.799 152.4 377.069 152.64C377.309 152.92 377.579 153.17 377.839 153.42C378.089 153.69 378.339 153.94 378.609 154.18C378.849 154.45 379.119 154.71 379.379 154.95C379.619 155.22 379.869 155.47 380.139 155.72C380.389 155.99 380.649 156.25 380.919 156.49C382.494 158.188 384.543 159.372 386.801 159.89C389.058 160.407 391.419 160.233 393.576 159.391C395.734 158.549 397.588 157.077 398.897 155.166C400.206 153.256 400.911 150.996 400.919 148.68V132.62H403.009C405.346 132.677 407.645 132.016 409.594 130.724C411.543 129.433 413.049 127.575 413.909 125.401C414.768 123.226 414.939 120.84 414.399 118.565C413.859 116.29 412.634 114.236 410.889 112.68H411.179ZM370.289 67.96V101.71H343.099L370.289 67.96Z" fill="#FFC200"/>
<path opacity="0.1" d="M411.179 112.68C410.919 112.4 410.659 112.14 410.389 111.89C410.139 111.62 409.869 111.35 409.609 111.11C409.349 110.83 409.089 110.56 408.819 110.32C408.569 110.04 408.299 109.78 408.039 109.53C407.779 109.26 407.519 108.99 407.249 108.75C406.989 108.47 406.729 108.21 406.459 107.96C406.209 107.69 405.939 107.42 405.679 107.18C405.419 106.9 405.159 106.64 404.889 106.39C404.639 106.12 404.369 105.85 404.109 105.61C403.301 104.718 402.356 103.962 401.309 103.37V24.67C401.309 24.26 401.099 24.05 401.099 23.67C401.15 23.2418 401.077 22.8078 400.889 22.42C400.889 22.21 400.689 21.79 400.689 21.58C400.581 21.1532 400.44 20.7353 400.269 20.33C400.047 20.0987 399.901 19.8059 399.849 19.49C399.615 19.1202 399.333 18.7838 399.009 18.49C398.799 18.28 398.599 17.87 398.389 17.65L397.549 16.82C397.549 16.69 397.389 16.56 397.209 16.48L396.799 16.06H396.749C396.749 15.93 396.599 15.81 396.409 15.72L395.999 15.31C395.999 15.18 395.839 15.05 395.659 14.97L395.249 14.55H395.199C395.199 14.42 395.039 14.29 394.859 14.21L394.449 13.8C394.449 13.68 394.289 13.55 394.109 13.46L393.689 13.05C393.689 12.92 393.529 12.79 393.349 12.71L392.939 12.29C392.939 12.17 392.779 12.04 392.599 11.95L392.179 11.54C392.179 11.41 392.019 11.28 391.839 11.2L391.429 10.78C391.429 10.65 391.279 10.53 391.089 10.44L390.679 10.03C390.679 9.9 390.519 9.76999 390.339 9.68999L389.879 9.23C389.879 9.03 389.469 8.82 389.259 8.82C389.259 8.76165 389.235 8.70569 389.194 8.66444C389.153 8.62318 389.097 8.6 389.039 8.6C388.629 8.4 388.419 8.19 388.039 7.98C387.692 7.71664 387.358 7.4363 387.039 7.14C386.819 7.14 386.409 6.93999 386.199 6.93999C385.779 6.72999 385.199 6.72999 384.949 6.50999C384.584 6.54167 384.217 6.47249 383.889 6.31H379.849C379.6 6.47042 379.303 6.54098 379.009 6.50999C378.389 6.72999 378.009 6.72999 377.759 6.93999C377.349 6.93999 377.139 7.14 376.919 7.56C376.47 7.57499 376.035 7.72099 375.669 7.98C375.469 8.19 375.049 8.4 374.839 8.6C374.573 8.90184 374.226 9.12058 373.839 9.23C373.685 9.54531 373.474 9.82996 373.219 10.07C373.009 10.28 373.009 10.48 372.799 10.48L295.549 106.54C293.711 108.739 292.791 111.561 292.977 114.42C293.163 117.279 294.442 119.958 296.549 121.9C297.347 122.692 298.14 123.488 298.929 124.29C299.175 124.573 299.442 124.837 299.729 125.08C299.969 125.369 300.233 125.636 300.519 125.88C300.765 126.166 301.032 126.434 301.319 126.68C301.562 126.965 301.83 127.23 302.119 127.47C302.642 128.007 303.172 128.537 303.709 129.06C304.201 129.616 304.747 130.122 305.339 130.57C307.301 132.275 309.84 133.169 312.439 133.07H370.259V140.99C370.241 142.601 370.564 144.197 371.207 145.674C371.849 147.151 372.798 148.475 373.989 149.56C374.23 149.835 374.487 150.095 374.759 150.34C375.009 150.6 375.259 150.86 375.529 151.1C375.769 151.38 376.039 151.63 376.299 151.88C376.549 152.14 376.799 152.4 377.069 152.64C377.309 152.92 377.579 153.17 377.839 153.42C378.089 153.69 378.339 153.94 378.609 154.18C378.849 154.45 379.119 154.71 379.379 154.95C379.619 155.22 379.869 155.47 380.139 155.72C380.389 155.99 380.649 156.25 380.919 156.49C382.494 158.188 384.543 159.372 386.801 159.89C389.058 160.407 391.419 160.233 393.576 159.391C395.734 158.549 397.588 157.077 398.897 155.166C400.206 153.256 400.911 150.996 400.919 148.68V132.62H403.009C405.346 132.677 407.645 132.016 409.594 130.724C411.543 129.433 413.049 127.575 413.909 125.401C414.768 123.226 414.939 120.84 414.399 118.565C413.859 116.29 412.634 114.236 410.889 112.68H411.179ZM370.289 67.96V101.71H343.099L370.289 67.96Z" fill="#191B1D"/>
<path d="M407.039 113.19C407.037 114.715 406.731 116.225 406.139 117.631C405.548 119.037 404.682 120.312 403.593 121.38C402.505 122.449 401.214 123.29 399.797 123.855C398.38 124.419 396.864 124.697 395.339 124.67H393.249V140.54C393.249 143.59 392.038 146.515 389.881 148.672C387.724 150.828 384.799 152.04 381.749 152.04C378.699 152.04 375.774 150.828 373.617 148.672C371.461 146.515 370.249 143.59 370.249 140.54V124.67H304.509C301.91 124.766 299.371 123.868 297.409 122.16C296.2 121.251 295.187 120.106 294.434 118.794C293.68 117.482 293.201 116.031 293.025 114.528C292.849 113.025 292.98 111.502 293.411 110.052C293.841 108.601 294.562 107.254 295.529 106.09L372.789 10.03C372.999 10.03 372.999 9.82998 373.209 9.61998C373.469 9.38065 373.682 9.09598 373.839 8.77998C374.221 8.66523 374.566 8.45131 374.839 8.15998C375.049 7.94998 375.469 7.73998 375.679 7.52998C376.043 7.26488 376.479 7.11824 376.929 7.10999C377.129 6.68999 377.339 6.48998 377.759 6.48998C377.969 6.27998 378.389 6.27998 379.019 6.06998C379.312 6.09987 379.606 6.0255 379.849 5.85999H383.399C383.707 6.02097 384.053 6.09365 384.399 6.06998C384.609 6.27998 385.239 6.27998 385.659 6.48998C385.869 6.48998 386.289 6.68998 386.489 6.68998C386.909 7.10998 387.329 7.31998 387.489 7.52998C387.909 7.73998 388.119 7.94998 388.539 8.15998C388.574 8.14037 388.613 8.13104 388.653 8.13309C388.693 8.13514 388.732 8.14848 388.764 8.17155C388.797 8.19463 388.822 8.22648 388.837 8.26339C388.852 8.3003 388.856 8.34074 388.849 8.37998C389.059 8.37998 389.479 8.57999 389.479 8.78999L390.309 9.62998C390.519 9.83998 390.729 10.25 390.939 10.46C391.258 10.7743 391.537 11.127 391.769 11.51C391.822 11.8227 391.969 12.1121 392.189 12.34C392.361 12.7487 392.501 13.17 392.609 13.6C392.609 13.8 392.809 14.22 392.809 14.43C392.998 14.8179 393.07 15.2518 393.019 15.68C393.019 16.1 393.229 16.31 393.229 16.68V101.68H395.319C398.399 101.656 401.362 102.854 403.559 105.012C405.756 107.17 407.008 110.111 407.039 113.19ZM370.289 50.13L328.729 101.7H370.289V50.13Z" fill="#FFC200"/>
<path opacity="0.2" d="M230.48 329.5C236.35 329.5 241.11 324.741 241.11 318.87C241.11 312.999 236.35 308.24 230.48 308.24C224.609 308.24 219.85 312.999 219.85 318.87C219.85 324.741 224.609 329.5 230.48 329.5Z" fill="#FFC200"/>
<path opacity="0.2" d="M230.48 329.45C234.987 329.45 238.64 325.797 238.64 321.29C238.64 316.783 234.987 313.13 230.48 313.13C225.974 313.13 222.32 316.783 222.32 321.29C222.32 325.797 225.974 329.45 230.48 329.45Z" fill="#FFC200"/>
<path d="M231.209 329.43C231.209 329.43 224.719 328.48 224.339 328.73C223.959 328.98 223.589 330.87 224.339 331.33C225.089 331.79 231.059 330.96 231.059 330.96C231.259 330.763 231.384 330.502 231.411 330.222C231.438 329.943 231.367 329.662 231.209 329.43Z" fill="#FFC200"/>
<path opacity="0.49" d="M231.209 329.43C231.209 329.43 224.719 328.48 224.339 328.73C223.959 328.98 223.589 330.87 224.339 331.33C225.089 331.79 231.059 330.96 231.059 330.96C231.259 330.763 231.384 330.502 231.411 330.222C231.438 329.943 231.367 329.662 231.209 329.43Z" fill="#191B1D"/>
<path opacity="0.2" d="M224.37 328.81C224.56 328.76 224.88 329.41 224.81 330.13C224.74 330.85 224.48 331.28 224.37 331.27C224.26 331.26 223.9 330.85 223.96 329.96C224.01 329.32 224.2 328.84 224.37 328.81Z" fill="white"/>
<path d="M225.049 328.99C225.422 328.965 225.796 328.965 226.169 328.99L226.729 329.04L227.009 329.09C227.096 329.119 227.187 329.14 227.279 329.15C227.64 329.21 228.004 329.25 228.369 329.27L229.489 329.37C229.116 329.39 228.742 329.39 228.369 329.37C227.991 329.373 227.613 329.346 227.239 329.29C227.146 329.277 227.056 329.254 226.969 329.22L226.699 329.17L226.159 329.09L225.049 328.99Z" fill="#191B1D"/>
<path d="M225.779 329.38L226.569 329.51C226.829 329.56 227.089 329.62 227.339 329.65C227.599 329.665 227.86 329.665 228.119 329.65H228.909C228.653 329.719 228.392 329.772 228.129 329.81C227.86 329.84 227.588 329.84 227.319 329.81C227.056 329.766 226.795 329.706 226.539 329.63C226.28 329.566 226.026 329.482 225.779 329.38Z" fill="#191B1D"/>
<path d="M228.969 329.94C229.31 329.688 229.716 329.539 230.139 329.51C230.354 329.497 230.57 329.535 230.769 329.62C230.879 329.66 230.978 329.725 231.059 329.81C231.102 329.856 231.136 329.911 231.159 329.97C231.164 329.993 231.164 330.017 231.159 330.04C231.144 330.07 231.123 330.097 231.099 330.12C230.941 330.284 230.734 330.393 230.509 330.43C230.397 330.46 230.28 330.46 230.169 330.43L229.849 330.38C229.759 330.31 229.659 330.26 229.609 330.13C229.599 330.111 229.594 330.091 229.594 330.07C229.594 330.049 229.599 330.029 229.609 330.01C229.616 329.993 229.627 329.979 229.641 329.966C229.655 329.954 229.671 329.945 229.689 329.94H229.849C229.955 329.925 230.063 329.925 230.169 329.94C230.273 329.947 230.373 329.982 230.459 330.04C230.267 329.975 230.06 329.975 229.869 330.04H229.729C229.729 330.04 229.729 330.04 229.729 330.1C229.729 330.16 229.849 330.22 229.929 330.26C230.015 330.305 230.105 330.342 230.199 330.37C230.287 330.395 230.38 330.395 230.469 330.37C230.654 330.328 230.824 330.235 230.959 330.1C230.944 330.067 230.923 330.037 230.899 330.01C230.835 329.94 230.756 329.885 230.669 329.85C230.491 329.775 230.301 329.734 230.109 329.73C229.906 329.727 229.704 329.754 229.509 329.81C229.325 329.838 229.145 329.881 228.969 329.94Z" fill="#191B1D"/>
<path d="M231.13 330.57C230.877 330.703 230.603 330.791 230.32 330.83C230.177 330.845 230.033 330.845 229.89 330.83C229.743 330.809 229.599 330.772 229.46 330.72C229.199 330.619 228.948 330.495 228.71 330.35C228.463 330.225 228.201 330.134 227.93 330.08C228.215 330.06 228.5 330.111 228.76 330.23C229.03 330.33 229.27 330.46 229.52 330.55C229.772 330.646 230.04 330.69 230.31 330.68C230.586 330.672 230.861 330.635 231.13 330.57Z" fill="#191B1D"/>
<path d="M224.85 331.12H225.85C226.183 331.141 226.517 331.141 226.85 331.12C227.179 331.061 227.515 331.041 227.85 331.06C228.18 331.06 228.51 331.12 228.85 331.17H227.85C227.514 331.173 227.18 331.203 226.85 331.26C226.517 331.298 226.182 331.298 225.85 331.26C225.514 331.233 225.18 331.187 224.85 331.12Z" fill="#191B1D"/>
<path d="M229.31 330.91L228.48 330.71L228.06 330.63C227.928 330.605 227.792 330.605 227.66 330.63L226.82 330.8L226.39 330.85C226.241 330.874 226.089 330.874 225.94 330.85C225.797 330.819 225.657 330.779 225.52 330.73C225.371 330.679 225.235 330.597 225.12 330.49C225.094 330.45 225.074 330.406 225.06 330.36C225.04 330.309 225.04 330.251 225.06 330.2C225.106 330.121 225.182 330.064 225.27 330.04C225.411 329.989 225.56 329.962 225.71 329.96C225.856 329.95 226.003 329.95 226.15 329.96C226.299 329.978 226.443 330.029 226.57 330.11C226.591 330.121 226.608 330.137 226.622 330.156C226.636 330.175 226.646 330.197 226.65 330.22C226.65 330.29 226.58 330.31 226.55 330.33H226.34C226.197 330.345 226.053 330.345 225.91 330.33L226.33 330.28C226.45 330.28 226.67 330.19 226.52 330.13C226.4 330.066 226.266 330.031 226.13 330.03C225.994 330.015 225.856 330.015 225.72 330.03C225.584 330.04 225.45 330.067 225.32 330.11C225.27 330.11 225.22 330.17 225.21 330.2C225.198 330.216 225.191 330.235 225.191 330.255C225.191 330.275 225.198 330.294 225.21 330.31C225.306 330.393 225.418 330.454 225.54 330.49C225.67 330.539 225.804 330.579 225.94 330.61C226.212 330.649 226.488 330.649 226.76 330.61C227.04 330.61 227.31 330.51 227.6 330.48H227.82C227.893 330.474 227.967 330.474 228.04 330.48L228.46 330.59C228.77 330.71 229.04 330.8 229.31 330.91Z" fill="#191B1D"/>
<path d="M227.48 330.11C227.09 330.04 226.73 329.94 226.36 329.84L225.82 329.7C225.638 329.642 225.45 329.608 225.26 329.6C225.451 329.555 225.649 329.555 225.84 329.6C226.032 329.621 226.223 329.658 226.41 329.71C226.781 329.8 227.141 329.934 227.48 330.11Z" fill="#191B1D"/>
<path d="M230.309 329.38C230.309 329.38 236.809 328.5 237.199 328.76C237.589 329.02 237.909 330.91 237.129 331.36C236.349 331.81 230.399 330.91 230.399 330.91C230.208 330.706 230.095 330.441 230.078 330.161C230.062 329.882 230.144 329.606 230.309 329.38Z" fill="#FFC200"/>
<path opacity="0.49" d="M230.309 329.38C230.309 329.38 236.809 328.5 237.199 328.76C237.589 329.02 237.909 330.91 237.129 331.36C236.349 331.81 230.399 330.91 230.399 330.91C230.208 330.706 230.095 330.441 230.078 330.161C230.062 329.882 230.144 329.606 230.309 329.38Z" fill="#191B1D"/>
<path opacity="0.2" d="M237.159 328.84C236.969 328.84 236.639 329.44 236.709 330.16C236.779 330.88 237.019 331.31 237.129 331.3C237.239 331.29 237.599 330.89 237.549 330C237.519 329.38 237.329 328.88 237.159 328.84Z" fill="white"/>
<path d="M230.549 330.73L231.659 330.79C231.842 330.8 232.026 330.8 232.209 330.79H232.479H232.769C233.145 330.797 233.519 330.833 233.889 330.9C234.256 330.956 234.62 331.033 234.979 331.13L233.869 331.04C233.499 331.04 233.129 330.97 232.769 330.97H232.499C232.402 330.98 232.305 330.98 232.209 330.97C232.022 330.98 231.835 330.98 231.649 330.97C231.279 330.88 230.909 330.81 230.549 330.73Z" fill="#191B1D"/>
<path d="M231.219 330.71C231.47 330.621 231.727 330.551 231.989 330.5C232.252 330.44 232.519 330.4 232.789 330.38C233.058 330.379 233.326 330.409 233.589 330.47C233.85 330.528 234.107 330.602 234.359 330.69L233.569 330.61C233.313 330.579 233.056 330.562 232.799 330.56L232.019 330.64L231.219 330.71Z" fill="#191B1D"/>
<path d="M234.439 330.38C234.619 330.481 234.806 330.568 234.999 330.64C235.19 330.705 235.388 330.745 235.589 330.76C235.783 330.774 235.977 330.747 236.159 330.68C236.25 330.653 236.332 330.605 236.399 330.54C236.431 330.517 236.455 330.486 236.469 330.45V330.4C236.344 330.257 236.181 330.153 235.999 330.1C235.914 330.08 235.825 330.08 235.739 330.1L235.449 330.18C235.367 330.21 235.295 330.262 235.239 330.33C235.239 330.33 235.239 330.33 235.239 330.39H235.369C235.563 330.46 235.776 330.46 235.969 330.39C235.88 330.448 235.776 330.48 235.669 330.48C235.563 330.495 235.456 330.495 235.349 330.48L235.189 330.43C235.189 330.43 235.129 330.43 235.109 330.35C235.1 330.333 235.095 330.314 235.095 330.295C235.095 330.276 235.1 330.257 235.109 330.24C235.164 330.131 235.256 330.046 235.369 330L235.669 329.89C235.784 329.86 235.905 329.86 236.019 329.89C236.237 329.949 236.431 330.071 236.579 330.24V330.33C236.586 330.353 236.586 330.377 236.579 330.4C236.554 330.457 236.516 330.508 236.469 330.55C236.382 330.627 236.28 330.685 236.169 330.72C235.964 330.789 235.745 330.81 235.529 330.78C235.138 330.74 234.763 330.603 234.439 330.38Z" fill="#191B1D"/>
<path d="M236.64 329.89C236.381 329.801 236.112 329.74 235.84 329.71C235.575 329.675 235.306 329.695 235.05 329.77C234.79 329.84 234.54 329.95 234.26 330.04C233.99 330.131 233.702 330.159 233.42 330.12C233.696 330.092 233.966 330.021 234.22 329.91C234.471 329.784 234.731 329.681 235 329.6C235.139 329.557 235.284 329.533 235.43 329.53C235.573 329.515 235.717 329.515 235.86 329.53C236.14 329.601 236.404 329.723 236.64 329.89Z" fill="#191B1D"/>
<path d="M232.76 329.27C233.09 329.2 233.424 329.15 233.76 329.12C234.092 329.082 234.428 329.082 234.76 329.12C235.09 329.177 235.425 329.207 235.76 329.21H236.76C236.429 329.27 236.095 329.31 235.76 329.33C235.428 329.369 235.092 329.369 234.76 329.33C234.427 329.304 234.093 329.304 233.76 329.33L232.76 329.27Z" fill="#191B1D"/>
<path d="M234.849 329.38L234.019 329.6L233.599 329.67C233.523 329.68 233.445 329.68 233.369 329.67H233.149L232.319 329.47C232.055 329.401 231.782 329.371 231.509 329.38L231.109 329.46C230.983 329.49 230.864 329.545 230.759 329.62C230.75 329.637 230.746 329.656 230.746 329.675C230.746 329.694 230.75 329.713 230.759 329.73C230.784 329.772 230.823 329.804 230.869 329.82C230.993 329.876 231.124 329.917 231.259 329.94C231.395 329.95 231.532 329.95 231.669 329.94C231.803 329.948 231.936 329.924 232.059 329.87C232.209 329.87 231.999 329.75 231.879 329.71C231.745 329.669 231.608 329.639 231.469 329.62H231.889C231.965 329.634 232.039 329.658 232.109 329.69C232.133 329.697 232.153 329.711 232.168 329.731C232.182 329.751 232.19 329.775 232.189 329.8C232.185 329.823 232.175 329.845 232.161 329.864C232.147 329.883 232.13 329.899 232.109 329.91C231.971 329.976 231.822 330.013 231.669 330.02C231.526 330.035 231.382 330.035 231.239 330.02C231.088 330.011 230.939 329.977 230.799 329.92C230.712 329.882 230.641 329.815 230.599 329.73C230.584 329.681 230.584 329.629 230.599 329.58C230.612 329.532 230.636 329.488 230.669 329.45C230.792 329.351 230.936 329.279 231.089 329.24C231.23 329.2 231.374 329.169 231.519 329.15C231.668 329.13 231.82 329.13 231.969 329.15C232.111 329.17 232.251 329.2 232.389 329.24L233.209 329.47C233.344 329.495 233.483 329.495 233.619 329.47H234.039C234.299 329.51 234.579 329.46 234.849 329.38Z" fill="#191B1D"/>
<path d="M232.969 330.07C232.618 330.231 232.248 330.349 231.869 330.42C231.68 330.453 231.49 330.477 231.299 330.49C231.101 330.505 230.903 330.474 230.719 330.4C230.905 330.421 231.093 330.421 231.279 330.4L231.839 330.29C232.211 330.196 232.588 330.122 232.969 330.07Z" fill="#191B1D"/>
<path d="M234.699 330.77C234.999 330.87 235.269 330.96 235.559 331.03L235.989 331.11H236.439C236.298 331.177 236.145 331.214 235.989 331.22C235.831 331.224 235.673 331.207 235.519 331.17C235.368 331.132 235.22 331.078 235.079 331.01C234.941 330.95 234.813 330.869 234.699 330.77Z" fill="#191B1D"/>
<path d="M235.719 315.63C235.719 315.657 235.724 315.684 235.735 315.709C235.746 315.734 235.761 315.756 235.781 315.775C235.8 315.794 235.824 315.808 235.849 315.818C235.875 315.827 235.902 315.831 235.929 315.83C235.982 315.83 236.033 315.809 236.07 315.771C236.108 315.734 236.129 315.683 236.129 315.63C236.13 315.603 236.126 315.576 236.116 315.55C236.107 315.525 236.093 315.502 236.074 315.482C236.055 315.462 236.033 315.447 236.008 315.436C235.983 315.425 235.956 315.42 235.929 315.42C235.873 315.42 235.82 315.442 235.78 315.482C235.741 315.521 235.719 315.574 235.719 315.63Z" fill="#FFC200"/>
<path d="M233.57 306.98C233.57 307.02 233.582 307.058 233.604 307.091C233.626 307.124 233.657 307.15 233.694 307.165C233.73 307.18 233.771 307.184 233.809 307.176C233.848 307.168 233.884 307.149 233.912 307.121C233.94 307.093 233.959 307.058 233.966 307.019C233.974 306.98 233.97 306.94 233.955 306.904C233.94 306.867 233.914 306.836 233.881 306.814C233.849 306.792 233.81 306.78 233.77 306.78C233.717 306.78 233.666 306.801 233.629 306.839C233.591 306.876 233.57 306.927 233.57 306.98Z" fill="#FFC200"/>
<path d="M225.85 314.31C225.888 314.347 225.938 314.367 225.99 314.367C226.043 314.367 226.093 314.347 226.13 314.31C226.168 314.271 226.189 314.219 226.189 314.165C226.189 314.111 226.168 314.059 226.13 314.02C226.093 313.983 226.043 313.963 225.99 313.963C225.938 313.963 225.888 313.983 225.85 314.02C225.829 314.038 225.812 314.06 225.801 314.085C225.789 314.11 225.783 314.137 225.783 314.165C225.783 314.193 225.789 314.22 225.801 314.245C225.812 314.27 225.829 314.292 225.85 314.31Z" fill="#FFC200"/>
<path d="M224.07 326.61C224.07 326.663 224.091 326.714 224.129 326.751C224.166 326.789 224.217 326.81 224.27 326.81C224.323 326.81 224.374 326.789 224.412 326.751C224.449 326.714 224.47 326.663 224.47 326.61C224.47 326.557 224.449 326.506 224.412 326.469C224.374 326.431 224.323 326.41 224.27 326.41C224.217 326.41 224.166 326.431 224.129 326.469C224.091 326.506 224.07 326.557 224.07 326.61Z" fill="#FFC200"/>
<path d="M236.65 325.24C236.65 325.28 236.662 325.318 236.684 325.351C236.706 325.384 236.737 325.41 236.774 325.425C236.81 325.44 236.851 325.444 236.889 325.436C236.928 325.428 236.964 325.409 236.992 325.381C237.02 325.353 237.039 325.318 237.047 325.279C237.054 325.24 237.05 325.2 237.035 325.164C237.02 325.127 236.994 325.096 236.962 325.074C236.929 325.052 236.89 325.04 236.85 325.04C236.797 325.04 236.746 325.061 236.709 325.099C236.671 325.136 236.65 325.187 236.65 325.24Z" fill="#FFC200"/>
<path d="M235.449 316.94C235.449 317.012 235.478 317.08 235.528 317.131C235.579 317.182 235.648 317.21 235.719 317.21C235.791 317.21 235.859 317.182 235.91 317.131C235.961 317.08 235.989 317.012 235.989 316.94C235.989 316.868 235.961 316.8 235.91 316.749C235.859 316.698 235.791 316.67 235.719 316.67C235.684 316.67 235.649 316.677 235.616 316.691C235.583 316.704 235.553 316.724 235.528 316.749C235.503 316.774 235.483 316.804 235.47 316.837C235.456 316.869 235.449 316.905 235.449 316.94Z" fill="#FFC200"/>
<path d="M226.969 312.06C227.012 312.091 227.062 312.109 227.115 312.111C227.168 312.114 227.22 312.101 227.265 312.074C227.31 312.047 227.347 312.007 227.37 311.96C227.393 311.913 227.402 311.859 227.395 311.807C227.389 311.755 227.367 311.706 227.332 311.666C227.298 311.626 227.253 311.597 227.202 311.582C227.151 311.567 227.098 311.568 227.047 311.584C226.997 311.599 226.952 311.629 226.919 311.67C226.895 311.699 226.878 311.731 226.868 311.767C226.858 311.802 226.855 311.839 226.86 311.876C226.864 311.912 226.876 311.948 226.895 311.979C226.914 312.011 226.939 312.038 226.969 312.06Z" fill="#FFC200"/>
<path d="M224.58 322.14C224.583 322.213 224.613 322.281 224.666 322.332C224.718 322.382 224.788 322.41 224.86 322.41C224.932 322.41 225 322.382 225.051 322.331C225.102 322.28 225.13 322.212 225.13 322.14C225.13 322.067 225.102 321.998 225.052 321.945C225.001 321.893 224.933 321.863 224.86 321.86C224.787 321.863 224.717 321.893 224.665 321.945C224.613 321.997 224.583 322.067 224.58 322.14Z" fill="#FFC200"/>
<path d="M235.02 316.55C235.02 316.566 235.023 316.581 235.029 316.596C235.035 316.611 235.044 316.624 235.055 316.635C235.066 316.646 235.079 316.655 235.094 316.661C235.108 316.667 235.124 316.67 235.14 316.67C235.155 316.67 235.171 316.667 235.185 316.661C235.2 316.655 235.213 316.646 235.224 316.635C235.236 316.624 235.244 316.611 235.25 316.596C235.256 316.581 235.26 316.566 235.26 316.55C235.257 316.519 235.244 316.49 235.222 316.468C235.2 316.446 235.171 316.432 235.14 316.43C235.108 316.43 235.077 316.443 235.055 316.465C235.032 316.488 235.02 316.518 235.02 316.55Z" fill="#FFC200"/>
<path d="M236.14 320.49C236.206 320.49 236.26 320.436 236.26 320.37C236.26 320.304 236.206 320.25 236.14 320.25C236.073 320.25 236.02 320.304 236.02 320.37C236.02 320.436 236.073 320.49 236.14 320.49Z" fill="#FFC200"/>
<path d="M237.559 324.16C237.559 324.192 237.571 324.222 237.594 324.245C237.616 324.267 237.647 324.28 237.679 324.28C237.71 324.28 237.741 324.267 237.763 324.245C237.786 324.222 237.799 324.192 237.799 324.16C237.799 324.128 237.786 324.098 237.763 324.075C237.741 324.053 237.71 324.04 237.679 324.04C237.648 324.042 237.618 324.056 237.596 324.078C237.574 324.1 237.561 324.129 237.559 324.16Z" fill="#FFC200"/>
<path d="M224.189 321.29C224.189 321.322 224.202 321.352 224.225 321.375C224.247 321.397 224.278 321.41 224.309 321.41C224.341 321.41 224.372 321.397 224.394 321.375C224.417 321.352 224.429 321.322 224.429 321.29C224.427 321.259 224.414 321.23 224.392 321.208C224.37 321.186 224.341 321.172 224.309 321.17C224.278 321.17 224.247 321.183 224.225 321.205C224.202 321.228 224.189 321.258 224.189 321.29Z" fill="#FFC200"/>
<path d="M236.62 312.82C236.62 312.849 236.631 312.877 236.652 312.898C236.672 312.918 236.7 312.93 236.73 312.93C236.745 312.931 236.76 312.93 236.775 312.925C236.789 312.92 236.803 312.912 236.814 312.902C236.825 312.891 236.834 312.879 236.84 312.865C236.847 312.851 236.85 312.835 236.85 312.82C236.85 312.788 236.837 312.758 236.814 312.735C236.792 312.713 236.761 312.7 236.73 312.7C236.714 312.7 236.699 312.703 236.685 312.709C236.671 312.715 236.658 312.724 236.648 312.736C236.638 312.747 236.63 312.76 236.625 312.775C236.62 312.789 236.618 312.805 236.62 312.82Z" fill="#FFC200"/>
<path d="M231.3 311.84C231.366 311.84 231.42 311.786 231.42 311.72C231.42 311.654 231.366 311.6 231.3 311.6C231.233 311.6 231.18 311.654 231.18 311.72C231.18 311.786 231.233 311.84 231.3 311.84Z" fill="#FFC200"/>
<path d="M230.409 310.06C230.475 310.06 230.529 310.006 230.529 309.94C230.529 309.874 230.475 309.82 230.409 309.82C230.343 309.82 230.289 309.874 230.289 309.94C230.289 310.006 230.343 310.06 230.409 310.06Z" fill="#FFC200"/>
<path d="M226.349 329.71C227.591 330.183 228.888 330.496 230.209 330.64H230.999C230.999 330.64 232.999 330.17 233.269 330.07C233.539 329.97 234.269 330.28 234.549 330.07C235.286 329.507 235.931 328.832 236.459 328.07C236.362 327.347 236.187 326.636 235.939 325.95C235.939 325.66 236.339 323.95 236.379 323.37C236.419 322.79 234.729 319.98 234.569 319.52C234.608 318.787 234.773 318.066 235.059 317.39C235.059 317.39 233.669 318.85 233.709 319.2C233.749 319.55 234.389 320.33 234.429 320.58C234.469 320.83 233.559 322.58 233.589 322.84C233.775 323.297 233.909 323.773 233.989 324.26C233.893 323.837 233.669 323.453 233.349 323.16C232.988 322.962 232.638 322.745 232.299 322.51C231.979 321.96 231.758 321.357 231.649 320.73C231.885 320.369 232.016 319.951 232.029 319.52C231.694 318.6 231.255 317.721 230.719 316.9C230.719 316.9 230.939 318.02 230.719 318.29C230.499 318.56 229.719 318.97 229.629 319.18C229.539 319.39 230.349 320.3 230.249 320.52C230.149 320.74 228.359 321.11 228.179 321.36C227.831 322.141 227.648 322.985 227.639 323.84C227.769 324.2 228.199 325.57 227.959 325.84C227.719 326.11 227.179 326.22 227.159 326.11C227.305 325.624 227.369 325.117 227.349 324.61C227.219 324.08 226.649 322.92 226.609 322.61C226.69 321.904 226.862 321.212 227.119 320.55C226.638 321.278 226.246 322.06 225.949 322.88C226.008 323.682 226.112 324.48 226.259 325.27C226.259 325.27 225.999 325.1 225.939 324.98C225.912 324.647 225.912 324.313 225.939 323.98C225.615 324.342 225.346 324.75 225.139 325.19C225.059 325.55 225.469 326.45 225.409 326.76C225.349 327.07 225.029 327.76 224.989 328.16C224.949 328.56 226.039 329.52 226.349 329.71ZM234.929 327C234.837 327.426 234.679 327.834 234.459 328.21C234.459 328.21 234.549 327.62 234.549 327.38C234.498 327.068 234.41 326.762 234.289 326.47C234.255 326.089 234.361 325.708 234.589 325.4C234.773 325.916 234.888 326.454 234.929 327ZM233.249 329.78L233.979 329.14C234.219 328.92 234.929 328.6 235.059 328.39C235.206 327.983 235.32 327.565 235.399 327.14C235.487 327.594 235.517 328.058 235.489 328.52C235.196 329.007 234.796 329.42 234.319 329.73C233.969 329.813 233.606 329.829 233.249 329.78ZM227.959 326.63C227.763 326.965 227.625 327.33 227.549 327.71C227.571 328.068 227.688 328.413 227.889 328.71C228.021 328.979 228.125 329.26 228.199 329.55C228.199 329.55 227.359 329.16 227.199 328.55C227.039 327.94 227.909 326.7 227.959 326.63Z" fill="#FFC200"/>
<path d="M233.651 317.79C233.651 317.79 234.521 317.17 234.541 316.71C234.561 316.25 234.001 315.26 234.061 314.89C234.108 314.633 234.192 314.383 234.311 314.15C234.311 314.15 233.391 314.78 233.391 315.3C233.391 315.82 233.941 316.64 233.891 316.9C233.841 317.16 233.651 317.79 233.651 317.79Z" fill="#FFC200"/>
<path d="M228.45 320.64C228.546 320.362 228.603 320.073 228.62 319.78C228.562 319.567 228.452 319.371 228.3 319.21C228.23 319.299 228.183 319.404 228.164 319.516C228.145 319.628 228.154 319.743 228.19 319.85C228.3 320.25 228.45 320.64 228.45 320.64Z" fill="#FFC200"/>
<path d="M226.299 320.53C226.553 320.128 226.723 319.679 226.799 319.21C226.806 318.675 226.682 318.147 226.439 317.67C226.279 317.483 226.086 317.327 225.869 317.21C226.015 317.43 226.123 317.674 226.189 317.93C226.189 318.15 226.029 318.84 226.009 319.11C226.069 319.59 226.166 320.065 226.299 320.53Z" fill="#FFC200"/>
<path d="M231.95 316.94C231.95 316.94 232.6 316.05 232.48 315.47C232.322 314.907 232.038 314.387 231.65 313.95C231.335 313.64 231.044 313.305 230.78 312.95C230.575 312.388 230.575 311.772 230.78 311.21C230.936 311.022 231.131 310.868 231.35 310.76C231.065 310.76 230.783 310.827 230.529 310.958C230.275 311.088 230.056 311.278 229.89 311.51C229.32 312.3 228.59 315.39 228.89 316.1C229.227 316.645 229.669 317.117 230.19 317.49C230.076 316.988 230.019 316.475 230.02 315.96C230.11 315.66 231.02 315.96 231.24 316.15C231.499 316.392 231.737 316.657 231.95 316.94Z" fill="#FFC200"/>
<path d="M233.449 321.31C233.449 321.31 233.849 320.89 233.769 320.53C233.689 320.17 233.169 319.63 233.139 319.46C233.152 319.17 233.192 318.882 233.259 318.6C233.259 318.6 232.739 319.6 232.859 319.88C232.979 320.16 233.079 320.64 233.079 320.64C233.079 320.64 232.849 320.49 232.799 320.36C232.76 320.253 232.73 320.142 232.709 320.03C232.709 320.03 232.319 320.52 232.439 320.86C232.655 321.231 232.924 321.568 233.239 321.86C233.232 321.757 233.232 321.653 233.239 321.55C233.239 321.43 233.309 321.49 233.449 321.31Z" fill="#FFC200"/>
<path d="M230.669 330.64C230.669 330.64 233.039 329.78 233.569 328.57C233.899 327.81 233.009 326.25 232.929 326.01C232.849 325.77 232.929 324.81 232.829 324.43C232.729 324.05 231.029 323.06 230.829 322.8C230.629 322.54 231.119 321.5 231.119 321.5C231.119 321.5 229.849 322.5 229.659 323.11C229.469 323.72 230.219 324.83 230.219 325.04C230.111 325.337 229.959 325.617 229.769 325.87C229.58 325.63 229.46 325.343 229.419 325.04C229.419 324.64 229.609 324.44 229.569 324.16C229.435 323.857 229.245 323.583 229.009 323.35C229.152 323.594 229.202 323.882 229.149 324.16C229.009 324.49 228.369 325.16 228.459 325.65C228.549 326.14 229.319 327.34 229.249 327.65C229.205 327.847 229.123 328.034 229.009 328.2C228.896 327.942 228.805 327.674 228.739 327.4C228.669 327.08 228.599 326.65 228.599 326.65C228.599 326.65 228.209 328.76 228.599 329.35C229.201 329.907 229.904 330.345 230.669 330.64Z" fill="white"/>
<path d="M231.299 315.97C231.44 315.68 231.535 315.37 231.579 315.05C231.579 314.74 231.029 314.32 230.769 314.05C230.367 313.681 230.1 313.188 230.009 312.65C230.009 312.25 230.119 311.95 230.119 311.95C229.76 312.919 229.512 313.925 229.379 314.95C229.402 315.379 229.564 315.79 229.839 316.12C229.839 316.12 229.989 315.44 230.319 315.46C230.685 315.539 231.024 315.715 231.299 315.97Z" fill="white"/>
<path d="M233.85 317.48C233.85 317.48 234.36 317.01 234.35 316.69C234.241 316.271 234.072 315.871 233.85 315.5C233.85 315.5 234.07 316.5 234.1 316.73C234.067 316.994 233.982 317.249 233.85 317.48Z" fill="white"/>
<path d="M227.999 329.89C227.999 329.89 226.999 329.25 226.779 329.09C226.54 328.707 226.387 328.277 226.329 327.83C226.329 327.65 226.679 326.83 226.679 326.63C226.679 326.43 226.009 325.63 226.009 325.63C226.106 325.932 226.166 326.244 226.189 326.56C226.189 326.74 225.269 327.78 225.329 328.17C225.389 328.56 226.219 329.26 226.459 329.42C226.96 329.616 227.474 329.773 227.999 329.89Z" fill="white"/>
<path d="M235.259 325.75C235.555 325.031 235.763 324.279 235.879 323.51C235.642 322.745 235.354 321.997 235.019 321.27C235.019 321.27 235.079 322.78 235.139 323.02C235.154 323.358 235.114 323.696 235.019 324.02C234.91 323.789 234.813 323.552 234.729 323.31C234.734 322.996 234.774 322.684 234.849 322.38C234.611 322.954 234.482 323.568 234.469 324.19C234.677 324.736 234.942 325.259 235.259 325.75Z" fill="white"/>
</svg>
