<svg width="172" height="179" viewBox="0 0 172 179" fill="none" xmlns="http://www.w3.org/2000/svg">
<g id="Group 18824">
<path id="layer2" d="M116.338 49.5664C120.861 78.2449 122.676 120.953 92.5345 155.465M13.1406 177.053C20.7126 169.356 29.7422 163.244 39.7021 159.075C49.662 154.906 60.3528 152.762 71.1502 152.77C107.939 152.77 134.56 177.053 134.56 177.053H13.1406Z" stroke="#191B1D" stroke-width="2" stroke-linecap="round" stroke-linejoin="round"/>
<path id="layer2_2" d="M92.0666 92.062C94.0669 89.148 112.486 56.4264 115.828 50.4861C115.887 50.3821 115.971 50.2941 116.072 50.2297C116.173 50.1653 116.288 50.1263 116.408 50.1161C116.527 50.106 116.647 50.125 116.758 50.1714C116.868 50.2179 116.966 50.2905 117.042 50.3829L152.769 92.059C152.742 77.5201 148.815 63.2546 141.398 50.7502C141.362 50.699 141.346 50.6366 141.353 50.5746C141.36 50.5126 141.389 50.4551 141.435 50.4129C141.481 50.3707 141.541 50.3465 141.603 50.3449C141.665 50.3433 141.726 50.3644 141.774 50.4042C150.894 57.1768 160.682 62.9986 170.987 67.7788C170.987 67.7788 172.049 50.9202 153.776 38.1138C153.7 38.0628 153.642 37.9894 153.61 37.9037C153.577 37.8181 153.573 37.7245 153.596 37.636C153.619 37.5475 153.67 37.4684 153.74 37.4099C153.811 37.3514 153.897 37.3163 153.989 37.3095C167.09 35.9344 170.987 31.354 170.987 31.354C170.987 31.354 154.435 17.3092 135.509 24.8886C135.42 24.929 135.322 24.9444 135.225 24.9329C135.128 24.9214 135.036 24.8836 134.959 24.8235C134.882 24.7634 134.823 24.6834 134.789 24.5921C134.754 24.5009 134.745 24.4018 134.763 24.3058C136.824 14.3345 140.633 1 140.633 1C140.633 1 123.522 8.04213 116.766 18.5325C116.649 18.7154 116.466 18.8459 116.255 18.8968C116.043 18.9478 115.821 18.9151 115.633 18.8057C98.6838 9.26236 85.9958 13.1446 85.9958 13.1446L103.383 30.5314C103.442 30.5877 103.483 30.6613 103.499 30.7418C103.515 30.8223 103.505 30.9057 103.471 30.9805C103.438 31.0554 103.381 31.1178 103.311 31.1592C103.24 31.2005 103.158 31.2188 103.076 31.2113C96.0385 30.4534 88.9339 31.7911 82.6539 35.0566C76.374 38.3221 71.1986 43.3699 67.7773 49.5664C77.4895 48.2393 87.332 48.1659 97.0629 49.3478C97.1661 49.3644 97.2629 49.4088 97.3427 49.4763C97.4226 49.5438 97.4824 49.6318 97.5159 49.7309C97.5493 49.8299 97.555 49.9362 97.5324 50.0383C97.5098 50.1404 97.4598 50.2344 97.3877 50.3101C94.6255 53.2939 85.5223 65.5478 92.0666 92.062Z" fill="#FF5B26" stroke="#191B1D" stroke-width="2" stroke-linecap="round" stroke-linejoin="round"/>
<path id="layer1" d="M25.2832 98.1476C38.6944 98.1476 49.5664 87.2757 49.5664 73.8644C49.5664 60.4532 38.6944 49.5812 25.2832 49.5812C11.872 49.5812 1 60.4532 1 73.8644C1 87.2757 11.872 98.1476 25.2832 98.1476Z" fill="#FFC200" stroke="#191B1D" stroke-width="2" stroke-linecap="round" stroke-linejoin="round"/>
</g>
</svg>
