<svg width="174" height="174" viewBox="0 0 174 174" fill="none" xmlns="http://www.w3.org/2000/svg">
<g id="Group 18825">
<g id="layer1">
<path d="M53 92.5166V172.001V92.5166Z" fill="#1EB482"/>
<path d="M53 92.5166L2 75.5449V154.746L53 172.001V92.5166Z" fill="#1EB482"/>
</g>
<path id="layer1_2" d="M87 84.0308L53 92.5166M53 92.5166L2 75.5449V154.746L53 172.001M53 92.5166V172.001M53 172.001L121 154.746L172 168.889V92.5166L121 75.5449L109.667 78.3735" stroke="#191B1D" stroke-width="3" stroke-miterlimit="10" stroke-linecap="round" stroke-linejoin="round"/>
<path id="layer2" d="M86.9987 47.2579C99.5172 47.2579 109.665 37.1266 109.665 24.629C109.665 12.1313 99.5172 2 86.9987 2C74.4802 2 64.332 12.1313 64.332 24.629C64.332 37.1266 74.4802 47.2579 86.9987 47.2579Z" fill="#05AAFF"/>
<path id="layer2_2" d="M86.9987 47.2579C99.5172 47.2579 109.665 37.1266 109.665 24.629C109.665 12.1313 99.5172 2 86.9987 2C74.4802 2 64.332 12.1313 64.332 24.629C64.332 37.1266 74.4802 47.2579 86.9987 47.2579Z" stroke="#191B1D" stroke-width="3" stroke-miterlimit="10" stroke-linecap="round" stroke-linejoin="round"/>
<path id="layer2_3" d="M87 47.2588V126.46" stroke="#191B1D" stroke-width="3" stroke-miterlimit="10" stroke-linecap="round" stroke-linejoin="round"/>
<path id="layer1_3" d="M121 75.5449V154.746" stroke="#191B1D" stroke-width="3" stroke-miterlimit="10" stroke-linecap="round" stroke-linejoin="round"/>
</g>
</svg>
