<svg width="66" height="66" viewBox="0 0 66 66" fill="none" xmlns="http://www.w3.org/2000/svg">
<path d="M15.9336 50.0665V7.39988C15.9336 5.70249 16.6079 4.07463 17.8081 2.87439C19.0083 1.67416 20.6362 0.999878 22.3336 0.999878H58.6003" stroke="#1EB482" stroke-width="2" stroke-miterlimit="10" stroke-linecap="round" stroke-linejoin="round"/>
<path d="M52.2 11.6665H65V7.39988C65 5.70249 64.3257 4.07463 63.1255 2.87439C61.9253 1.67416 60.2974 0.999878 58.6 0.999878C56.9026 0.999878 55.2748 1.67416 54.0745 2.87439C52.8743 4.07463 52.2 5.70249 52.2 7.39988V54.3332C52.2 57.1622 51.0762 59.8753 49.0758 61.8757C47.0754 63.8761 44.3623 64.9999 41.5333 64.9999M41.5333 64.9999C38.7044 64.9999 35.9913 63.8761 33.9909 61.8757C31.9905 59.8753 30.8667 57.1622 30.8667 54.3332V50.0665H1V54.3332C1 57.1622 2.12381 59.8753 4.12419 61.8757C5.11469 62.8662 6.29057 63.6519 7.58471 64.1879C8.87885 64.724 10.2659 64.9999 11.6667 64.9999H41.5333Z" stroke="#1EB482" stroke-width="2" stroke-miterlimit="10" stroke-linecap="round" stroke-linejoin="round"/>
<path d="M24.4648 11.6659H41.5315M24.4648 28.7326H41.5315M24.4648 20.1992H37.2648M24.4648 37.2659H37.2648" stroke="#1EB482" stroke-width="2" stroke-miterlimit="10" stroke-linecap="round" stroke-linejoin="round"/>
</svg>
