<svg width="33" height="24" viewBox="0 0 33 24" fill="none" xmlns="http://www.w3.org/2000/svg">
<path d="M21.5172 12.5455C21.5172 12.3864 21.4668 12.2557 21.3659 12.1534L15.4487 6.15341C15.3478 6.05114 15.219 6 15.0621 6C14.9052 6 14.7763 6.05114 14.6754 6.15341L8.775 12.1364C8.66293 12.2727 8.6069 12.4091 8.6069 12.5455C8.6069 12.7045 8.65733 12.8352 8.75819 12.9375C8.85905 13.0398 8.98793 13.0909 9.14483 13.0909H12.9103V19.0909C12.9103 19.2386 12.9636 19.3665 13.07 19.4744C13.1765 19.5824 13.3026 19.6364 13.4483 19.6364H16.6759C16.8216 19.6364 16.9476 19.5824 17.0541 19.4744C17.1606 19.3665 17.2138 19.2386 17.2138 19.0909V13.0909H20.9793C21.125 13.0909 21.2511 13.0369 21.3575 12.929C21.464 12.821 21.5172 12.6932 21.5172 12.5455ZM32.2759 17.4545C32.2759 19.2614 31.6455 20.804 30.3847 22.0824C29.1239 23.3608 27.6026 24 25.8207 24H7.53104C5.45776 24 3.68427 23.2528 2.21056 21.7585C0.736854 20.2642 0 18.4659 0 16.3636C0 14.8864 0.392241 13.5227 1.17672 12.2727C1.96121 11.0227 3.01466 10.0852 4.33707 9.46023C4.31466 9.11932 4.30345 8.875 4.30345 8.72727C4.30345 6.31818 5.14397 4.26136 6.825 2.55682C8.50603 0.852273 10.5345 0 12.9103 0C14.6586 0 16.2584 0.494318 17.7097 1.48295C19.161 2.47159 20.2172 3.78409 20.8785 5.42045C21.6741 4.71591 22.6043 4.36364 23.669 4.36364C24.8569 4.36364 25.8711 4.78977 26.7116 5.64205C27.5522 6.49432 27.9724 7.52273 27.9724 8.72727C27.9724 9.59091 27.7427 10.375 27.2832 11.0795C28.7401 11.4318 29.9364 12.2017 30.8722 13.3892C31.808 14.5767 32.2759 15.9318 32.2759 17.4545Z" fill="#1EB482"/>
</svg>
