<svg width="1440" height="723" viewBox="0 0 1440 723" fill="none" xmlns="http://www.w3.org/2000/svg">
<g opacity="0.51">
<path d="M709.965 139.862C710.776 141.78 711.011 143.893 710.642 145.942C710.273 147.992 709.316 149.89 707.888 151.406C707.703 152.167 707.7 152.961 707.881 153.724C708.061 154.486 708.42 155.195 708.927 155.792C710.665 157.516 712.951 158.577 715.389 158.794C718.851 158.794 722.89 155.446 724.852 160.872C731.891 160.872 736.969 153.484 744.586 157.178C746.432 158.101 750.125 155.1 753.241 153.83C753.01 151.604 753.01 149.36 753.241 147.134C754.972 137.784 756.588 137.322 764.089 143.209C766.974 140.67 768.128 138.361 764.089 135.013C760.05 131.665 761.896 130.049 765.82 128.895C769.743 127.74 771.59 128.086 774.475 127.856L786.015 126.932V125.316C784.01 124.595 781.911 124.167 779.783 124.046C775.726 125.339 771.552 126.228 767.32 126.701C762.586 126.34 758.002 124.878 753.933 122.43C751.856 121.045 754.626 109.385 757.049 107.653C761.319 104.19 765.704 100.727 771.59 96.1091C768.589 95.0701 765.935 93.223 763.858 93.8002C760.256 94.8714 756.915 96.6798 754.049 99.1106C751.625 101.189 750.125 104.075 747.817 106.383C745.509 108.692 741.932 109.962 739.739 112.386C735.469 116.889 736.046 120.121 740.893 123.931C741.484 124.202 742.014 124.59 742.452 125.071C742.89 125.552 743.227 126.117 743.442 126.731C743.658 127.345 743.747 127.996 743.706 128.645C743.664 129.295 743.493 129.929 743.201 130.511C742.599 131.695 741.567 132.604 740.316 133.05C738.678 133.815 737.283 135.017 736.285 136.525C735.288 138.032 734.726 139.786 734.661 141.593C734.661 145.172 734.661 150.367 727.853 148.981C720.005 159.256 720.236 148.981 718.043 145.172C717.729 144.369 717.343 143.596 716.889 142.863C714.697 139.284 713.081 134.089 709.85 132.704C706.618 131.319 703.272 135.936 699.694 137.553C697.731 138.249 695.576 138.171 693.668 137.334C691.761 136.498 690.243 134.966 689.424 133.05C687.889 129.354 686.842 125.473 686.308 121.506C686.248 120.142 686.474 118.78 686.971 117.508C687.468 116.235 688.224 115.081 689.193 114.118C693.83 109.822 699.4 106.661 705.465 104.883C710.078 102.587 714.045 99.1741 717.005 94.9547C721.852 89.529 726.352 83.4106 730.391 78.4466L721.39 80.6399C723.479 78.6832 725.76 76.9428 728.199 75.4451C730.782 74.5569 733.451 73.9379 736.161 73.5979C738.816 72.0972 743.201 67.0178 746.548 67.7105C752.549 68.8649 756.934 64.3626 762.588 65.7479C765.243 66.3251 768.705 63.2083 773.09 61.1303L770.782 65.9788C773.171 64.7585 775.744 63.9395 778.398 63.5546C782.773 64.1338 787.096 65.0602 791.324 66.3251L789.823 68.6339C799.056 70.8273 808.403 72.5591 817.404 75.2142C822.531 76.8237 827.48 78.9511 832.176 81.5634C836.1 83.526 836.33 86.412 832.176 88.4899C824.446 91.4373 815.902 91.4373 808.172 88.4899C805.751 87.5469 803.132 87.2294 800.556 87.5665L807.826 91.376C807.826 100.034 813.134 104.536 821.674 101.997L815.904 98.3025V96.9172L830.676 99.226L828.021 93.8002C830.906 92.4149 833.907 91.1451 836.907 89.9907C840.179 89.2952 843.495 88.8323 846.832 88.6054C845.74 87.1208 844.956 85.4332 844.524 83.6414C844.237 80.994 844.237 78.3233 844.524 75.6759L856.064 78.1003V80.2936L850.64 82.2561C854.795 88.6054 856.41 88.0282 862.18 83.7569C867.023 80.642 872.263 78.1955 877.76 76.484C879.758 75.8843 881.804 75.4594 883.876 75.2142C888.261 82.2561 894.724 75.2142 900.494 75.2142C903.033 75.2142 905.918 71.52 908.11 76.2531C910.415 75.6826 912.688 74.989 914.919 74.1752L903.379 65.6325C911.423 66.6655 919.399 68.1688 927.267 70.1347C933.527 73.3724 940.338 75.4084 947.347 76.1377C944.873 74.8067 942.811 72.8219 941.387 70.3996C939.962 67.9772 939.23 65.2103 939.269 62.4002C941.584 59.0106 944.296 55.9101 947.347 53.1648C950.427 51.6364 953.834 50.8834 957.272 50.9714C959.839 51.2038 962.363 51.7864 964.773 52.703L961.08 58.0133L963.85 76.7149L966.504 77.523L954.964 89.0672C956.938 89.5687 959.003 89.6046 960.994 89.1719C962.985 88.7392 964.848 87.8499 966.437 86.5739C968.026 85.298 969.297 83.6702 970.149 81.8191C971.002 79.968 971.413 77.9441 971.351 75.9068C975.159 75.9068 980.006 74.0598 980.352 80.8708C984.737 77.0612 983.699 73.7134 978.39 73.3671H967.658C967.658 68.8649 966.735 64.3627 966.273 59.0524L973.889 54.0884V60.6685L980.583 61.7075L975.62 57.4362L983.699 58.4751V57.0898L979.775 54.4347V53.0493C984.737 54.5501 989.584 56.1663 994.893 57.667C996.87 58.1348 998.874 58.4818 1000.89 58.706C1000.95 58.1687 1000.95 57.6272 1000.89 57.0898C999.162 56.1662 997.316 55.4736 994.662 54.3192L992.931 48.5471L1018.78 46.3538L1014.97 42.1979C1026.83 36.5512 1039.96 34.1227 1053.06 35.1559C1057.7 35.0387 1062.31 34.3407 1066.79 33.078C1066.79 33.078 1067.48 33.0779 1067.83 32.5007C1072.07 32.0605 1076.08 30.3734 1079.37 27.6522C1084.33 24.189 1089.98 20.0331 1095.29 27.6522C1096.33 29.153 1099.56 29.0375 1101.64 29.7302C1108.59 29.153 1115.58 29.153 1122.53 29.7302C1125.07 29.7302 1126.91 34.5787 1129.22 37.3493L1100.14 47.739V48.8934C1101.99 48.8934 1103.95 48.8934 1105.91 48.8934C1107.87 48.8934 1110.87 48.8934 1112.26 48.8934C1118.83 43.9294 1125.53 46.9309 1132.22 47.739C1134.88 47.739 1137.88 46.1229 1140.41 46.5846C1143.59 47.3731 1146.57 48.786 1149.19 50.7405C1151.96 52.4175 1155.25 53.0037 1158.43 52.3849C1161.61 51.7661 1164.44 49.9866 1166.38 47.3927C1167.08 46.8678 1167.89 46.4943 1168.74 46.2956C1169.59 46.0969 1170.48 46.0774 1171.34 46.2383L1190.96 49.3552C1190.15 56.8589 1190.96 63.2082 1200.31 63.4391L1202.96 59.0524H1234.01L1230.77 53.7421C1238.36 52.1448 1246.14 51.7166 1253.85 52.4722C1260.66 54.3193 1269.43 52.4721 1276.94 58.4751C1283.24 61.5216 1290.28 62.7222 1297.25 61.9384C1304.17 61.9384 1311.44 60.6685 1316.4 68.1723C1317.56 69.7884 1321.83 69.5576 1324.6 69.7884C1328.98 70.0193 1333.37 70.0193 1337.75 69.7884C1340.94 69.4355 1344.11 68.8568 1347.22 68.0568C1349.21 67.9413 1351.22 67.9413 1353.22 68.0568L1354.49 70.1347L1350.56 71.2891V72.559L1361.18 75.7914L1360.14 67.595C1371.45 67.9487 1382.68 69.6145 1393.61 72.559C1403.76 76.484 1415.42 77.523 1421.53 88.2591C1424.88 83.526 1427.88 83.9878 1440 91.6069C1436.07 94.8393 1429.61 95.0702 1428.46 101.189L1415.88 97.2635C1413.69 96.5709 1411.61 95.6473 1409.42 94.8393C1407.76 94.3457 1406.14 93.7282 1404.57 92.9921C1403.57 92.1309 1402.71 91.1181 1402.03 89.9907C1401.58 91.2779 1401.19 92.588 1400.88 93.9157C1400.88 95.1856 1400.88 95.0701 1400.88 95.8782L1389.34 99.9187C1391.41 101.215 1393.08 103.075 1394.14 105.282C1395.21 107.489 1395.62 109.953 1395.34 112.386C1379.64 109.5 1369.14 118.389 1357.72 125.778C1356.16 123.856 1353.9 122.623 1351.44 122.342C1348.99 122.062 1346.51 122.756 1344.56 124.277C1342.91 125.066 1341.06 125.348 1339.25 125.085C1330.71 124.392 1329.44 132.358 1323.9 136.629L1329.21 137.668C1329.21 141.131 1330.02 144.133 1330.48 147.481C1324.71 147.481 1322.87 150.598 1326.21 155.792C1323.21 158.909 1314.67 156.485 1317.9 164.912C1308.32 163.527 1311.56 175.533 1303.94 177.495C1301.63 164.104 1294.13 151.059 1303.94 139.4C1316.31 132.633 1327.06 123.258 1335.44 111.925L1334.41 110.308C1333.02 110.308 1330.6 111.232 1330.6 111.578C1330.6 116.08 1327.48 116.542 1324.48 117.812C1321.48 119.082 1317.56 125.778 1315.83 116.311C1311.95 115.873 1308.02 116.227 1304.29 117.35C1301.23 118.87 1298.64 121.182 1296.78 124.046C1295.75 125.2 1296.09 127.509 1295.63 130.28L1280.86 132.242L1283.74 127.856C1276.89 129.06 1269.92 129.448 1262.97 129.01C1248.2 125.893 1239.89 135.359 1230.89 143.094L1217.96 154.638C1219.79 156.948 1221.84 159.075 1224.08 160.987C1225.76 161.568 1227.59 161.568 1229.27 160.987C1231.47 160.987 1234.24 157.87 1235.27 158.563C1236.31 159.256 1241.16 163.181 1240.81 165.028C1238.51 175.071 1240.12 186.269 1233.77 195.389C1227.43 204.509 1222.23 212.128 1216.58 220.324C1215.85 221.371 1214.93 222.264 1213.85 222.953C1212.78 223.641 1211.59 224.111 1210.33 224.336C1209.08 224.561 1207.79 224.537 1206.55 224.265C1205.3 223.992 1204.12 223.477 1203.08 222.749C1200.19 227.02 1194.42 228.521 1193.96 235.563C1193.96 238.449 1188.19 240.988 1187.27 243.759C1189.69 249.677 1191.77 255.728 1193.5 261.883C1195.58 271.696 1186.34 271.119 1180.11 274.928C1180.11 268.694 1181.27 263.384 1181.38 257.381C1181.38 255.996 1179.77 253.11 1179.07 253.225C1171.34 254.033 1175.27 249.531 1175.84 246.53C1176.18 245.662 1176.56 244.814 1177 243.99C1175.01 242.455 1172.5 241.754 1170 242.034C1167.5 242.314 1165.21 243.554 1163.61 245.491L1162.57 246.991L1160.73 245.721L1163.49 235.909C1157.61 234.639 1155.88 240.527 1151.95 242.951C1151.03 243.644 1150.45 244.913 1149.42 245.491C1148.2 246.032 1146.92 246.42 1145.61 246.645L1148.38 251.032C1149.3 252.302 1150.69 254.38 1151.03 254.726H1167.07L1152.53 267.194C1156.34 276.544 1159.46 284.048 1162.69 291.783L1157.72 296.17L1164.88 297.324C1161.76 303.442 1158.65 309.676 1155.42 315.795C1153.44 320.643 1150.93 325.251 1147.92 329.532C1143.99 334.034 1141.22 339.922 1133.61 341.076C1128.6 342.122 1123.83 344.078 1119.53 346.848C1117.45 348.003 1116.06 350.543 1113.76 352.967L1112.95 347.079C1109.51 346.661 1106.03 347.507 1103.16 349.46C1100.3 351.414 1098.24 354.342 1097.37 357.7C1095.29 367.628 1103.14 373.4 1108.91 379.287L1117.68 377.094L1118.72 378.595C1116.97 380.683 1115.35 382.881 1113.87 385.175C1112.84 386.302 1112.16 387.706 1111.91 389.215C1112.49 398.22 1113.18 406.532 1102.33 411.034C1099.33 412.188 1097.95 417.499 1094.48 420.5V413.92L1076.37 392.679C1075.55 393.606 1074.89 394.658 1074.4 395.796C1074.22 398.331 1073.79 400.843 1073.14 403.299C1068.75 412.304 1074.75 419.923 1076.37 427.888C1077.06 431.236 1082.25 433.314 1084.21 436.662C1086.09 440.295 1087.41 444.185 1088.14 448.206C1089.48 453.016 1090.14 457.99 1090.1 462.983C1086.22 460.23 1082.76 456.924 1079.83 453.17C1077.98 448.651 1076.7 443.92 1076.02 439.086C1075.59 436.159 1074.53 433.361 1072.9 430.89C1070.3 427.719 1068.53 423.942 1067.76 419.907C1066.99 415.872 1067.25 411.709 1068.52 407.802C1070.6 395.103 1064.71 383.905 1062.98 371.207C1058.71 374.785 1057.56 381.019 1050.52 377.325C1054.9 367.512 1049.25 359.778 1043.71 351.812C1042.07 348.62 1040.94 345.193 1040.36 341.653C1035.4 342.692 1030.55 343.501 1026.05 344.655C1024.32 344.655 1021.78 346.271 1021.55 347.426C1019.82 356.776 1010.82 360.471 1006.32 367.512C1003.32 372.13 998.355 375.478 994.777 379.98C993.495 382.878 993.055 386.079 993.508 389.215C994.269 401.816 990.135 414.224 981.968 423.848C976.312 410.878 971.944 397.383 968.927 383.559C965.465 369.937 963.619 355.853 961.311 343.847L956.464 349.85L946.655 341.538L950.809 339.922C945.847 334.496 941.231 328.378 936.038 323.298C928.075 323.298 919.189 323.298 910.303 323.298C901.417 323.298 900.955 321.798 897.955 314.178C896.057 315.173 893.979 315.781 891.844 315.965C889.709 316.149 887.558 315.906 885.518 315.251C883.477 314.596 881.587 313.541 879.958 312.148C878.329 310.754 876.993 309.051 876.029 307.136C875.652 306.436 875.343 305.702 875.105 304.943C875.105 303.789 874.182 302.634 873.605 301.48C869.451 293.514 868.181 293.283 862.065 299.864L873.028 322.952L875.452 316.949C876.259 320.297 876.606 321.913 876.836 323.183C877.067 324.453 877.644 327.685 877.99 329.994C881.683 329.301 886.069 332.649 888.838 327.108C890.954 323.793 893.347 320.665 895.993 317.757C895.992 320.598 896.341 323.429 897.032 326.184C897.642 328.38 899.093 330.247 901.071 331.379C910.88 336.343 912.611 342.923 904.994 351.12C903.743 352.631 902.695 354.3 901.879 356.084C900.955 357.584 900.148 359.316 898.994 360.932C894.995 365.79 889.996 369.727 884.338 372.476C878.106 376.171 872.797 381.596 866.912 385.521C861.137 389.054 855.165 392.253 849.025 395.103C845.678 396.835 844.062 395.103 843.37 391.755C843.011 381.057 840.291 370.571 835.407 361.048C833.092 358.015 831.008 354.812 829.175 351.466C827.948 348.415 826.907 345.293 826.06 342.115C824.444 337.844 822.713 333.688 821.097 329.532C819.482 325.376 816.481 319.258 814.058 314.178C812.557 311.177 810.711 308.291 809.442 306.098L800.094 308.868L799.517 307.021L804.479 303.327L794.67 293.168C795.824 292.36 798.132 289.82 800.556 289.705C806.787 289.705 808.634 285.895 809.788 280.931L815.443 255.88L804.941 260.844C804.941 260.844 804.941 260.844 804.249 260.844C800.094 259.805 793.978 256.573 792.131 258.189C786.361 263.269 783.476 257.381 780.591 255.88C777.706 254.38 776.437 250.224 774.59 247.453L775.398 235.909C771.244 233.485 771.359 233.6 766.512 237.987C765.473 238.91 762.819 237.987 760.05 237.987C761.909 240.567 763.531 243.311 764.896 246.183C765.813 248.003 766.058 250.088 765.589 252.071C764.207 255.178 762.547 258.153 760.627 260.96C756.241 251.147 747.355 243.297 747.24 230.714C747.24 227.943 743.316 224.48 740.316 222.633C735.469 219.747 730.276 217.785 728.776 211.089C728.776 211.089 726.468 211.089 725.775 209.819C724.88 208.587 724.18 207.224 723.698 205.779C717.466 207.395 716.543 210.396 721.044 215.938C723.006 218.131 724.044 220.902 726.006 223.326C727.078 224.913 728.552 226.187 730.276 227.02C736.161 228.29 738.931 233.716 743.432 236.833C743.432 236.833 743.432 237.987 744.009 239.257L736.277 235.909L738.469 243.759L733.507 250.224C736.392 239.372 728.66 235.794 721.967 230.83C718.046 227.42 714.558 223.543 711.581 219.285C709.619 217.092 707.888 214.783 706.157 212.474C703.582 213.954 701.114 215.613 698.771 217.438C697.589 218.818 695.965 219.745 694.176 220.061C692.388 220.376 690.545 220.062 688.962 219.17C685.269 217.669 681.23 217.323 681.576 224.018C681.576 226.212 678.691 228.636 676.96 230.714C674.01 233.584 671.235 236.629 668.651 239.834C667.728 241.104 668.651 243.644 668.651 247.107C665.42 256.111 655.38 257.612 645.571 260.036L641.532 254.726L634.723 255.534C627.914 243.99 637.377 232.446 631.723 220.902C641.532 214.783 652.149 219.632 662.535 218.824C663.227 213.051 667.497 207.279 662.535 201.392C658.419 197.412 654.565 193.17 650.995 188.693H663.343L662.65 182.921C665.101 184.071 667.906 184.207 670.456 183.299C673.006 182.391 675.095 180.513 676.268 178.073C676.268 178.073 678.691 176.11 679.845 174.956L690.693 164.22L704.657 158.563C704.771 156.602 704.771 154.636 704.657 152.676C700.618 144.941 700.502 145.056 709.965 139.862Z" fill="#191B1D"/>
<path d="M166.64 218.939H173.911C171.292 213.58 166.702 209.443 161.101 207.395C152.684 203.122 146.296 195.695 143.329 186.731C142.406 184.538 138.944 183.383 136.982 181.883L135.366 186.385C132.828 180.613 125.557 178.304 131.212 171.377C131.212 171.377 127.519 165.49 126.25 165.721C123.509 165.937 120.753 165.61 118.139 164.758C115.525 163.906 113.104 162.546 111.017 160.757C107.895 159.247 104.601 158.123 101.208 157.409L77.4348 153.138L78.2425 156.716L61.7401 160.988L63.0096 152.329L53.2003 160.41C55.0468 164.22 39.352 177.496 29.5429 180.151L32.8896 183.268V185.23C25.2731 178.535 19.0413 185.23 11.6555 185.23L22.1572 179.689C26.1602 178.004 30.0197 175.997 33.6974 173.686C36.9126 170.722 39.813 167.434 42.3525 163.874H23.4266L22.0418 156.139C11.771 163.527 12.2326 151.29 7.38572 149.213C10.04 138.823 19.6183 140.208 27.004 137.668L25.7346 132.012C14.1944 133.051 12.1172 136.399 0 127.048C2.65425 126.24 4.96234 125.547 7.27038 124.623C9.57842 123.7 11.7711 122.315 13.9637 121.276C18.0028 126.124 21.2339 126.471 27.004 122.43L2.88505 112.848C6.46251 111.463 8.65524 110.77 10.7325 109.731C12.8097 108.693 16.0409 106.73 18.9259 105.691C24.3498 103.382 29.7737 101.304 35.313 99.4572C44.3273 97.3575 53.7434 97.7566 62.5479 100.612C69.7654 101.863 77.047 102.711 84.3588 103.151C95.6286 103.813 106.763 105.948 117.479 109.501C119.942 110.08 122.453 110.428 124.98 110.54C124.98 101.881 131.558 108.808 134.559 106.384C138.381 104.363 142.73 103.557 147.022 104.075L133.52 109.501L134.443 111.348L154.177 102.228L161.101 108.346L165.948 104.421L168.602 108.808C171.718 103.498 176.103 105.229 180.72 106.384C185.336 107.538 193.298 108.693 199.645 109.847C201.723 109.847 203.569 111.001 206.454 111.809L202.415 114.926V116.542C207.386 115.852 212.399 115.505 217.417 115.504C221.85 116.304 226.212 117.462 230.458 118.967L229.765 114.003C234.728 114.003 238.998 114.003 243.267 114.003C251.461 114.003 259.424 118.159 267.848 112.964C269.579 112.04 273.734 115.273 277.773 116.889L285.043 111.001L274.08 102.69C273.156 98.4182 275.234 94.8395 280.888 94.3777C286.543 93.916 291.275 101.073 290.698 105.922L297.737 107.076L296.929 114.234L303.046 107.076L309.508 120.814L320.01 106.153L331.55 108.115V118.967L332.935 120.698L322.318 123.007L325.78 128.433L314.24 121.737C315.624 127.625 312.739 128.779 309.047 128.433C305.535 127.538 301.936 127.034 298.314 126.932L312.739 131.204L302.122 136.052C300.553 136.728 299.109 137.664 297.852 138.823C292.429 145.634 281.465 148.174 282.042 159.371C282.098 160.342 282.364 161.289 282.823 162.146C283.281 163.003 283.921 163.75 284.697 164.335C290.121 165.605 290.467 169.299 290.121 174.148C297.16 170.338 301.661 174.148 308.123 177.38C315.056 180.57 322.187 183.308 329.473 185.577C329.473 190.079 329.473 197.121 335.704 201.161C336.974 201.969 339.282 203.586 339.628 203.239C339.974 202.893 343.667 199.43 343.667 197.583C343.121 193.654 342.193 189.787 340.897 186.038C344.59 182.806 350.707 180.151 351.399 176.226C352.091 172.301 347.937 167.452 345.514 162.373C351.514 158.102 345.514 151.521 346.206 144.941C357.671 143.331 369.31 146.273 378.634 153.138C378.134 154.172 377.848 155.297 377.793 156.445C377.738 157.593 377.915 158.74 378.314 159.818C378.713 160.896 379.325 161.882 380.113 162.718C380.902 163.554 381.851 164.222 382.904 164.682C383.591 165.033 384.332 165.267 385.096 165.374C392.944 167.337 393.751 159.256 396.637 154.638C399.983 159.602 403.561 163.643 406.446 168.26C408.061 171.031 407.369 175.649 409.446 177.611C413.776 180.9 418.413 183.76 423.295 186.154L419.602 188.578C422.467 188.804 425.276 189.506 427.911 190.656C428.853 191.329 429.647 192.188 430.243 193.181C430.838 194.174 431.223 195.28 431.373 196.428C431.218 197.392 430.846 198.308 430.287 199.108C429.727 199.908 428.994 200.57 428.141 201.046C419.285 207.303 408.46 210.134 397.675 209.011C389.943 207.28 384.75 214.206 379.442 219.286C382.562 217.772 385.759 216.423 389.02 215.245C391.513 214.653 394.083 214.458 396.637 214.668C397.214 214.668 398.252 218.016 397.906 218.478C392.944 222.98 394.675 226.674 399.291 230.022C403.907 233.369 407.369 233.947 411.524 227.944C411.734 227.506 412.061 227.135 412.468 226.871C412.875 226.606 413.346 226.458 413.832 226.443L412.331 231.753L415.101 230.137L416.14 231.869L393.751 243.413H392.136L396.752 233.6C389.482 236.794 382.428 240.457 375.633 244.567C373.902 245.722 374.71 250.57 374.364 253.687L376.211 254.611C374.123 255.194 372.004 255.657 369.863 255.996C364.439 255.996 361.324 257.497 360.631 263.962C360.631 267.54 357.054 270.888 354.63 275.506L352.207 266.155C351.821 269.993 351.821 273.861 352.207 277.699C354.746 289.243 354.169 290.744 344.359 296.285C338.589 299.633 331.781 309.792 332.819 314.179C333.858 318.565 336.397 325.723 337.782 332.188C337.993 335.508 337.799 338.842 337.205 342.116H334.089L324.28 316.372L318.74 318.796C313.893 310.485 307.2 315.795 300.738 315.449L303.392 321.451C297.737 320.297 293.236 319.604 288.62 318.45C284.004 317.296 282.735 317.411 280.658 320.99C279.619 322.721 277.311 323.645 275.695 325.03C274.08 326.415 272.002 327.801 271.887 329.301C271.887 340.153 271.887 351.005 271.887 361.856C272.231 365.435 273.593 368.84 275.811 371.669C278.003 374.324 281.927 377.787 284.581 377.441C289.428 376.517 296.122 377.441 297.737 369.706C299.353 361.971 302.122 359.778 311.816 361.279L305.008 390.832C308.158 391.065 311.32 391.065 314.47 390.832C322.779 389.793 326.011 393.487 324.972 401.568C323.933 409.649 321.856 422.001 333.396 428.12C342.744 423.502 342.629 423.617 350.245 431.467C352.315 433.13 354.559 434.562 356.938 435.739C359.131 422.694 370.094 419.346 380.019 413.458C379.211 418.884 375.98 423.848 379.211 428.928L384.173 415.883L397.906 422.463C402.555 423.979 407.566 423.979 412.216 422.463C416.832 421.539 419.255 426.503 422.602 428.812C423.757 429.814 424.801 430.936 425.718 432.16C427.627 434.474 429.752 436.6 432.065 438.509C434.921 440.947 438.327 442.651 441.99 443.473C454.107 444.166 459.992 447.398 462.877 459.173C463.961 463.95 466.536 468.258 470.228 471.474C473.921 474.691 478.54 476.65 483.419 477.067C487.689 478.106 489.651 479.376 488.843 483.416C498.652 483.416 508.577 481.454 515.616 490.92C516.309 491.728 517.347 492.767 518.155 492.767C519.6 492.825 521.02 493.173 522.329 493.788C523.638 494.403 524.811 495.275 525.779 496.35C526.747 497.426 527.49 498.684 527.964 500.051C528.438 501.419 528.635 502.867 528.541 504.311V505.119C528.541 509.968 523.925 515.278 520.925 519.78C517.924 524.282 514.578 527.746 511.462 531.324C511.287 532.162 511.287 533.027 511.462 533.864C510.975 541.601 510.089 549.307 508.807 556.952C507.013 562.475 504.532 567.75 501.422 572.653C500.524 573.804 499.263 574.618 497.844 574.961C491.843 577.27 485.496 579.002 479.726 581.772C477.388 582.85 475.425 584.601 474.089 586.802C472.753 589.003 472.104 591.553 472.225 594.125C470.95 599.787 468.768 605.206 465.762 610.171C464.955 612.134 463.916 613.981 462.531 616.751L461.493 610.517C455.145 623.101 449.952 637.069 432.296 625.294C434.489 629.334 436.219 631.99 437.604 634.76C438.626 636.51 438.92 638.591 438.423 640.555C437.927 642.52 436.68 644.211 434.95 645.265C434.068 645.712 433.139 646.061 432.18 646.304C427.564 647.574 422.602 648.151 417.64 649.075C417.64 658.079 416.255 659.696 406.1 656.579C411.062 668.123 404.715 675.165 395.367 680.475C396.651 681.859 398.083 683.097 399.637 684.169C404.599 686.94 404.599 687.748 399.637 691.673C394.675 695.598 391.905 697.445 391.213 701.024C390.637 705.731 391.785 710.488 394.444 714.415C396.406 717.416 401.022 718.686 405.176 721.226C398.757 722.758 392.142 723.303 385.558 722.842C378.865 721 372.801 717.368 368.017 712.337C365.322 707.999 363.847 703.013 363.747 697.907C362.824 692.827 362.131 687.632 368.594 684.862H363.747L369.286 670.778H370.556L371.594 676.55H372.402L374.941 661.773C368.94 661.081 368.94 657.502 371.017 653.231C371.017 652.423 372.518 651.499 372.287 651.153C368.132 641.918 376.441 635.568 377.595 628.065C378.749 620.561 379.211 612.711 380.25 604.976C381.634 595.164 383.365 585.351 384.52 575.192C385.559 569.506 385.559 563.678 384.52 557.991C383.828 555.814 382.677 553.811 381.144 552.118C379.611 550.425 377.731 549.082 375.633 548.179C362.939 543.677 359.477 532.132 354.515 522.089C351.73 513.634 347.342 505.794 341.59 499.001C340.272 497.662 339.533 495.858 339.533 493.979C339.533 492.1 340.272 490.296 341.59 488.957C343.047 487.484 344.29 485.813 345.283 483.993C340.667 482.493 339.397 479.376 341.59 475.451C344.437 470.121 347.758 465.06 351.515 460.328C352.819 459.162 353.841 457.716 354.504 456.097C355.167 454.479 355.454 452.731 355.343 450.985C355.232 449.239 354.725 447.542 353.862 446.02C352.999 444.499 351.802 443.194 350.36 442.203C348.056 439.488 346.222 436.405 344.937 433.084L342.513 428.466H340.551L336.974 437.586L333.396 434.931C332.246 433.92 330.915 433.137 329.473 432.622C326.703 431.929 323.933 431.929 324.049 428.004C317.586 426.273 317.009 420.5 314.817 415.536C313.667 412.798 311.851 410.392 309.532 408.536C307.214 406.681 304.468 405.436 301.545 404.916C296.149 403.342 291.512 399.853 288.505 395.103C285.735 391.871 283.081 389.677 278.696 392.91C277.68 393.369 276.579 393.606 275.464 393.606C274.35 393.606 273.249 393.369 272.233 392.91C262.77 387.484 253.423 381.366 244.421 375.824C243.416 375.066 242.593 374.091 242.014 372.972C241.435 371.854 241.114 370.619 241.075 369.36C241.597 366.313 241.433 363.187 240.594 360.211C239.756 357.236 238.264 354.485 236.228 352.159C231.612 345.579 226.419 339.229 222.38 332.534C218.341 325.838 216.033 320.182 212.455 314.294C211.186 312.216 208.416 311.062 206.223 309.33L204.377 310.715C206.339 314.871 208.416 319.027 210.493 323.299L222.033 345.002C222.841 346.618 223.88 348.003 224.572 349.619C225.265 351.235 226.073 353.66 226.88 355.738L224.226 356.892C221.719 351.029 218.788 345.358 215.455 339.922C213.032 337.117 210.191 334.703 207.031 332.765C207.031 328.955 208.301 325.954 207.031 325.146C201.79 318.572 197.871 311.045 195.491 302.981C194.568 301.249 193.068 298.825 191.337 298.363C181.527 295.939 179.796 286.819 175.988 279.777C173.929 276.851 172.261 273.669 171.026 270.311C168.572 261.882 167.942 253.027 169.179 244.336C169.107 235.811 168.257 227.31 166.64 218.939Z" fill="#191B1D"/>
<path d="M747.791 627.949C745.657 626.951 743.905 625.284 742.802 623.201C741.698 621.118 741.303 618.733 741.675 616.405C741.434 610.948 739.123 605.787 735.213 601.975C729.802 595.745 726.92 587.714 727.134 579.464C726.244 571.588 723.343 564.074 718.71 557.645C716.324 552.834 715.3 547.462 715.748 542.111C716.195 536.759 718.097 531.632 721.249 527.284C723.326 523.013 725.173 520.011 722.057 515.74C721.348 514.645 721.024 513.345 721.133 512.046C721.486 507.304 720.858 502.54 719.289 498.052C717.721 493.563 715.245 489.446 712.017 485.956C708.748 482.703 706.529 478.545 705.644 474.018C704.76 469.492 705.251 464.804 707.054 460.559C707.656 457.372 707.038 454.076 705.323 451.324C704.472 450.428 703.424 449.742 702.262 449.321C701.101 448.901 699.857 448.756 698.63 448.899C693.783 448.899 690.667 448.899 688.821 443.935C686.974 438.971 680.974 440.241 676.704 441.165C672.434 442.088 668.279 444.282 664.009 445.667C662.001 446.152 659.955 446.461 657.893 446.59C652.468 446.607 647.058 447.149 641.737 448.207C640.123 448.889 638.352 449.111 636.62 448.846C634.888 448.581 633.263 447.84 631.928 446.706C626.72 442.899 621.784 438.733 617.156 434.238C612.929 429.093 609.072 423.653 605.616 417.961C604.808 416.922 603.308 416.229 602.385 415.075C601.462 413.92 599.961 412.42 599.961 411.034C599.113 404.414 599.663 397.688 601.577 391.294C603.48 386.472 603.48 381.108 601.577 376.286C597.423 369.937 601.577 366.128 603.77 361.625C606.886 355.276 610.578 349.273 614.271 343.27C615.212 341.936 616.607 340.992 618.195 340.615C624.427 338.652 628.696 335.651 628.581 328.032C628.622 325.627 629.322 323.279 630.604 321.244C631.886 319.208 633.701 317.563 635.851 316.488C639.608 313.519 642.913 310.019 645.66 306.098C652.7 311.755 660.432 308.984 668.048 306.098C672.938 304.12 678.055 302.762 683.282 302.057C690.635 301.155 698.031 300.654 705.439 300.557C708.317 300.657 711.177 301.044 713.978 301.711C712.478 306.098 710.978 310.254 709.362 315.218C712.824 321.682 720.903 318.335 727.25 320.99C727.942 320.99 729.442 320.99 729.442 320.99C730.943 328.493 738.559 326.646 742.944 329.879C747.33 333.111 748.715 330.572 749.061 326.3C749.12 324.401 749.908 322.597 751.262 321.264C752.616 319.931 754.431 319.172 756.331 319.143C757.618 319.243 758.873 319.596 760.024 320.182C766.42 322.846 772.971 325.121 779.642 326.993C783.073 327.572 786.591 327.334 789.913 326.3C794.298 325.03 797.53 324.569 799.376 330.225C801.937 337.86 804.942 345.338 808.377 352.621C811.147 358.508 816.571 364.165 817.148 369.706C819.537 378.39 822.946 386.76 827.303 394.642C828.338 397.12 829.869 399.36 831.804 401.222C835.266 404.685 839.305 407.571 842.421 411.381C844.036 413.343 843.806 416.806 845.306 419.231C845.836 419.948 846.534 420.523 847.34 420.905C848.145 421.288 849.032 421.466 849.922 421.424C858.346 419.577 866.655 417.268 876.003 414.844C875.788 419.056 874.972 423.215 873.579 427.196C867.846 440.887 859.271 453.203 848.422 463.329C839.727 472.183 832.203 482.115 826.034 492.882C825.341 493.806 825.111 496.115 826.034 496.461C830.535 500.155 827.649 505.004 828.457 509.275C829.265 513.546 831.688 516.548 832.265 520.819C833.606 526.411 833.919 532.201 833.189 537.905C832.381 541.599 828.226 544.947 825.111 547.717C820.264 552.219 815.301 556.26 810.454 560.647C809.647 561.224 809.877 563.302 810.454 564.572C811.031 565.842 812.07 569.074 812.763 571.267C813.711 573.703 813.662 576.414 812.625 578.813C811.588 581.212 809.647 583.105 807.223 584.081C805.146 585.12 803.184 586.39 802.261 586.852C802.261 591.008 802.953 594.587 801.569 596.665C795.83 609.44 785.487 619.581 772.603 625.063C766.774 626.135 760.871 626.752 754.946 626.91C752.529 626.973 750.127 627.322 747.791 627.949Z" fill="#191B1D"/>
<path d="M440.389 110.539L433.465 104.998L448.814 97.148V90.6833L436.004 85.8348V83.8723L449.391 85.7193L439.235 79.1392C433.004 82.8333 431.042 81.3325 430.811 71.9818H435.196C432.427 67.9413 430.119 64.0163 427.234 60.4376C423.82 55.3994 418.901 51.5699 413.18 49.4966C407.46 47.4232 401.23 47.2121 395.383 48.8934C393.03 49.7977 390.513 50.1913 387.997 50.0479C385.343 50.0479 380.611 52.4721 380.265 46.1229C380.265 45.3148 375.303 44.7376 372.302 44.1604V41.8515L385.227 41.1589L363.301 34.925C364.866 33.8834 366.528 32.9943 368.263 32.2699C374.61 31.2309 381.073 30.6537 387.42 29.3839C391.228 28.6912 395.96 28.5758 395.96 22.3419H386.727V20.1485L407.961 14.6073V10.6823C407.961 10.6823 408.885 10.6823 409.231 10.6823C415.347 12.8757 420.771 8.25798 426.195 8.14254C427.902 8.06279 429.605 8.36316 431.182 9.02197C432.758 9.68078 434.169 10.6816 435.312 11.9521C436.927 13.3374 440.274 6.64185 444.659 10.4514C445.467 11.1441 447.544 10.4514 449.506 10.4514L447.083 6.18005L469.24 11.8367V9.87418C467.376 9.74066 465.545 9.31203 463.816 8.60432C463.189 8.33609 462.632 7.92509 462.192 7.40403C461.751 6.88297 461.438 6.2662 461.277 5.60281C461.277 4.79472 463.008 3.17861 464.047 3.06317C469.586 3.06317 475.587 3.0631 480.895 1.90868C484.713 1.22839 488.566 0.765937 492.436 0.523438C508.015 0.523438 523.594 0.523445 539.173 1.7933C546.258 2.92061 553.215 4.73776 559.946 7.21899L543.213 9.98965V12.6448H547.829C550.576 12.5083 553.313 12.1999 556.022 11.7213L552.791 17.0316C559.926 16.1314 566.985 14.7037 573.909 12.7602C577.733 11.3127 581.82 10.6977 585.9 10.9565C589.98 11.2153 593.957 12.3419 597.567 14.2609C584.065 20.7257 569.524 24.8816 560.869 37.3493C563.964 37.1155 567.076 37.349 570.101 38.042C572.063 38.8501 572.986 41.967 574.717 44.6221H565.37C565.37 48.4317 574.602 50.9714 567.216 56.1663L571.371 60.5531L561.792 61.9384L566.178 66.9024H551.406C548.521 70.712 549.098 73.7134 554.637 75.9068C555.82 76.2398 556.925 76.8026 557.89 77.5631C558.855 78.3236 559.66 79.2669 560.26 80.339C560.861 81.4112 561.244 82.5911 561.388 83.8114C561.532 85.0317 561.434 86.2685 561.1 87.451L548.175 82.1407L543.789 87.451L560.061 89.0672C549.122 96.5542 536.603 101.414 523.479 103.266C521.286 103.266 518.632 106.037 517.132 108.115C514.871 112.12 511.467 115.358 507.355 117.415C503.243 119.472 498.61 120.253 494.051 119.659C492.666 119.659 489.551 123.007 489.551 124.623C489.964 127.112 489.599 129.669 488.504 131.942C487.409 134.215 485.638 136.094 483.434 137.322C482.742 137.322 482.396 138.823 482.165 139.746C481.126 144.364 479.741 149.097 478.934 153.83C478.126 158.563 475.472 157.409 472.586 156.139C468.628 154.758 464.771 153.099 461.046 151.175C458.532 149.775 456.425 147.746 454.93 145.287C449.621 135.359 444.659 125.547 439.928 115.734C439.751 113.989 439.908 112.226 440.389 110.539Z" fill="#191B1D"/>
<path d="M1250.51 532.594C1252.71 534.177 1254.65 536.084 1256.28 538.251C1258.11 540.833 1259.18 543.869 1259.4 547.024C1259.4 554.297 1264.36 556.952 1268.63 560.531C1269.44 561.131 1270.18 561.829 1270.82 562.609C1272.39 566.208 1274.85 569.347 1277.98 571.729C1282.91 576.291 1286.57 582.06 1288.59 588.468C1290.24 592.899 1290.85 597.651 1290.37 602.355C1289.89 607.06 1288.33 611.59 1285.82 615.597C1281.12 622.66 1277.65 630.466 1275.55 638.685C1270.19 642.202 1263.96 644.16 1257.55 644.342L1254.2 642.495C1252.66 643.463 1250.94 644.116 1249.15 644.414C1247.35 644.712 1245.51 644.649 1243.74 644.23C1241.97 643.811 1240.3 643.044 1238.82 641.973C1237.35 640.902 1236.11 639.549 1235.16 637.992C1234.59 637.09 1234.12 636.121 1233.78 635.106C1231.97 631.872 1229.8 628.851 1227.31 626.102L1225.01 627.718L1226.85 618.136L1218.08 628.064C1215.43 623.562 1213.81 618.136 1210.23 615.828C1205.64 613.252 1200.36 612.163 1195.12 612.711C1187.94 613.311 1180.94 615.229 1174.46 618.367C1170.06 621.646 1164.71 623.39 1159.23 623.331C1155.08 623.401 1151.06 624.729 1147.69 627.141C1145.94 628.373 1143.8 628.923 1141.68 628.689C1139.55 628.456 1137.58 627.453 1136.15 625.871C1135.23 624.387 1134.87 622.632 1135.11 620.907C1135.11 618.136 1136.84 615.019 1136.26 612.48C1134.67 606.956 1132.78 601.522 1130.61 596.202C1129.57 593.432 1127.49 590.661 1130.61 587.66C1130.61 587.66 1129.68 585.12 1129.45 583.735C1129.45 579.233 1126.8 573.461 1128.88 570.575C1130.95 567.688 1137.53 565.38 1142.03 562.724C1148.49 559.03 1158.77 561.801 1161.65 551.988C1161.65 550.488 1161.65 548.987 1162.57 547.602L1165.11 544.138L1167.42 545.985C1170.67 541.879 1174.22 538.02 1178.04 534.441C1182.42 530.516 1185.08 532.94 1186.69 539.751C1188.96 536.338 1191.43 533.061 1194.08 529.939C1196.7 527.845 1199.48 525.953 1202.39 524.282C1203.4 523.366 1204.32 522.361 1205.16 521.281L1222.01 525.321C1215.54 535.249 1215.54 535.249 1225.35 542.522L1230.89 546.332L1237.93 550.719L1240.93 533.864C1241.85 528.669 1242.66 523.128 1243.47 517.702H1245.66L1250.51 532.594Z" fill="#191B1D"/>
<path d="M352.901 97.8411C353.594 90.4529 346.554 90.6838 343.092 87.1051C341.361 91.0301 340.323 95.186 335.476 90.7992C334.552 89.9911 332.244 90.7992 330.629 90.7992C322.666 89.9911 314.819 89.1829 307.548 88.0285C305.933 88.0285 304.663 86.2969 302.586 85.1425L309.626 82.8337C302.932 81.5638 297.277 81.2175 300.163 73.7138C301.321 70.3336 303.76 67.5439 306.955 65.9459C310.149 64.348 313.844 64.0697 317.242 65.1711C315.857 68.1726 313.203 71.405 313.434 74.1756C313.665 76.9462 316.781 80.0631 318.858 82.7182C316.781 69.0961 317.819 66.6718 327.628 65.402C332.475 64.7093 334.899 67.5954 335.36 76.0227C339.373 73.6401 344.013 72.5302 348.669 72.8393C353.325 73.1484 357.778 74.8621 361.441 77.7542C363.469 78.7092 365.665 79.2582 367.904 79.3704H369.865C374.3 81.3597 378.582 83.675 382.675 86.297C385.668 89.0995 388.374 92.1932 390.753 95.5323L384.983 96.5713L384.175 98.072L410.141 112.04L400.332 124.508L387.407 112.964L384.868 119.082C389.83 123.585 398.831 126.932 396.408 138.246L389.022 137.553L392.253 145.172C383.137 141.363 374.135 141.132 368.365 132.935C366.681 130.729 364.368 129.084 361.731 128.219C359.094 127.353 356.257 127.307 353.594 128.087C351.123 128.108 348.666 127.718 346.323 126.932C346.323 124.854 347.016 122.892 347.593 120.929C347.811 119.656 348.282 118.439 348.978 117.351C350.027 115.757 351.454 114.448 353.132 113.541C353.825 113.541 355.44 114.926 356.594 115.735L352.324 121.276L361.672 120.237V118.621L358.556 117.582C360.056 112.618 369.288 112.271 366.057 105.114C365.094 102.529 363.238 100.375 360.825 99.0411C358.412 97.707 355.601 97.2814 352.901 97.8411Z" fill="#191B1D"/>
<path d="M311.38 17.2623C305.379 20.7255 299.84 14.838 293.262 9.98947C302.411 8.37016 311.669 7.44393 320.958 7.21881C329.334 6.98596 337.624 5.46752 345.539 2.71659C351.702 1.84952 357.956 1.84952 364.119 2.71659C375.659 2.71659 387.199 3.4093 398.739 4.21739C402.322 4.96988 405.807 6.13187 409.125 7.68058C406.702 8.95044 404.625 10.2203 402.547 11.1439C392.738 15.4152 382.698 19.6865 372.427 23.727C370.333 24.6747 368.121 25.3349 365.849 25.6895C363.138 25.8639 360.574 26.9901 358.611 28.8696C356.648 30.7491 355.411 33.2613 355.117 35.9638L340.923 41.8513L347.039 45.4301C341.731 46.2381 337.576 51.0867 332.614 45.4301C332.614 45.4301 330.19 45.4301 328.921 45.4301C319.118 47.3596 309 46.9642 299.378 44.2757L309.187 41.3896L308.033 38.1572L316.919 38.8499L317.496 37.3491L309.764 33.655C314.38 26.4976 321.304 32.616 326.613 31.1152L312.765 22.8035L314.496 21.4182C322.805 24.6505 330.421 19.6865 339.076 19.5711C330.652 14.0299 321.304 21.4182 311.38 17.2623Z" fill="#191B1D"/>
<path d="M194.474 88.6051L212.361 87.4507V86.2963C208.668 86.2963 204.975 85.4882 200.82 85.3727C196.666 85.2573 193.55 85.3727 189.973 85.3727V83.2948L197.359 80.5242L187.203 77.9845C190.665 69.7881 197.936 68.7491 206.014 67.5947V71.9815H208.091C211.438 68.7491 214.323 69.9036 217.438 72.5587C220.554 75.2139 221.824 67.7102 224.94 71.6352C226.695 74.0841 228.839 76.229 231.287 77.9845L228.979 67.7102H238.326C239.801 72.8888 242.017 77.8268 244.904 82.3712C247.905 86.0654 253.328 87.6816 257.252 91.4911L251.251 92.0684L253.905 96.9169C250.429 97.4939 246.881 97.4939 243.404 96.9169C235.929 95.1972 228.095 96.0093 221.131 99.2257C217.092 100.38 211.322 102.574 208.206 95.9934C208.206 95.0698 205.552 95.0698 204.283 94.7235L193.896 91.722L194.474 88.6051Z" fill="#191B1D"/>
<path d="M1267.48 498.192L1262.52 501.655L1277.29 517.125C1274.01 517.042 1270.8 516.171 1267.93 514.583C1265.05 512.996 1262.61 510.739 1260.79 508.005C1260.13 506.46 1258.89 505.234 1257.34 504.588C1255.79 503.941 1254.04 503.925 1252.48 504.541C1251.61 504.917 1250.84 505.47 1250.2 506.167C1249.57 506.863 1249.08 507.686 1248.79 508.582C1248.29 509.925 1247.29 511.019 1245.99 511.625C1244.69 512.23 1243.21 512.298 1241.86 511.814C1241.15 511.542 1240.49 511.152 1239.9 510.66C1235.98 506.042 1231.71 506.158 1225.25 508.235L1230.55 500.847C1230.11 498.463 1228.98 496.261 1227.3 494.517C1225.62 492.772 1223.46 491.561 1221.09 491.035C1216.42 489.945 1211.83 488.517 1207.36 486.763C1205.97 486.186 1205.17 483.993 1203.9 482.376L1208.74 480.068L1196.39 474.18C1198.99 473.149 1201.65 472.3 1204.36 471.641C1205.06 471.405 1205.81 471.311 1206.55 471.364C1207.29 471.416 1208.01 471.614 1208.68 471.947C1209.34 472.279 1209.93 472.739 1210.42 473.301C1210.91 473.862 1211.28 474.514 1211.51 475.219C1211.51 475.219 1211.51 475.912 1211.51 476.143C1212.32 479.129 1213.32 482.06 1214.51 484.916H1216.59C1217.43 483.428 1218.48 482.068 1219.71 480.876C1223.51 477.528 1226.75 474.526 1232.75 479.144C1238.75 483.762 1244.29 482.492 1250.06 485.378C1256.18 489.201 1262.01 493.485 1267.48 498.192Z" fill="#191B1D"/>
<path d="M1110.74 460.097L1116.86 462.175L1142.94 437.586L1150.67 445.321C1143.05 452.593 1142.71 457.557 1149.86 465.061C1146.29 467.657 1143.49 471.178 1141.76 475.245C1140.03 479.312 1139.44 483.773 1140.05 488.149L1115.36 483.301C1114.32 475.335 1107.63 468.986 1110.74 460.097Z" fill="#191B1D"/>
<path d="M847.413 542.522C860.338 543.099 861.03 530.978 868.185 526.014C870.195 527.826 871.504 530.287 871.883 532.967C872.263 535.647 871.689 538.375 870.263 540.675C869.844 541.623 869.609 542.641 869.57 543.676C866.108 556.029 862.877 568.265 859.069 580.618C858.769 581.515 858.296 582.344 857.674 583.057C857.053 583.769 856.297 584.352 855.449 584.77C854.601 585.189 853.679 585.436 852.735 585.495C851.792 585.555 850.846 585.428 849.952 585.12C849.022 584.777 848.162 584.269 847.413 583.619C845.549 581.14 844.366 578.216 843.981 575.138C843.596 572.059 844.024 568.934 845.22 566.072C846.564 562.37 847.266 558.466 847.298 554.528C847.644 550.603 847.413 546.793 847.413 542.522Z" fill="#191B1D"/>
<path d="M654.808 175.186L649.499 173.57V165.836C649.499 164.912 650.884 163.411 651.115 163.527C654.346 164.912 655.961 162.603 655.615 160.41C655.269 158.216 652.038 157.177 650.076 155.561C648.114 153.945 648.807 155.561 647.768 155.561L648.576 151.521C642.921 146.21 640.728 142.285 642.229 139.977C645.46 135.359 652.615 132.588 655.731 134.551C658.847 136.513 660.578 140.323 657.116 147.019L671.079 166.297C672.364 166.495 673.565 167.055 674.541 167.914C674.541 168.606 673.503 170.915 672.926 172.416L670.848 178.419L645.229 182.459L654.808 175.186Z" fill="#191B1D"/>
<path d="M1096.8 495.768L1089.53 495.191C1083.99 487.226 1077.99 478.106 1071.41 469.217C1064.83 460.328 1059.87 452.362 1052.71 443.127C1065.99 444.628 1071.06 454.671 1079.37 461.136C1084.96 465.663 1089.53 471.33 1092.76 477.759C1093.8 479.376 1096.8 479.837 1098.53 480.761L1096.68 495.999L1096.8 495.768Z" fill="#191B1D"/>
<path d="M901.768 65.4014C897.162 66.1485 892.449 65.8961 887.949 64.6612C883.45 63.4262 879.268 61.2378 875.688 58.244C881.165 53.7081 886.295 48.7688 891.036 43.4675C896.521 38.0203 903.671 34.566 911.347 33.6549C919.209 32.1354 927.143 31.018 935.119 30.3071C938.697 29.499 942.274 28.4601 945.852 27.3057L946.891 29.7299C945.222 31.1214 943.303 32.1795 941.236 32.8468C933.796 33.7955 926.43 35.2614 919.194 37.2337C909.666 40.6018 901.19 46.4138 894.613 54.0881C893.69 55.2425 894.613 58.9366 895.652 60.4374C897.418 62.403 899.482 64.0782 901.768 65.4014Z" fill="#191B1D"/>
<path d="M561.994 131.203L552.878 128.548L561.071 124.277H551.954L551.031 123.122L559.571 118.158L558.879 116.081L563.726 122.43L583.459 117.466V115.388C586.919 117.926 590.024 120.915 592.691 124.277C595.461 129.241 589.806 130.626 587.267 132.704C583.812 135.199 579.886 136.966 575.727 137.899C573.221 138.476 570.617 138.476 568.111 137.899C564.201 136.965 560.348 135.809 556.57 134.436L561.994 131.203Z" fill="#191B1D"/>
<path d="M1215.06 270.888L1199.37 274.697C1204.1 266.963 1206.64 265.808 1218.41 265.808C1219.33 264.077 1220.49 262.345 1221.29 260.498C1221.83 259.374 1222.29 258.218 1222.68 257.035C1225.22 257.035 1228.22 257.035 1228.56 257.035C1230.87 252.186 1232.72 247.222 1234.56 242.258C1235.83 239.141 1234.56 234.293 1240.57 234.524C1242.25 236.945 1243.16 239.826 1243.16 242.778C1243.16 245.73 1242.25 248.61 1240.57 251.032C1238.71 254.867 1238.03 259.163 1238.6 263.384C1239.3 270.195 1233.3 270.195 1230.41 271.003C1225.1 272.389 1220.6 273.774 1218.87 279.892H1216.91L1215.06 270.888Z" fill="#191B1D"/>
<path d="M165.712 59.2826C177.483 59.0028 189.21 60.8406 200.332 64.7084L184.291 74.5209C179.56 77.5224 176.098 80.4085 172.751 82.7173L161.211 75.4445C163.288 71.1731 169.751 67.5944 165.712 59.2826Z" fill="#191B1D"/>
<path d="M284.812 30.7695L288.274 27.7681L274.426 25.1129C277.08 18.0709 280.311 14.1459 287.005 15.3003C288.718 15.7437 290.381 16.3626 291.967 17.1474C293.834 17.9464 295.825 18.4152 297.852 18.5327C300.622 21.3033 302.815 25.3437 307.2 21.6496L313.201 26.4982C306.277 36.0799 297.737 37.4651 284.812 30.7695Z" fill="#191B1D"/>
<path d="M712.82 12.6447L733.593 14.3764L731.169 9.87415L765.79 23.8426V26.1515H754.25C753.442 24.4198 753.211 22.4573 752.172 21.7646C751.493 21.4198 750.742 21.2401 749.98 21.2401C749.218 21.2401 748.467 21.4198 747.787 21.7646C744.094 24.1889 740.632 27.1904 736.247 30.5382L726.322 27.9985L730.592 25.8051H724.361V24.6507L732.323 21.8801V20.2639C729.001 21.296 725.529 21.7642 722.053 21.6492C718.739 20.1128 715.699 18.0462 713.051 15.5308L712.82 12.6447Z" fill="#191B1D"/>
<path d="M289.446 46.3539L294.293 45.084V48.4318C308.602 58.3598 324.412 48.4318 339.415 53.3958C338.6 55.7965 336.867 57.7763 334.596 58.9014C332.325 60.0266 329.7 60.2054 327.298 59.3988H326.259C324.265 59.1688 322.252 59.1688 320.258 59.3988C311.477 59.5525 302.695 59.2442 293.946 58.4752C292.562 58.4752 290.946 55.5892 290.138 53.6267C289.622 51.2381 289.39 48.797 289.446 46.3539Z" fill="#191B1D"/>
<path d="M199.636 52.0103H197.674H195.943C195.366 52.0103 195.943 51.0868 195.943 50.8559C202.29 42.775 209.099 47.6235 215.677 49.9324C218.562 50.9713 221.332 52.0103 225.486 53.7419L222.024 45.8919L226.063 43.1212C226.756 43.1212 227.333 43.9293 227.563 44.3911C228.948 47.8544 229.987 51.6639 235.295 48.8933C235.988 48.8933 238.757 50.0478 239.104 51.0867C239.105 51.861 238.916 52.6238 238.554 53.3081C238.192 53.9924 237.667 54.5775 237.026 55.0118C227.217 56.8589 217.408 58.3595 207.599 59.9757C207.599 59.9757 206.676 59.2831 205.406 58.1287L215.215 55.589V54.0883L193.289 55.9353V54.8963L199.867 52.4721L199.636 52.0103Z" fill="#191B1D"/>
<path d="M1341.79 678.512L1368.91 655.424C1370.09 655.896 1371.18 656.559 1372.14 657.386C1373.06 658.195 1374.1 660.388 1373.76 660.734C1370.87 663.851 1370.75 669.392 1365.45 670.547C1364.24 670.935 1363.18 671.704 1362.45 672.74C1354.37 682.784 1354.37 682.784 1341.79 678.512Z" fill="#191B1D"/>
<path d="M1161.32 477.99L1166.28 488.38L1162.13 491.497L1157.16 481.684C1157.16 492.42 1157.16 493.228 1153.47 495.422C1152.66 491.497 1151.74 487.572 1150.93 483.878H1149.55C1151.62 477.067 1153.7 470.371 1155.78 463.329C1162.13 462.405 1169.51 469.447 1175.4 460.212C1173.32 467.023 1172.63 467.485 1167.2 467.139C1164.26 466.678 1161.26 466.678 1158.32 467.139C1152.55 469.101 1156.36 472.102 1157.51 474.642L1167.9 471.179L1168.47 472.564L1161.32 477.99Z" fill="#191B1D"/>
<path d="M627.35 171.492V161.68C629.611 159.716 631.768 157.635 633.812 155.446C637.275 151.521 640.737 154.176 643.737 155.446C646.738 156.716 646.16 159.371 643.16 161.218C643.16 161.218 642.468 162.488 642.468 163.296C642.468 164.104 643.16 169.645 642.468 170.223C638.206 172.348 633.715 173.975 629.081 175.071C628.158 175.071 626.888 173.455 625.734 172.531L627.35 171.492Z" fill="#191B1D"/>
<path d="M272.334 65.4016L268.064 68.8649L274.296 71.6355C276.143 78.2157 269.334 77.9848 266.68 80.6399C266.68 80.6399 263.218 78.6775 261.371 77.6385L250.523 71.4047V69.4422L259.986 71.0583L255.024 65.8634C257.272 63.5306 260.347 62.1748 263.585 62.0884C266.823 62.0021 269.965 63.192 272.334 65.4016Z" fill="#191B1D"/>
<path d="M1252.21 187.654H1246.79C1247.36 193.196 1247.94 198.621 1248.52 203.585H1243.21C1246.67 188.924 1238.59 173.109 1247.02 156.716C1248.86 168.029 1250.48 177.842 1252.21 187.654Z" fill="#191B1D"/>
<path d="M1096.69 495.999C1100.45 497.277 1104.31 498.242 1108.23 498.886C1114.34 499.578 1120.46 499.578 1126.69 499.924C1128.21 499.785 1129.72 500.194 1130.96 501.079L1127.27 503.041L1136.85 506.851V508.352C1132.06 508.367 1127.27 508.02 1122.54 507.313C1115.13 506.296 1107.8 504.753 1100.61 502.695C1099.35 502.393 1098.25 501.607 1097.56 500.506C1096.87 499.405 1096.64 498.077 1096.92 496.807C1096.87 496.463 1096.87 496.114 1096.92 495.769L1096.69 495.999Z" fill="#191B1D"/>
<path d="M1239.64 226.558L1236.76 232.908C1234.22 224.942 1235.37 222.287 1240.79 222.172L1242.64 208.665C1247.6 211.551 1248.76 219.517 1256.26 216.977L1257.41 222.633L1247.03 228.636L1239.64 226.558Z" fill="#191B1D"/>
<path d="M1236.77 41.1593C1233.48 41.0417 1230.2 40.6946 1226.96 40.1204C1225.92 40.1204 1224.3 37.6961 1224.53 36.7725C1224.76 35.849 1226.5 34.3483 1227.77 33.5402C1228.17 33.3687 1228.6 33.2803 1229.03 33.2803C1229.47 33.2803 1229.9 33.3687 1230.3 33.5402C1237.57 34.635 1244.96 34.635 1252.23 33.5402C1253.62 33.5402 1255 35.3872 1256.27 36.3108C1255.12 37.3497 1254.08 39.3122 1252.69 39.5431C1247.38 40.3512 1242.19 40.6975 1236.77 41.1593Z" fill="#191B1D"/>
<path d="M1391.99 641.109C1391.3 642.842 1390.45 644.505 1389.45 646.073C1386.45 650.229 1383.21 654.27 1379.98 657.617C1379.89 657.719 1379.77 657.799 1379.64 657.854C1379.51 657.909 1379.37 657.938 1379.23 657.938C1379.09 657.938 1378.95 657.909 1378.83 657.854C1378.7 657.799 1378.58 657.719 1378.48 657.617C1378.37 657.32 1378.37 656.991 1378.48 656.694L1373.87 647.689L1378.02 636.838C1382.18 634.875 1385.29 646.881 1391.87 638.57L1391.99 641.109Z" fill="#191B1D"/>
<path d="M253.42 49.9324V46.0073L260.806 49.9324L259.075 45.661C261.988 45.3147 264.932 45.3147 267.845 45.661C268.884 45.661 270.153 49.0088 269.922 50.625C269.692 52.2412 268.307 56.3971 266.807 56.628C265.306 56.8589 261.96 55.1272 259.536 54.3191C257.113 53.511 255.959 53.511 254.228 53.0493C252.409 52.6867 250.631 52.1453 248.919 51.4331C247.192 50.3446 245.535 49.1494 243.957 47.8544C244.765 46.9309 245.919 45.3147 246.15 45.4302C248.068 46.4467 249.884 47.6451 251.574 49.0088C251.975 49.4268 252.323 49.892 252.612 50.3942L253.42 49.9324Z" fill="#191B1D"/>
<path d="M323.59 370.975C325.527 367.676 328.594 365.191 332.223 363.982C335.851 362.772 339.795 362.919 343.324 364.395C351.056 368.32 358.557 372.707 367.212 377.325L355.672 378.71C353.133 375.593 351.517 372.476 348.978 371.091C344.377 368.621 339.377 366.98 334.207 366.242C330.86 366.011 327.283 369.128 323.59 370.975Z" fill="#191B1D"/>
<path d="M1155.52 383.443C1164.3 386.099 1165.8 390.024 1162.45 394.988C1159.1 399.952 1160.37 402.376 1166.49 403.646C1168.34 404.139 1170.15 404.757 1171.91 405.493L1169.83 409.995C1165.8 406.185 1159.1 406.993 1155.06 401.683C1151.02 396.373 1159.91 390.832 1155.52 383.443Z" fill="#191B1D"/>
<path d="M297.058 63.6697C296.986 64.7833 296.69 65.871 296.189 66.868C295.688 67.8649 294.991 68.7507 294.14 69.4725C293.29 70.1943 292.302 70.7374 291.237 71.0692C290.172 71.4011 289.051 71.5151 287.941 71.4043C287.133 71.4043 285.633 71.4042 285.518 72.0969C284.825 77.0609 281.132 75.3293 280.094 73.3668C279.055 71.4042 277.786 66.2094 279.286 64.4778C281.988 62.6129 285.242 61.7177 288.518 61.9381C291.424 62.1673 294.292 62.7488 297.058 63.6697Z" fill="#191B1D"/>
<path d="M1176.51 437.586L1177.44 442.204L1175.59 443.243L1168.67 434.238L1163.36 435.277L1162.55 433.892L1179.17 424.541L1180.32 437.586H1176.51Z" fill="#191B1D"/>
<path d="M1064.45 8.48922L1036.99 14.8386C1036.99 13.1069 1036.99 10.6827 1037.91 9.99002C1041.64 7.03298 1046.19 5.30155 1050.95 5.0329C1055.7 4.76424 1060.41 5.97144 1064.45 8.48922Z" fill="#191B1D"/>
<path d="M173.434 47.9701C177.596 45.396 181.957 43.1571 186.474 41.2745C190.939 40.142 195.496 39.408 200.091 39.0811L201.13 41.2745C199.034 43.3858 196.798 45.3529 194.437 47.162C193.223 46.4009 192.065 45.5521 190.975 44.6223C186.589 49.9326 175.626 52.0106 173.434 47.9701Z" fill="#191B1D"/>
<path d="M366.051 384.021L375.86 384.829L371.013 379.172C380.361 376.748 390.631 380.327 390.17 386.099C381.976 385.406 373.437 389.447 366.051 384.021Z" fill="#191B1D"/>
<path d="M337.673 137.668C334.211 137.668 331.095 138.938 329.941 137.668C326.364 134.667 324.171 137.668 321.055 137.668C317.802 138.134 314.499 138.134 311.246 137.668C317.939 127.163 319.67 126.124 327.979 131.204L329.595 132.127L337.673 137.668Z" fill="#191B1D"/>
<path d="M1073.61 10.5664L1071.76 16.9157C1058.49 18.9937 1054.8 18.5319 1048.11 12.7598L1073.61 10.5664Z" fill="#191B1D"/>
<path d="M777.342 13.6837C770.943 14.3971 764.506 14.7056 758.069 14.6073C753.124 13.7633 748.337 12.1671 743.875 9.87415H777.342V13.6837Z" fill="#191B1D"/>
<path d="M263.816 37.4644L242.236 32.9621L247.082 30.8842L240.043 28.9217V26.8438C242.946 27.019 245.836 27.3659 248.698 27.8827C251.559 28.4532 254.346 29.3439 257.007 30.5379C259.71 31.9885 262.295 33.6482 264.739 35.5019L263.816 37.4644Z" fill="#191B1D"/>
<path d="M1095.41 21.4182L1071.29 23.3807L1070.25 22.3417C1074.18 20.0329 1077.99 16.2233 1081.79 15.877C1086.55 16.2473 1091.2 17.4591 1095.53 19.4557L1095.41 21.4182Z" fill="#191B1D"/>
<path d="M993.615 423.848C996.134 427.5 998.335 431.362 1000.19 435.392C1000.19 436.662 998.115 440.356 996.269 440.933C992.692 442.318 991.307 439.894 991.653 436.431C991.999 432.968 991.653 428.581 991.653 424.887L993.615 423.848Z" fill="#191B1D"/>
<path d="M1261.37 669.276L1255.02 655.423C1258.86 655.055 1262.72 655.055 1266.56 655.423C1267.71 655.423 1269.33 659.464 1268.75 660.618C1266.66 663.798 1264.18 666.706 1261.37 669.276Z" fill="#191B1D"/>
<path d="M1196.73 275.39C1203.77 281.046 1203.31 287.857 1195.81 292.013V282.201L1192.93 280.469L1196.73 275.39Z" fill="#191B1D"/>
<path d="M702.211 236.024L706.365 234.293C706.365 235.563 707.866 236.948 707.519 237.641C706.135 240.758 709.481 246.645 702.211 246.991V236.024Z" fill="#191B1D"/>
<path d="M728.543 260.037L717.926 253.572V252.187H729.466L728.543 260.037Z" fill="#191B1D"/>
<path d="M334.562 64.0166L350.373 67.5953L349.68 70.135C344.949 67.5953 338.025 74.9836 334.562 64.0166Z" fill="#191B1D"/>
<path d="M266.34 29.8456C271.533 30.8846 274.995 31.4618 278.572 32.3853C278.875 32.6117 279.118 32.9092 279.279 33.2514C279.44 33.5936 279.514 33.9701 279.496 34.3479C279.136 35.269 278.433 36.0141 277.534 36.4258C272.687 37.9266 269.571 36.0795 266.34 29.8456Z" fill="#191B1D"/>
<path d="M1163.14 353.197L1157.95 368.782C1153.56 361.855 1154.72 357.815 1163.14 353.197Z" fill="#191B1D"/>
<path d="M1270.7 493.921C1273.37 494.382 1276.1 494.382 1278.77 493.921C1280.85 492.997 1282.35 490.342 1285.58 489.072C1284.65 491.086 1283.49 492.984 1282.12 494.729C1280.89 496.161 1279.15 497.048 1277.27 497.2C1275.39 497.351 1273.52 496.754 1272.08 495.537C1271.5 495.111 1271.03 494.558 1270.7 493.921Z" fill="#191B1D"/>
<path d="M273.844 54.8959L284.345 51.4326L285.269 58.0128C283.116 58.1282 280.959 58.1282 278.806 58.0128C277.153 57.5942 275.533 57.054 273.959 56.3966L273.844 54.8959Z" fill="#191B1D"/>
<path d="M1183.35 507.428L1167.08 518.972C1167.81 515.335 1169.9 512.114 1172.92 509.968C1175.95 507.822 1179.68 506.913 1183.35 507.428Z" fill="#191B1D"/>
<path d="M269.566 104.883L278.568 110.193V111.578L264.258 110.308L269.566 104.883Z" fill="#191B1D"/>
<path d="M273.162 42.6592L286.203 43.8137C281.356 49.7012 277.317 46.0071 273.047 43.8137L273.162 42.6592Z" fill="#191B1D"/>
<path d="M208.871 37.3496L222.027 35.1562C219.719 41.3901 215.218 42.3136 208.871 37.3496Z" fill="#191B1D"/>
<path d="M1212.32 272.851C1216.01 281.393 1206.09 277.815 1206.09 282.317C1202.63 275.39 1209.55 276.198 1212.32 272.851Z" fill="#191B1D"/>
<path d="M1198.46 485.493H1185.99C1185.99 484.224 1187.03 481.915 1187.61 481.915C1191.76 481.568 1196.26 480.76 1198.46 485.493Z" fill="#191B1D"/>
</g>
</svg>
