<svg width="1440" height="729" viewBox="0 0 1440 729" fill="none" xmlns="http://www.w3.org/2000/svg">
<g opacity="0.1">
<g opacity="0.51">
<path d="M709.965 145.862C710.776 147.78 711.011 149.893 710.642 151.942C710.273 153.992 709.316 155.89 707.888 157.406C707.703 158.167 707.7 158.961 707.881 159.724C708.061 160.486 708.42 161.195 708.927 161.792C710.665 163.516 712.951 164.577 715.389 164.794C718.851 164.794 722.89 161.446 724.852 166.872C731.891 166.872 736.969 159.484 744.586 163.178C746.432 164.101 750.125 161.1 753.241 159.83C753.01 157.604 753.01 155.36 753.241 153.134C754.972 143.784 756.588 143.322 764.089 149.209C766.974 146.67 768.128 144.361 764.089 141.013C760.05 137.665 761.896 136.049 765.82 134.895C769.743 133.74 771.59 134.086 774.475 133.856L786.015 132.932V131.316C784.01 130.595 781.911 130.167 779.783 130.046C775.726 131.339 771.552 132.228 767.32 132.701C762.586 132.34 758.002 130.878 753.933 128.43C751.856 127.045 754.626 115.385 757.049 113.653C761.319 110.19 765.704 106.727 771.59 102.109C768.589 101.07 765.935 99.223 763.858 99.8002C760.256 100.871 756.915 102.68 754.049 105.111C751.625 107.189 750.125 110.075 747.817 112.383C745.509 114.692 741.932 115.962 739.739 118.386C735.469 122.889 736.046 126.121 740.893 129.931C741.484 130.202 742.014 130.59 742.452 131.071C742.89 131.552 743.227 132.117 743.442 132.731C743.658 133.345 743.747 133.996 743.706 134.645C743.664 135.295 743.493 135.929 743.201 136.511C742.599 137.695 741.567 138.604 740.316 139.05C738.678 139.815 737.283 141.017 736.285 142.525C735.288 144.032 734.726 145.786 734.661 147.593C734.661 151.172 734.661 156.367 727.853 154.981C720.005 165.256 720.236 154.981 718.043 151.172C717.729 150.369 717.343 149.596 716.889 148.863C714.697 145.284 713.081 140.089 709.85 138.704C706.618 137.319 703.272 141.936 699.694 143.553C697.731 144.249 695.576 144.171 693.668 143.334C691.761 142.498 690.243 140.966 689.424 139.05C687.889 135.354 686.842 131.473 686.308 127.506C686.248 126.142 686.474 124.78 686.971 123.508C687.468 122.235 688.224 121.081 689.193 120.118C693.83 115.822 699.4 112.661 705.465 110.883C710.078 108.587 714.045 105.174 717.005 100.955C721.852 95.529 726.352 89.4106 730.391 84.4466L721.39 86.6399C723.479 84.6832 725.76 82.9428 728.199 81.4451C730.782 80.5569 733.451 79.9379 736.161 79.5979C738.816 78.0972 743.201 73.0178 746.548 73.7105C752.549 74.8649 756.934 70.3626 762.588 71.7479C765.243 72.3251 768.705 69.2083 773.09 67.1303L770.782 71.9788C773.171 70.7585 775.744 69.9395 778.398 69.5546C782.773 70.1338 787.096 71.0602 791.324 72.3251L789.823 74.6339C799.056 76.8273 808.403 78.5591 817.404 81.2142C822.531 82.8237 827.48 84.9511 832.176 87.5634C836.1 89.526 836.33 92.412 832.176 94.4899C824.446 97.4373 815.902 97.4373 808.172 94.4899C805.751 93.5469 803.132 93.2294 800.556 93.5665L807.826 97.376C807.826 106.034 813.134 110.536 821.674 107.997L815.904 104.303V102.917L830.676 105.226L828.021 99.8002C830.906 98.4149 833.907 97.1451 836.907 95.9907C840.179 95.2952 843.495 94.8323 846.832 94.6054C845.74 93.1208 844.956 91.4332 844.524 89.6414C844.237 86.994 844.237 84.3233 844.524 81.6759L856.064 84.1003V86.2936L850.64 88.2561C854.795 94.6054 856.41 94.0282 862.18 89.7569C867.023 86.642 872.263 84.1955 877.76 82.484C879.758 81.8843 881.804 81.4594 883.876 81.2142C888.261 88.2561 894.724 81.2142 900.494 81.2142C903.033 81.2142 905.918 77.52 908.11 82.2531C910.415 81.6826 912.688 80.989 914.919 80.1752L903.379 71.6325C911.423 72.6655 919.399 74.1688 927.267 76.1347C933.527 79.3724 940.338 81.4084 947.347 82.1377C944.873 80.8067 942.811 78.8219 941.387 76.3996C939.962 73.9772 939.23 71.2103 939.269 68.4002C941.584 65.0106 944.296 61.9101 947.347 59.1648C950.427 57.6364 953.834 56.8834 957.272 56.9714C959.839 57.2038 962.363 57.7864 964.773 58.703L961.08 64.0133L963.85 82.7149L966.504 83.523L954.964 95.0672C956.938 95.5687 959.003 95.6046 960.994 95.1719C962.985 94.7392 964.848 93.8499 966.437 92.5739C968.026 91.298 969.297 89.6702 970.149 87.8191C971.002 85.968 971.413 83.9441 971.351 81.9068C975.159 81.9068 980.006 80.0598 980.352 86.8708C984.737 83.0612 983.699 79.7134 978.39 79.3671H967.658C967.658 74.8649 966.735 70.3627 966.273 65.0524L973.889 60.0884V66.6685L980.583 67.7075L975.62 63.4362L983.699 64.4751V63.0898L979.775 60.4347V59.0493C984.737 60.5501 989.584 62.1663 994.893 63.667C996.87 64.1348 998.874 64.4818 1000.89 64.706C1000.95 64.1687 1000.95 63.6272 1000.89 63.0898C999.162 62.1662 997.316 61.4736 994.662 60.3192L992.931 54.5471L1018.78 52.3538L1014.97 48.1979C1026.83 42.5512 1039.96 40.1227 1053.06 41.1559C1057.7 41.0387 1062.31 40.3407 1066.79 39.078C1066.79 39.078 1067.48 39.0779 1067.83 38.5007C1072.07 38.0605 1076.08 36.3734 1079.37 33.6522C1084.33 30.189 1089.98 26.0331 1095.29 33.6522C1096.33 35.153 1099.56 35.0375 1101.64 35.7302C1108.59 35.153 1115.58 35.153 1122.53 35.7302C1125.07 35.7302 1126.91 40.5787 1129.22 43.3493L1100.14 53.739V54.8934C1101.99 54.8934 1103.95 54.8934 1105.91 54.8934C1107.87 54.8934 1110.87 54.8934 1112.26 54.8934C1118.83 49.9294 1125.53 52.9309 1132.22 53.739C1134.88 53.739 1137.88 52.1229 1140.41 52.5846C1143.59 53.3731 1146.57 54.786 1149.19 56.7405C1151.96 58.4175 1155.25 59.0037 1158.43 58.3849C1161.61 57.7661 1164.44 55.9866 1166.38 53.3927C1167.08 52.8678 1167.89 52.4943 1168.74 52.2956C1169.59 52.0969 1170.48 52.0774 1171.34 52.2383L1190.96 55.3552C1190.15 62.8589 1190.96 69.2082 1200.31 69.4391L1202.96 65.0524H1234.01L1230.77 59.7421C1238.36 58.1448 1246.14 57.7166 1253.85 58.4722C1260.66 60.3193 1269.43 58.4721 1276.94 64.4751C1283.24 67.5216 1290.28 68.7222 1297.25 67.9384C1304.17 67.9384 1311.44 66.6685 1316.4 74.1723C1317.56 75.7884 1321.83 75.5576 1324.6 75.7884C1328.98 76.0193 1333.37 76.0193 1337.75 75.7884C1340.94 75.4355 1344.11 74.8568 1347.22 74.0568C1349.21 73.9413 1351.22 73.9413 1353.22 74.0568L1354.49 76.1347L1350.56 77.2891V78.559L1361.18 81.7914L1360.14 73.595C1371.45 73.9487 1382.68 75.6145 1393.61 78.559C1403.76 82.484 1415.42 83.523 1421.53 94.2591C1424.88 89.526 1427.88 89.9878 1440 97.6069C1436.07 100.839 1429.61 101.07 1428.46 107.189L1415.88 103.264C1413.69 102.571 1411.61 101.647 1409.42 100.839C1407.76 100.346 1406.14 99.7282 1404.57 98.9921C1403.57 98.1309 1402.71 97.1181 1402.03 95.9907C1401.58 97.2779 1401.19 98.588 1400.88 99.9157C1400.88 101.186 1400.88 101.07 1400.88 101.878L1389.34 105.919C1391.41 107.215 1393.08 109.075 1394.14 111.282C1395.21 113.489 1395.62 115.953 1395.34 118.386C1379.64 115.5 1369.14 124.389 1357.72 131.778C1356.16 129.856 1353.9 128.623 1351.44 128.342C1348.99 128.062 1346.51 128.756 1344.56 130.277C1342.91 131.066 1341.06 131.348 1339.25 131.085C1330.71 130.392 1329.44 138.358 1323.9 142.629L1329.21 143.668C1329.21 147.131 1330.02 150.133 1330.48 153.481C1324.71 153.481 1322.87 156.598 1326.21 161.792C1323.21 164.909 1314.67 162.485 1317.9 170.912C1308.32 169.527 1311.56 181.533 1303.94 183.495C1301.63 170.104 1294.13 157.059 1303.94 145.4C1316.31 138.633 1327.06 129.258 1335.44 117.925L1334.41 116.308C1333.02 116.308 1330.6 117.232 1330.6 117.578C1330.6 122.08 1327.48 122.542 1324.48 123.812C1321.48 125.082 1317.56 131.778 1315.83 122.311C1311.95 121.873 1308.02 122.227 1304.29 123.35C1301.23 124.87 1298.64 127.182 1296.78 130.046C1295.75 131.2 1296.09 133.509 1295.63 136.28L1280.86 138.242L1283.74 133.856C1276.89 135.06 1269.92 135.448 1262.97 135.01C1248.2 131.893 1239.89 141.359 1230.89 149.094L1217.96 160.638C1219.79 162.948 1221.84 165.075 1224.08 166.987C1225.76 167.568 1227.59 167.568 1229.27 166.987C1231.47 166.987 1234.24 163.87 1235.27 164.563C1236.31 165.256 1241.16 169.181 1240.81 171.028C1238.51 181.071 1240.12 192.269 1233.77 201.389C1227.43 210.509 1222.23 218.128 1216.58 226.324C1215.85 227.371 1214.93 228.264 1213.85 228.953C1212.78 229.641 1211.59 230.111 1210.33 230.336C1209.08 230.561 1207.79 230.537 1206.55 230.265C1205.3 229.992 1204.12 229.477 1203.08 228.749C1200.19 233.02 1194.42 234.521 1193.96 241.563C1193.96 244.449 1188.19 246.988 1187.27 249.759C1189.69 255.677 1191.77 261.728 1193.5 267.883C1195.58 277.696 1186.34 277.119 1180.11 280.928C1180.11 274.694 1181.27 269.384 1181.38 263.381C1181.38 261.996 1179.77 259.11 1179.07 259.225C1171.34 260.033 1175.27 255.531 1175.84 252.53C1176.18 251.662 1176.56 250.814 1177 249.99C1175.01 248.455 1172.5 247.754 1170 248.034C1167.5 248.314 1165.21 249.554 1163.61 251.491L1162.57 252.991L1160.73 251.721L1163.49 241.909C1157.61 240.639 1155.88 246.527 1151.95 248.951C1151.03 249.644 1150.45 250.913 1149.42 251.491C1148.2 252.032 1146.92 252.42 1145.61 252.645L1148.38 257.032C1149.3 258.302 1150.69 260.38 1151.03 260.726H1167.07L1152.53 273.194C1156.34 282.544 1159.46 290.048 1162.69 297.783L1157.72 302.17L1164.88 303.324C1161.76 309.442 1158.65 315.676 1155.42 321.795C1153.44 326.643 1150.93 331.251 1147.92 335.532C1143.99 340.034 1141.22 345.922 1133.61 347.076C1128.6 348.122 1123.83 350.078 1119.53 352.848C1117.45 354.003 1116.06 356.543 1113.76 358.967L1112.95 353.079C1109.51 352.661 1106.03 353.507 1103.16 355.46C1100.3 357.414 1098.24 360.342 1097.37 363.7C1095.29 373.628 1103.14 379.4 1108.91 385.287L1117.68 383.094L1118.72 384.595C1116.97 386.683 1115.35 388.881 1113.87 391.175C1112.84 392.302 1112.16 393.706 1111.91 395.215C1112.49 404.22 1113.18 412.532 1102.33 417.034C1099.33 418.188 1097.95 423.499 1094.48 426.5V419.92L1076.37 398.679C1075.55 399.606 1074.89 400.658 1074.4 401.796C1074.22 404.331 1073.79 406.843 1073.14 409.299C1068.75 418.304 1074.75 425.923 1076.37 433.888C1077.06 437.236 1082.25 439.314 1084.21 442.662C1086.09 446.295 1087.41 450.185 1088.14 454.206C1089.48 459.016 1090.14 463.99 1090.1 468.983C1086.22 466.23 1082.76 462.924 1079.83 459.17C1077.98 454.651 1076.7 449.92 1076.02 445.086C1075.59 442.159 1074.53 439.361 1072.9 436.89C1070.3 433.719 1068.53 429.942 1067.76 425.907C1066.99 421.872 1067.25 417.709 1068.52 413.802C1070.6 401.103 1064.71 389.905 1062.98 377.207C1058.71 380.785 1057.56 387.019 1050.52 383.325C1054.9 373.512 1049.25 365.778 1043.71 357.812C1042.07 354.62 1040.94 351.193 1040.36 347.653C1035.4 348.692 1030.55 349.501 1026.05 350.655C1024.32 350.655 1021.78 352.271 1021.55 353.426C1019.82 362.776 1010.82 366.471 1006.32 373.512C1003.32 378.13 998.355 381.478 994.777 385.98C993.495 388.878 993.055 392.079 993.508 395.215C994.269 407.816 990.135 420.224 981.968 429.848C976.312 416.878 971.944 403.383 968.927 389.559C965.465 375.937 963.619 361.853 961.311 349.847L956.464 355.85L946.655 347.538L950.809 345.922C945.847 340.496 941.231 334.378 936.038 329.298C928.075 329.298 919.189 329.298 910.303 329.298C901.417 329.298 900.955 327.798 897.955 320.178C896.057 321.173 893.979 321.781 891.844 321.965C889.709 322.149 887.558 321.906 885.518 321.251C883.477 320.596 881.587 319.541 879.958 318.148C878.329 316.754 876.993 315.051 876.029 313.136C875.652 312.436 875.343 311.702 875.105 310.943C875.105 309.789 874.182 308.634 873.605 307.48C869.451 299.514 868.181 299.283 862.065 305.864L873.028 328.952L875.452 322.949C876.259 326.297 876.606 327.913 876.836 329.183C877.067 330.453 877.644 333.685 877.99 335.994C881.683 335.301 886.069 338.649 888.838 333.108C890.954 329.793 893.347 326.665 895.993 323.757C895.992 326.598 896.341 329.429 897.032 332.184C897.642 334.38 899.093 336.247 901.071 337.379C910.88 342.343 912.611 348.923 904.994 357.12C903.743 358.631 902.695 360.3 901.879 362.084C900.955 363.584 900.148 365.316 898.994 366.932C894.995 371.79 889.996 375.727 884.338 378.476C878.106 382.171 872.797 387.596 866.912 391.521C861.137 395.054 855.165 398.253 849.025 401.103C845.678 402.835 844.062 401.103 843.37 397.755C843.011 387.057 840.291 376.571 835.407 367.048C833.092 364.015 831.008 360.812 829.175 357.466C827.948 354.415 826.907 351.293 826.06 348.115C824.444 343.844 822.713 339.688 821.097 335.532C819.482 331.376 816.481 325.258 814.058 320.178C812.557 317.177 810.711 314.291 809.442 312.098L800.094 314.868L799.517 313.021L804.479 309.327L794.67 299.168C795.824 298.36 798.132 295.82 800.556 295.705C806.787 295.705 808.634 291.895 809.788 286.931L815.443 261.88L804.941 266.844C804.941 266.844 804.941 266.844 804.249 266.844C800.094 265.805 793.978 262.573 792.131 264.189C786.361 269.269 783.476 263.381 780.591 261.88C777.706 260.38 776.437 256.224 774.59 253.453L775.398 241.909C771.244 239.485 771.359 239.6 766.512 243.987C765.473 244.91 762.819 243.987 760.05 243.987C761.909 246.567 763.531 249.311 764.896 252.183C765.813 254.003 766.058 256.088 765.589 258.071C764.207 261.178 762.547 264.153 760.627 266.96C756.241 257.147 747.355 249.297 747.24 236.714C747.24 233.943 743.316 230.48 740.316 228.633C735.469 225.747 730.276 223.785 728.776 217.089C728.776 217.089 726.468 217.089 725.775 215.819C724.88 214.587 724.18 213.224 723.698 211.779C717.466 213.395 716.543 216.396 721.044 221.938C723.006 224.131 724.044 226.902 726.006 229.326C727.078 230.913 728.552 232.187 730.276 233.02C736.161 234.29 738.931 239.716 743.432 242.833C743.432 242.833 743.432 243.987 744.009 245.257L736.277 241.909L738.469 249.759L733.507 256.224C736.392 245.372 728.66 241.794 721.967 236.83C718.046 233.42 714.558 229.543 711.581 225.285C709.619 223.092 707.888 220.783 706.157 218.474C703.582 219.954 701.114 221.613 698.771 223.438C697.589 224.818 695.965 225.745 694.176 226.061C692.388 226.376 690.545 226.062 688.962 225.17C685.269 223.669 681.23 223.323 681.576 230.018C681.576 232.212 678.691 234.636 676.96 236.714C674.01 239.584 671.235 242.629 668.651 245.834C667.728 247.104 668.651 249.644 668.651 253.107C665.42 262.111 655.38 263.612 645.571 266.036L641.532 260.726L634.723 261.534C627.914 249.99 637.377 238.446 631.723 226.902C641.532 220.783 652.149 225.632 662.535 224.824C663.227 219.051 667.497 213.279 662.535 207.392C658.419 203.412 654.565 199.17 650.995 194.693H663.343L662.65 188.921C665.101 190.071 667.906 190.207 670.456 189.299C673.006 188.391 675.095 186.513 676.268 184.073C676.268 184.073 678.691 182.11 679.845 180.956L690.693 170.22L704.657 164.563C704.771 162.602 704.771 160.636 704.657 158.676C700.618 150.941 700.502 151.056 709.965 145.862Z" fill="#191B1D"/>
<path d="M166.64 224.939H173.911C171.292 219.58 166.702 215.443 161.101 213.395C152.684 209.122 146.296 201.695 143.329 192.731C142.406 190.538 138.944 189.383 136.982 187.883L135.366 192.385C132.828 186.613 125.557 184.304 131.212 177.377C131.212 177.377 127.519 171.49 126.25 171.721C123.509 171.937 120.753 171.61 118.139 170.758C115.525 169.906 113.104 168.546 111.017 166.757C107.895 165.247 104.601 164.123 101.208 163.409L77.4348 159.138L78.2425 162.716L61.7401 166.988L63.0096 158.329L53.2003 166.41C55.0468 170.22 39.352 183.496 29.5429 186.151L32.8896 189.268V191.23C25.2731 184.535 19.0413 191.23 11.6555 191.23L22.1572 185.689C26.1602 184.004 30.0197 181.997 33.6974 179.686C36.9126 176.722 39.813 173.434 42.3525 169.874H23.4266L22.0418 162.139C11.771 169.527 12.2326 157.29 7.38572 155.213C10.04 144.823 19.6183 146.208 27.004 143.668L25.7346 138.012C14.1944 139.051 12.1172 142.399 0 133.048C2.65425 132.24 4.96234 131.547 7.27038 130.623C9.57842 129.7 11.7711 128.315 13.9637 127.276C18.0028 132.124 21.2339 132.471 27.004 128.43L2.88505 118.848C6.46251 117.463 8.65524 116.77 10.7325 115.731C12.8097 114.693 16.0409 112.73 18.9259 111.691C24.3498 109.382 29.7737 107.304 35.313 105.457C44.3273 103.357 53.7434 103.757 62.5479 106.612C69.7654 107.863 77.047 108.711 84.3588 109.151C95.6286 109.813 106.763 111.948 117.479 115.501C119.942 116.08 122.453 116.428 124.98 116.54C124.98 107.881 131.558 114.808 134.559 112.384C138.381 110.363 142.73 109.557 147.022 110.075L133.52 115.501L134.443 117.348L154.177 108.228L161.101 114.346L165.948 110.421L168.602 114.808C171.718 109.498 176.103 111.229 180.72 112.384C185.336 113.538 193.298 114.693 199.645 115.847C201.723 115.847 203.569 117.001 206.454 117.809L202.415 120.926V122.542C207.386 121.852 212.399 121.505 217.417 121.504C221.85 122.304 226.212 123.462 230.458 124.967L229.765 120.003C234.728 120.003 238.998 120.003 243.267 120.003C251.461 120.003 259.424 124.159 267.848 118.964C269.579 118.04 273.734 121.273 277.773 122.889L285.043 117.001L274.08 108.69C273.156 104.418 275.234 100.839 280.888 100.378C286.543 99.916 291.275 107.073 290.698 111.922L297.737 113.076L296.929 120.234L303.046 113.076L309.508 126.814L320.01 112.153L331.55 114.115V124.967L332.935 126.698L322.318 129.007L325.78 134.433L314.24 127.737C315.624 133.625 312.739 134.779 309.047 134.433C305.535 133.538 301.936 133.034 298.314 132.932L312.739 137.204L302.122 142.052C300.553 142.728 299.109 143.664 297.852 144.823C292.429 151.634 281.465 154.174 282.042 165.371C282.098 166.342 282.364 167.289 282.823 168.146C283.281 169.003 283.921 169.75 284.697 170.335C290.121 171.605 290.467 175.299 290.121 180.148C297.16 176.338 301.661 180.148 308.123 183.38C315.056 186.57 322.187 189.308 329.473 191.577C329.473 196.079 329.473 203.121 335.704 207.161C336.974 207.969 339.282 209.586 339.628 209.239C339.974 208.893 343.667 205.43 343.667 203.583C343.121 199.654 342.193 195.787 340.897 192.038C344.59 188.806 350.707 186.151 351.399 182.226C352.091 178.301 347.937 173.452 345.514 168.373C351.514 164.102 345.514 157.521 346.206 150.941C357.671 149.331 369.31 152.273 378.634 159.138C378.134 160.172 377.848 161.297 377.793 162.445C377.738 163.593 377.915 164.74 378.314 165.818C378.713 166.896 379.325 167.882 380.113 168.718C380.902 169.554 381.851 170.222 382.904 170.682C383.591 171.033 384.332 171.267 385.096 171.374C392.944 173.337 393.751 165.256 396.637 160.638C399.983 165.602 403.561 169.643 406.446 174.26C408.061 177.031 407.369 181.649 409.446 183.611C413.776 186.9 418.413 189.76 423.295 192.154L419.602 194.578C422.467 194.804 425.276 195.506 427.911 196.656C428.853 197.329 429.647 198.188 430.243 199.181C430.838 200.174 431.223 201.28 431.373 202.428C431.218 203.392 430.846 204.308 430.287 205.108C429.727 205.908 428.994 206.57 428.141 207.046C419.285 213.303 408.46 216.134 397.675 215.011C389.943 213.28 384.75 220.206 379.442 225.286C382.562 223.772 385.759 222.423 389.02 221.245C391.513 220.653 394.083 220.458 396.637 220.668C397.214 220.668 398.252 224.016 397.906 224.478C392.944 228.98 394.675 232.674 399.291 236.022C403.907 239.369 407.369 239.947 411.524 233.944C411.734 233.506 412.061 233.135 412.468 232.871C412.875 232.606 413.346 232.458 413.832 232.443L412.331 237.753L415.101 236.137L416.14 237.869L393.751 249.413H392.136L396.752 239.6C389.482 242.794 382.428 246.457 375.633 250.567C373.902 251.722 374.71 256.57 374.364 259.687L376.211 260.611C374.123 261.194 372.004 261.657 369.863 261.996C364.439 261.996 361.324 263.497 360.631 269.962C360.631 273.54 357.054 276.888 354.63 281.506L352.207 272.155C351.821 275.993 351.821 279.861 352.207 283.699C354.746 295.243 354.169 296.744 344.359 302.285C338.589 305.633 331.781 315.792 332.819 320.179C333.858 324.565 336.397 331.723 337.782 338.188C337.993 341.508 337.799 344.842 337.205 348.116H334.089L324.28 322.372L318.74 324.796C313.893 316.485 307.2 321.795 300.738 321.449L303.392 327.451C297.737 326.297 293.236 325.604 288.62 324.45C284.004 323.296 282.735 323.411 280.658 326.99C279.619 328.721 277.311 329.645 275.695 331.03C274.08 332.415 272.002 333.801 271.887 335.301C271.887 346.153 271.887 357.005 271.887 367.856C272.231 371.435 273.593 374.84 275.811 377.669C278.003 380.324 281.927 383.787 284.581 383.441C289.428 382.517 296.122 383.441 297.737 375.706C299.353 367.971 302.122 365.778 311.816 367.279L305.008 396.832C308.158 397.065 311.32 397.065 314.47 396.832C322.779 395.793 326.011 399.487 324.972 407.568C323.933 415.649 321.856 428.001 333.396 434.12C342.744 429.502 342.629 429.617 350.245 437.467C352.315 439.13 354.559 440.562 356.938 441.739C359.131 428.694 370.094 425.346 380.019 419.458C379.211 424.884 375.98 429.848 379.211 434.928L384.173 421.883L397.906 428.463C402.555 429.979 407.566 429.979 412.216 428.463C416.832 427.539 419.255 432.503 422.602 434.812C423.757 435.814 424.801 436.936 425.718 438.16C427.627 440.474 429.752 442.6 432.065 444.509C434.921 446.947 438.327 448.651 441.99 449.473C454.107 450.166 459.992 453.398 462.877 465.173C463.961 469.95 466.536 474.258 470.228 477.474C473.921 480.691 478.54 482.65 483.419 483.067C487.689 484.106 489.651 485.376 488.843 489.416C498.652 489.416 508.577 487.454 515.616 496.92C516.309 497.728 517.347 498.767 518.155 498.767C519.6 498.825 521.02 499.173 522.329 499.788C523.638 500.403 524.811 501.275 525.779 502.35C526.747 503.426 527.49 504.684 527.964 506.051C528.438 507.419 528.635 508.867 528.541 510.311V511.119C528.541 515.968 523.925 521.278 520.925 525.78C517.924 530.282 514.578 533.746 511.462 537.324C511.287 538.162 511.287 539.027 511.462 539.864C510.975 547.601 510.089 555.307 508.807 562.952C507.013 568.475 504.532 573.75 501.422 578.653C500.524 579.804 499.263 580.618 497.844 580.961C491.843 583.27 485.496 585.002 479.726 587.772C477.388 588.85 475.425 590.601 474.089 592.802C472.753 595.003 472.104 597.553 472.225 600.125C470.95 605.787 468.768 611.206 465.762 616.171C464.955 618.134 463.916 619.981 462.531 622.751L461.493 616.517C455.145 629.101 449.952 643.069 432.296 631.294C434.489 635.334 436.219 637.99 437.604 640.76C438.626 642.51 438.92 644.591 438.423 646.555C437.927 648.52 436.68 650.211 434.95 651.265C434.068 651.712 433.139 652.061 432.18 652.304C427.564 653.574 422.602 654.151 417.64 655.075C417.64 664.079 416.255 665.696 406.1 662.579C411.062 674.123 404.715 681.165 395.367 686.475C396.651 687.859 398.083 689.097 399.637 690.169C404.599 692.94 404.599 693.748 399.637 697.673C394.675 701.598 391.905 703.445 391.213 707.024C390.637 711.731 391.785 716.488 394.444 720.415C396.406 723.416 401.022 724.686 405.176 727.226C398.757 728.758 392.142 729.303 385.558 728.842C378.865 727 372.801 723.368 368.017 718.337C365.322 713.999 363.847 709.013 363.747 703.907C362.824 698.827 362.131 693.632 368.594 690.862H363.747L369.286 676.778H370.556L371.594 682.55H372.402L374.941 667.773C368.94 667.081 368.94 663.502 371.017 659.231C371.017 658.423 372.518 657.499 372.287 657.153C368.132 647.918 376.441 641.568 377.595 634.065C378.749 626.561 379.211 618.711 380.25 610.976C381.634 601.164 383.365 591.351 384.52 581.192C385.559 575.506 385.559 569.678 384.52 563.991C383.828 561.814 382.677 559.811 381.144 558.118C379.611 556.425 377.731 555.082 375.633 554.179C362.939 549.677 359.477 538.132 354.515 528.089C351.73 519.634 347.342 511.794 341.59 505.001C340.272 503.662 339.533 501.858 339.533 499.979C339.533 498.1 340.272 496.296 341.59 494.957C343.047 493.484 344.29 491.813 345.283 489.993C340.667 488.493 339.397 485.376 341.59 481.451C344.437 476.121 347.758 471.06 351.515 466.328C352.819 465.162 353.841 463.716 354.504 462.097C355.167 460.479 355.454 458.731 355.343 456.985C355.232 455.239 354.725 453.542 353.862 452.02C352.999 450.499 351.802 449.194 350.36 448.203C348.056 445.488 346.222 442.405 344.937 439.084L342.513 434.466H340.551L336.974 443.586L333.396 440.931C332.246 439.92 330.915 439.137 329.473 438.622C326.703 437.929 323.933 437.929 324.049 434.004C317.586 432.273 317.009 426.5 314.817 421.536C313.667 418.798 311.851 416.392 309.532 414.536C307.214 412.681 304.468 411.436 301.545 410.916C296.149 409.342 291.512 405.853 288.505 401.103C285.735 397.871 283.081 395.677 278.696 398.91C277.68 399.369 276.579 399.606 275.464 399.606C274.35 399.606 273.249 399.369 272.233 398.91C262.77 393.484 253.423 387.366 244.421 381.824C243.416 381.066 242.593 380.091 242.014 378.972C241.435 377.854 241.114 376.619 241.075 375.36C241.597 372.313 241.433 369.187 240.594 366.211C239.756 363.236 238.264 360.485 236.228 358.159C231.612 351.579 226.419 345.229 222.38 338.534C218.341 331.838 216.033 326.182 212.455 320.294C211.186 318.216 208.416 317.062 206.223 315.33L204.377 316.715C206.339 320.871 208.416 325.027 210.493 329.299L222.033 351.002C222.841 352.618 223.88 354.003 224.572 355.619C225.265 357.235 226.073 359.66 226.88 361.738L224.226 362.892C221.719 357.029 218.788 351.358 215.455 345.922C213.032 343.117 210.191 340.703 207.031 338.765C207.031 334.955 208.301 331.954 207.031 331.146C201.79 324.572 197.871 317.045 195.491 308.981C194.568 307.249 193.068 304.825 191.337 304.363C181.527 301.939 179.796 292.819 175.988 285.777C173.929 282.851 172.261 279.669 171.026 276.311C168.572 267.882 167.942 259.027 169.179 250.336C169.107 241.811 168.257 233.31 166.64 224.939Z" fill="#191B1D"/>
<path d="M747.791 633.949C745.657 632.951 743.905 631.284 742.802 629.201C741.698 627.118 741.303 624.733 741.675 622.405C741.434 616.948 739.123 611.787 735.213 607.975C729.802 601.745 726.92 593.714 727.134 585.464C726.244 577.588 723.343 570.074 718.71 563.645C716.324 558.834 715.3 553.462 715.748 548.111C716.195 542.759 718.097 537.632 721.249 533.284C723.326 529.013 725.173 526.011 722.057 521.74C721.348 520.645 721.024 519.345 721.133 518.046C721.486 513.304 720.858 508.54 719.289 504.052C717.721 499.563 715.245 495.446 712.017 491.956C708.748 488.703 706.529 484.545 705.644 480.018C704.76 475.492 705.251 470.804 707.054 466.559C707.656 463.372 707.038 460.076 705.323 457.324C704.472 456.428 703.424 455.742 702.262 455.321C701.101 454.901 699.857 454.756 698.63 454.899C693.783 454.899 690.667 454.899 688.821 449.935C686.974 444.971 680.974 446.241 676.704 447.165C672.434 448.088 668.279 450.282 664.009 451.667C662.001 452.152 659.955 452.461 657.893 452.59C652.468 452.607 647.058 453.149 641.737 454.207C640.123 454.889 638.352 455.111 636.62 454.846C634.888 454.581 633.263 453.84 631.928 452.706C626.72 448.899 621.784 444.733 617.156 440.238C612.929 435.093 609.072 429.653 605.616 423.961C604.808 422.922 603.308 422.229 602.385 421.075C601.462 419.92 599.961 418.42 599.961 417.034C599.113 410.414 599.663 403.688 601.577 397.294C603.48 392.472 603.48 387.108 601.577 382.286C597.423 375.937 601.577 372.128 603.77 367.625C606.886 361.276 610.578 355.273 614.271 349.27C615.212 347.936 616.607 346.992 618.195 346.615C624.427 344.652 628.696 341.651 628.581 334.032C628.622 331.627 629.322 329.279 630.604 327.244C631.886 325.208 633.701 323.563 635.851 322.488C639.608 319.519 642.913 316.019 645.66 312.098C652.7 317.755 660.432 314.984 668.048 312.098C672.938 310.12 678.055 308.762 683.282 308.057C690.635 307.155 698.031 306.654 705.439 306.557C708.317 306.657 711.177 307.044 713.978 307.711C712.478 312.098 710.978 316.254 709.362 321.218C712.824 327.682 720.903 324.335 727.25 326.99C727.942 326.99 729.442 326.99 729.442 326.99C730.943 334.493 738.559 332.646 742.944 335.879C747.33 339.111 748.715 336.572 749.061 332.3C749.12 330.401 749.908 328.597 751.262 327.264C752.616 325.931 754.431 325.172 756.331 325.143C757.618 325.243 758.873 325.596 760.024 326.182C766.42 328.846 772.971 331.121 779.642 332.993C783.073 333.572 786.591 333.334 789.913 332.3C794.298 331.03 797.53 330.569 799.376 336.225C801.937 343.86 804.942 351.338 808.377 358.621C811.147 364.508 816.571 370.165 817.148 375.706C819.537 384.39 822.946 392.76 827.303 400.642C828.338 403.12 829.869 405.36 831.804 407.222C835.266 410.685 839.305 413.571 842.421 417.381C844.036 419.343 843.806 422.806 845.306 425.231C845.836 425.948 846.534 426.523 847.34 426.905C848.145 427.288 849.032 427.466 849.922 427.424C858.346 425.577 866.655 423.268 876.003 420.844C875.788 425.056 874.972 429.215 873.579 433.196C867.846 446.887 859.271 459.203 848.422 469.329C839.727 478.183 832.203 488.115 826.034 498.882C825.341 499.806 825.111 502.115 826.034 502.461C830.535 506.155 827.649 511.004 828.457 515.275C829.265 519.546 831.688 522.548 832.265 526.819C833.606 532.411 833.919 538.201 833.189 543.905C832.381 547.599 828.226 550.947 825.111 553.717C820.264 558.219 815.301 562.26 810.454 566.647C809.647 567.224 809.877 569.302 810.454 570.572C811.031 571.842 812.07 575.074 812.763 577.267C813.711 579.703 813.662 582.414 812.625 584.813C811.588 587.212 809.647 589.105 807.223 590.081C805.146 591.12 803.184 592.39 802.261 592.852C802.261 597.008 802.953 600.587 801.569 602.665C795.83 615.44 785.487 625.581 772.603 631.063C766.774 632.135 760.871 632.752 754.946 632.91C752.529 632.973 750.127 633.322 747.791 633.949Z" fill="#191B1D"/>
<path d="M440.389 116.539L433.465 110.998L448.814 103.148V96.6833L436.004 91.8348V89.8723L449.391 91.7193L439.235 85.1392C433.004 88.8333 431.042 87.3325 430.811 77.9818H435.196C432.427 73.9413 430.119 70.0163 427.234 66.4376C423.82 61.3994 418.901 57.5699 413.18 55.4966C407.46 53.4232 401.23 53.2121 395.383 54.8934C393.03 55.7977 390.513 56.1913 387.997 56.0479C385.343 56.0479 380.611 58.4721 380.265 52.1229C380.265 51.3148 375.303 50.7376 372.302 50.1604V47.8515L385.227 47.1589L363.301 40.925C364.866 39.8834 366.528 38.9943 368.263 38.2699C374.61 37.2309 381.073 36.6537 387.42 35.3839C391.228 34.6912 395.96 34.5758 395.96 28.3419H386.727V26.1485L407.961 20.6073V16.6823C407.961 16.6823 408.885 16.6823 409.231 16.6823C415.347 18.8757 420.771 14.258 426.195 14.1425C427.902 14.0628 429.605 14.3632 431.182 15.022C432.758 15.6808 434.169 16.6816 435.312 17.9521C436.927 19.3374 440.274 12.6419 444.659 16.4514C445.467 17.1441 447.544 16.4514 449.506 16.4514L447.083 12.1801L469.24 17.8367V15.8742C467.376 15.7407 465.545 15.312 463.816 14.6043C463.189 14.3361 462.632 13.9251 462.192 13.404C461.751 12.883 461.438 12.2662 461.277 11.6028C461.277 10.7947 463.008 9.17861 464.047 9.06317C469.586 9.06317 475.587 9.0631 480.895 7.90868C484.713 7.22839 488.566 6.76594 492.436 6.52344C508.015 6.52344 523.594 6.52344 539.173 7.7933C546.258 8.92061 553.215 10.7378 559.946 13.219L543.213 15.9896V18.6448H547.829C550.576 18.5083 553.313 18.1999 556.022 17.7213L552.791 23.0316C559.926 22.1314 566.985 20.7037 573.909 18.7602C577.733 17.3127 581.82 16.6977 585.9 16.9565C589.98 17.2153 593.957 18.3419 597.567 20.2609C584.065 26.7257 569.524 30.8816 560.869 43.3493C563.964 43.1155 567.076 43.349 570.101 44.042C572.063 44.8501 572.986 47.967 574.717 50.6221H565.37C565.37 54.4317 574.602 56.9714 567.216 62.1663L571.371 66.5531L561.792 67.9384L566.178 72.9024H551.406C548.521 76.712 549.098 79.7134 554.637 81.9068C555.82 82.2398 556.925 82.8026 557.89 83.5631C558.855 84.3236 559.66 85.2669 560.26 86.339C560.861 87.4112 561.244 88.5911 561.388 89.8114C561.532 91.0317 561.434 92.2685 561.1 93.451L548.175 88.1407L543.789 93.451L560.061 95.0672C549.122 102.554 536.603 107.414 523.479 109.266C521.286 109.266 518.632 112.037 517.132 114.115C514.871 118.12 511.467 121.358 507.355 123.415C503.243 125.472 498.61 126.253 494.051 125.659C492.666 125.659 489.551 129.007 489.551 130.623C489.964 133.112 489.599 135.669 488.504 137.942C487.409 140.215 485.638 142.094 483.434 143.322C482.742 143.322 482.396 144.823 482.165 145.746C481.126 150.364 479.741 155.097 478.934 159.83C478.126 164.563 475.472 163.409 472.586 162.139C468.628 160.758 464.771 159.099 461.046 157.175C458.532 155.775 456.425 153.746 454.93 151.287C449.621 141.359 444.659 131.547 439.928 121.734C439.751 119.989 439.908 118.226 440.389 116.539Z" fill="#191B1D"/>
<path d="M1250.51 538.594C1252.71 540.177 1254.65 542.084 1256.28 544.251C1258.11 546.833 1259.18 549.869 1259.4 553.024C1259.4 560.297 1264.36 562.952 1268.63 566.531C1269.44 567.131 1270.18 567.829 1270.82 568.609C1272.39 572.208 1274.85 575.347 1277.98 577.729C1282.91 582.291 1286.57 588.06 1288.59 594.468C1290.24 598.899 1290.85 603.651 1290.37 608.355C1289.89 613.06 1288.33 617.59 1285.82 621.597C1281.12 628.66 1277.65 636.466 1275.55 644.685C1270.19 648.202 1263.96 650.16 1257.55 650.342L1254.2 648.495C1252.66 649.463 1250.94 650.116 1249.15 650.414C1247.35 650.712 1245.51 650.649 1243.74 650.23C1241.97 649.811 1240.3 649.044 1238.82 647.973C1237.35 646.902 1236.11 645.549 1235.16 643.992C1234.59 643.09 1234.12 642.121 1233.78 641.106C1231.97 637.872 1229.8 634.851 1227.31 632.102L1225.01 633.718L1226.85 624.136L1218.08 634.064C1215.43 629.562 1213.81 624.136 1210.23 621.828C1205.64 619.252 1200.36 618.163 1195.12 618.711C1187.94 619.311 1180.94 621.229 1174.46 624.367C1170.06 627.646 1164.71 629.39 1159.23 629.331C1155.08 629.401 1151.06 630.729 1147.69 633.141C1145.94 634.373 1143.8 634.923 1141.68 634.689C1139.55 634.456 1137.58 633.453 1136.15 631.871C1135.23 630.387 1134.87 628.632 1135.11 626.907C1135.11 624.136 1136.84 621.019 1136.26 618.48C1134.67 612.956 1132.78 607.522 1130.61 602.202C1129.57 599.432 1127.49 596.661 1130.61 593.66C1130.61 593.66 1129.68 591.12 1129.45 589.735C1129.45 585.233 1126.8 579.461 1128.88 576.575C1130.95 573.688 1137.53 571.38 1142.03 568.724C1148.49 565.03 1158.77 567.801 1161.65 557.988C1161.65 556.488 1161.65 554.987 1162.57 553.602L1165.11 550.138L1167.42 551.985C1170.67 547.879 1174.22 544.02 1178.04 540.441C1182.42 536.516 1185.08 538.94 1186.69 545.751C1188.96 542.338 1191.43 539.061 1194.08 535.939C1196.7 533.845 1199.48 531.953 1202.39 530.282C1203.4 529.366 1204.32 528.361 1205.16 527.281L1222.01 531.321C1215.54 541.249 1215.54 541.249 1225.35 548.522L1230.89 552.332L1237.93 556.719L1240.93 539.864C1241.85 534.669 1242.66 529.128 1243.47 523.702H1245.66L1250.51 538.594Z" fill="#191B1D"/>
<path d="M352.901 103.841C353.594 96.4529 346.554 96.6838 343.092 93.1051C341.361 97.0301 340.323 101.186 335.476 96.7992C334.552 95.9911 332.244 96.7992 330.629 96.7992C322.666 95.9911 314.819 95.1829 307.548 94.0285C305.933 94.0285 304.663 92.2969 302.586 91.1425L309.626 88.8337C302.932 87.5638 297.277 87.2175 300.163 79.7138C301.321 76.3336 303.76 73.5439 306.955 71.9459C310.149 70.348 313.844 70.0697 317.242 71.1711C315.857 74.1726 313.203 77.405 313.434 80.1756C313.665 82.9462 316.781 86.0631 318.858 88.7182C316.781 75.0961 317.819 72.6718 327.628 71.402C332.475 70.7093 334.899 73.5954 335.36 82.0227C339.373 79.6401 344.013 78.5302 348.669 78.8393C353.325 79.1484 357.778 80.8621 361.441 83.7542C363.469 84.7092 365.665 85.2582 367.904 85.3704H369.865C374.3 87.3597 378.582 89.675 382.675 92.297C385.668 95.0995 388.374 98.1932 390.753 101.532L384.983 102.571L384.175 104.072L410.141 118.04L400.332 130.508L387.407 118.964L384.868 125.082C389.83 129.585 398.831 132.932 396.408 144.246L389.022 143.553L392.253 151.172C383.137 147.363 374.135 147.132 368.365 138.935C366.681 136.729 364.368 135.084 361.731 134.219C359.094 133.353 356.257 133.307 353.594 134.087C351.123 134.108 348.666 133.718 346.323 132.932C346.323 130.854 347.016 128.892 347.593 126.929C347.811 125.656 348.282 124.439 348.978 123.351C350.027 121.757 351.454 120.448 353.132 119.541C353.825 119.541 355.44 120.926 356.594 121.735L352.324 127.276L361.672 126.237V124.621L358.556 123.582C360.056 118.618 369.288 118.271 366.057 111.114C365.094 108.529 363.238 106.375 360.825 105.041C358.412 103.707 355.601 103.281 352.901 103.841Z" fill="#191B1D"/>
<path d="M311.38 23.2623C305.379 26.7255 299.84 20.838 293.262 15.9895C302.411 14.3702 311.669 13.4439 320.958 13.2188C329.334 12.986 337.624 11.4675 345.539 8.71659C351.702 7.84952 357.956 7.84952 364.119 8.71659C375.659 8.71659 387.199 9.4093 398.739 10.2174C402.322 10.9699 405.807 12.1319 409.125 13.6806C406.702 14.9504 404.625 16.2203 402.547 17.1439C392.738 21.4152 382.698 25.6865 372.427 29.727C370.333 30.6747 368.121 31.3349 365.849 31.6895C363.138 31.8639 360.574 32.9901 358.611 34.8696C356.648 36.7491 355.411 39.2613 355.117 41.9638L340.923 47.8513L347.039 51.4301C341.731 52.2381 337.576 57.0867 332.614 51.4301C332.614 51.4301 330.19 51.4301 328.921 51.4301C319.118 53.3596 309 52.9642 299.378 50.2757L309.187 47.3896L308.033 44.1572L316.919 44.8499L317.496 43.3491L309.764 39.655C314.38 32.4976 321.304 38.616 326.613 37.1152L312.765 28.8035L314.496 27.4182C322.805 30.6505 330.421 25.6865 339.076 25.5711C330.652 20.0299 321.304 27.4182 311.38 23.2623Z" fill="#191B1D"/>
<path d="M194.474 94.6051L212.361 93.4507V92.2963C208.668 92.2963 204.975 91.4882 200.82 91.3727C196.666 91.2573 193.55 91.3727 189.973 91.3727V89.2948L197.359 86.5242L187.203 83.9845C190.665 75.7881 197.936 74.7491 206.014 73.5947V77.9815H208.091C211.438 74.7491 214.323 75.9036 217.438 78.5587C220.554 81.2139 221.824 73.7102 224.94 77.6352C226.695 80.0841 228.839 82.229 231.287 83.9845L228.979 73.7102H238.326C239.801 78.8888 242.017 83.8268 244.904 88.3712C247.905 92.0654 253.328 93.6816 257.252 97.4911L251.251 98.0684L253.905 102.917C250.429 103.494 246.881 103.494 243.404 102.917C235.929 101.197 228.095 102.009 221.131 105.226C217.092 106.38 211.322 108.574 208.206 101.993C208.206 101.07 205.552 101.07 204.283 100.723L193.896 97.722L194.474 94.6051Z" fill="#191B1D"/>
<path d="M1267.48 504.192L1262.52 507.655L1277.29 523.125C1274.01 523.042 1270.8 522.171 1267.93 520.583C1265.05 518.996 1262.61 516.739 1260.79 514.005C1260.13 512.46 1258.89 511.234 1257.34 510.588C1255.79 509.941 1254.04 509.925 1252.48 510.541C1251.61 510.917 1250.84 511.47 1250.2 512.167C1249.57 512.863 1249.08 513.686 1248.79 514.582C1248.29 515.925 1247.29 517.019 1245.99 517.625C1244.69 518.23 1243.21 518.298 1241.86 517.814C1241.15 517.542 1240.49 517.152 1239.9 516.66C1235.98 512.042 1231.71 512.158 1225.25 514.235L1230.55 506.847C1230.11 504.463 1228.98 502.261 1227.3 500.517C1225.62 498.772 1223.46 497.561 1221.09 497.035C1216.42 495.945 1211.83 494.517 1207.36 492.763C1205.97 492.186 1205.17 489.993 1203.9 488.376L1208.74 486.068L1196.39 480.18C1198.99 479.149 1201.65 478.3 1204.36 477.641C1205.06 477.405 1205.81 477.311 1206.55 477.364C1207.29 477.416 1208.01 477.614 1208.68 477.947C1209.34 478.279 1209.93 478.739 1210.42 479.301C1210.91 479.862 1211.28 480.514 1211.51 481.219C1211.51 481.219 1211.51 481.912 1211.51 482.143C1212.32 485.129 1213.32 488.06 1214.51 490.916H1216.59C1217.43 489.428 1218.48 488.068 1219.71 486.876C1223.51 483.528 1226.75 480.526 1232.75 485.144C1238.75 489.762 1244.29 488.492 1250.06 491.378C1256.18 495.201 1262.01 499.485 1267.48 504.192Z" fill="#191B1D"/>
<path d="M1110.74 466.097L1116.86 468.175L1142.94 443.586L1150.67 451.321C1143.05 458.593 1142.71 463.557 1149.86 471.061C1146.29 473.657 1143.49 477.178 1141.76 481.245C1140.03 485.312 1139.44 489.773 1140.05 494.149L1115.36 489.301C1114.32 481.335 1107.63 474.986 1110.74 466.097Z" fill="#191B1D"/>
<path d="M847.413 548.522C860.338 549.099 861.03 536.978 868.185 532.014C870.195 533.826 871.504 536.287 871.883 538.967C872.263 541.647 871.689 544.375 870.263 546.675C869.844 547.623 869.609 548.641 869.57 549.676C866.108 562.029 862.877 574.265 859.069 586.618C858.769 587.515 858.296 588.344 857.674 589.057C857.053 589.769 856.297 590.352 855.449 590.77C854.601 591.189 853.679 591.436 852.735 591.495C851.792 591.555 850.846 591.428 849.952 591.12C849.022 590.777 848.162 590.269 847.413 589.619C845.549 587.14 844.366 584.216 843.981 581.138C843.596 578.059 844.024 574.934 845.22 572.072C846.564 568.37 847.266 564.466 847.298 560.528C847.644 556.603 847.413 552.793 847.413 548.522Z" fill="#191B1D"/>
<path d="M654.808 181.186L649.499 179.57V171.836C649.499 170.912 650.884 169.411 651.115 169.527C654.346 170.912 655.961 168.603 655.615 166.41C655.269 164.216 652.038 163.177 650.076 161.561C648.114 159.945 648.807 161.561 647.768 161.561L648.576 157.521C642.921 152.21 640.728 148.285 642.229 145.977C645.46 141.359 652.615 138.588 655.731 140.551C658.847 142.513 660.578 146.323 657.116 153.019L671.079 172.297C672.364 172.495 673.565 173.055 674.541 173.914C674.541 174.606 673.503 176.915 672.926 178.416L670.848 184.419L645.229 188.459L654.808 181.186Z" fill="#191B1D"/>
<path d="M1096.8 501.768L1089.53 501.191C1083.99 493.226 1077.99 484.106 1071.41 475.217C1064.83 466.328 1059.87 458.362 1052.71 449.127C1065.99 450.628 1071.06 460.671 1079.37 467.136C1084.96 471.663 1089.53 477.33 1092.76 483.759C1093.8 485.376 1096.8 485.837 1098.53 486.761L1096.68 501.999L1096.8 501.768Z" fill="#191B1D"/>
<path d="M901.768 71.4014C897.162 72.1485 892.449 71.8961 887.949 70.6612C883.45 69.4262 879.268 67.2378 875.688 64.244C881.165 59.7081 886.295 54.7688 891.036 49.4675C896.521 44.0203 903.671 40.566 911.347 39.6549C919.209 38.1354 927.143 37.018 935.119 36.3071C938.697 35.499 942.274 34.4601 945.852 33.3057L946.891 35.7299C945.222 37.1214 943.303 38.1795 941.236 38.8468C933.796 39.7955 926.43 41.2614 919.194 43.2337C909.666 46.6018 901.19 52.4138 894.613 60.0881C893.69 61.2425 894.613 64.9366 895.652 66.4374C897.418 68.403 899.482 70.0782 901.768 71.4014Z" fill="#191B1D"/>
<path d="M561.994 137.203L552.878 134.548L561.071 130.277H551.954L551.031 129.122L559.571 124.158L558.879 122.081L563.726 128.43L583.459 123.466V121.388C586.919 123.926 590.024 126.915 592.691 130.277C595.461 135.241 589.806 136.626 587.267 138.704C583.812 141.199 579.886 142.966 575.727 143.899C573.221 144.476 570.617 144.476 568.111 143.899C564.201 142.965 560.348 141.809 556.57 140.436L561.994 137.203Z" fill="#191B1D"/>
<path d="M1215.06 276.888L1199.37 280.697C1204.1 272.963 1206.64 271.808 1218.41 271.808C1219.33 270.077 1220.49 268.345 1221.29 266.498C1221.83 265.374 1222.29 264.218 1222.68 263.035C1225.22 263.035 1228.22 263.035 1228.56 263.035C1230.87 258.186 1232.72 253.222 1234.56 248.258C1235.83 245.141 1234.56 240.293 1240.57 240.524C1242.25 242.945 1243.16 245.826 1243.16 248.778C1243.16 251.73 1242.25 254.61 1240.57 257.032C1238.71 260.867 1238.03 265.163 1238.6 269.384C1239.3 276.195 1233.3 276.195 1230.41 277.003C1225.1 278.389 1220.6 279.774 1218.87 285.892H1216.91L1215.06 276.888Z" fill="#191B1D"/>
<path d="M165.712 65.2826C177.483 65.0028 189.21 66.8406 200.332 70.7084L184.291 80.5209C179.56 83.5224 176.098 86.4085 172.751 88.7173L161.211 81.4445C163.288 77.1731 169.751 73.5944 165.712 65.2826Z" fill="#191B1D"/>
<path d="M284.812 36.7695L288.274 33.7681L274.426 31.1129C277.08 24.0709 280.311 20.1459 287.005 21.3003C288.718 21.7437 290.381 22.3626 291.967 23.1474C293.834 23.9464 295.825 24.4152 297.852 24.5327C300.622 27.3033 302.815 31.3437 307.2 27.6496L313.201 32.4982C306.277 42.0799 297.737 43.4651 284.812 36.7695Z" fill="#191B1D"/>
<path d="M712.82 18.6447L733.593 20.3764L731.169 15.8741L765.79 29.8426V32.1515H754.25C753.442 30.4198 753.211 28.4573 752.172 27.7646C751.493 27.4198 750.742 27.2401 749.98 27.2401C749.218 27.2401 748.467 27.4198 747.787 27.7646C744.094 30.1889 740.632 33.1904 736.247 36.5382L726.322 33.9985L730.592 31.8051H724.361V30.6507L732.323 27.8801V26.2639C729.001 27.296 725.529 27.7642 722.053 27.6492C718.739 26.1128 715.699 24.0462 713.051 21.5308L712.82 18.6447Z" fill="#191B1D"/>
<path d="M289.446 52.3539L294.293 51.084V54.4318C308.602 64.3598 324.412 54.4318 339.415 59.3958C338.6 61.7965 336.867 63.7763 334.596 64.9014C332.325 66.0266 329.7 66.2054 327.298 65.3988H326.259C324.265 65.1688 322.252 65.1688 320.258 65.3988C311.477 65.5525 302.695 65.2442 293.946 64.4752C292.562 64.4752 290.946 61.5892 290.138 59.6267C289.622 57.2381 289.39 54.797 289.446 52.3539Z" fill="#191B1D"/>
<path d="M199.636 58.0103H197.674H195.943C195.366 58.0103 195.943 57.0868 195.943 56.8559C202.29 48.775 209.099 53.6235 215.677 55.9324C218.562 56.9713 221.332 58.0103 225.486 59.7419L222.024 51.8919L226.063 49.1212C226.756 49.1212 227.333 49.9293 227.563 50.3911C228.948 53.8544 229.987 57.6639 235.295 54.8933C235.988 54.8933 238.757 56.0478 239.104 57.0867C239.105 57.861 238.916 58.6238 238.554 59.3081C238.192 59.9924 237.667 60.5775 237.026 61.0118C227.217 62.8589 217.408 64.3595 207.599 65.9757C207.599 65.9757 206.676 65.2831 205.406 64.1287L215.215 61.589V60.0883L193.289 61.9353V60.8963L199.867 58.4721L199.636 58.0103Z" fill="#191B1D"/>
<path d="M1341.79 684.512L1368.91 661.424C1370.09 661.896 1371.18 662.559 1372.14 663.386C1373.06 664.195 1374.1 666.388 1373.76 666.734C1370.87 669.851 1370.75 675.392 1365.45 676.547C1364.24 676.935 1363.18 677.704 1362.45 678.74C1354.37 688.784 1354.37 688.784 1341.79 684.512Z" fill="#191B1D"/>
<path d="M1161.32 483.99L1166.28 494.38L1162.13 497.497L1157.16 487.684C1157.16 498.42 1157.16 499.228 1153.47 501.422C1152.66 497.497 1151.74 493.572 1150.93 489.878H1149.55C1151.62 483.067 1153.7 476.371 1155.78 469.329C1162.13 468.405 1169.51 475.447 1175.4 466.212C1173.32 473.023 1172.63 473.485 1167.2 473.139C1164.26 472.678 1161.26 472.678 1158.32 473.139C1152.55 475.101 1156.36 478.102 1157.51 480.642L1167.9 477.179L1168.47 478.564L1161.32 483.99Z" fill="#191B1D"/>
<path d="M627.35 177.492V167.68C629.611 165.716 631.768 163.635 633.812 161.446C637.275 157.521 640.737 160.176 643.737 161.446C646.738 162.716 646.16 165.371 643.16 167.218C643.16 167.218 642.468 168.488 642.468 169.296C642.468 170.104 643.16 175.645 642.468 176.223C638.206 178.348 633.715 179.975 629.081 181.071C628.158 181.071 626.888 179.455 625.734 178.531L627.35 177.492Z" fill="#191B1D"/>
<path d="M272.334 71.4016L268.064 74.8649L274.296 77.6355C276.143 84.2157 269.334 83.9848 266.68 86.6399C266.68 86.6399 263.218 84.6775 261.371 83.6385L250.523 77.4047V75.4422L259.986 77.0583L255.024 71.8634C257.272 69.5306 260.347 68.1748 263.585 68.0884C266.823 68.0021 269.965 69.192 272.334 71.4016Z" fill="#191B1D"/>
<path d="M1252.21 193.654H1246.79C1247.36 199.196 1247.94 204.621 1248.52 209.585H1243.21C1246.67 194.924 1238.59 179.109 1247.02 162.716C1248.86 174.029 1250.48 183.842 1252.21 193.654Z" fill="#191B1D"/>
<path d="M1096.69 501.999C1100.45 503.277 1104.31 504.242 1108.23 504.886C1114.34 505.578 1120.46 505.578 1126.69 505.924C1128.21 505.785 1129.72 506.194 1130.96 507.079L1127.27 509.041L1136.85 512.851V514.352C1132.06 514.367 1127.27 514.02 1122.54 513.313C1115.13 512.296 1107.8 510.753 1100.61 508.695C1099.35 508.393 1098.25 507.607 1097.56 506.506C1096.87 505.405 1096.64 504.077 1096.92 502.807C1096.87 502.463 1096.87 502.114 1096.92 501.769L1096.69 501.999Z" fill="#191B1D"/>
<path d="M1239.64 232.558L1236.76 238.908C1234.22 230.942 1235.37 228.287 1240.79 228.172L1242.64 214.665C1247.6 217.551 1248.76 225.517 1256.26 222.977L1257.41 228.633L1247.03 234.636L1239.64 232.558Z" fill="#191B1D"/>
<path d="M1236.77 47.1593C1233.48 47.0417 1230.2 46.6946 1226.96 46.1204C1225.92 46.1204 1224.3 43.6961 1224.53 42.7725C1224.76 41.849 1226.5 40.3483 1227.77 39.5402C1228.17 39.3687 1228.6 39.2803 1229.03 39.2803C1229.47 39.2803 1229.9 39.3687 1230.3 39.5402C1237.57 40.635 1244.96 40.635 1252.23 39.5402C1253.62 39.5402 1255 41.3872 1256.27 42.3108C1255.12 43.3497 1254.08 45.3122 1252.69 45.5431C1247.38 46.3512 1242.19 46.6975 1236.77 47.1593Z" fill="#191B1D"/>
<path d="M1391.99 647.109C1391.3 648.842 1390.45 650.505 1389.45 652.073C1386.45 656.229 1383.21 660.27 1379.98 663.617C1379.89 663.719 1379.77 663.799 1379.64 663.854C1379.51 663.909 1379.37 663.938 1379.23 663.938C1379.09 663.938 1378.95 663.909 1378.83 663.854C1378.7 663.799 1378.58 663.719 1378.48 663.617C1378.37 663.32 1378.37 662.991 1378.48 662.694L1373.87 653.689L1378.02 642.838C1382.18 640.875 1385.29 652.881 1391.87 644.57L1391.99 647.109Z" fill="#191B1D"/>
<path d="M253.42 55.9324V52.0073L260.806 55.9324L259.075 51.661C261.988 51.3147 264.932 51.3147 267.845 51.661C268.884 51.661 270.153 55.0088 269.922 56.625C269.692 58.2412 268.307 62.3971 266.807 62.628C265.306 62.8589 261.96 61.1272 259.536 60.3191C257.113 59.511 255.959 59.511 254.228 59.0493C252.409 58.6867 250.631 58.1453 248.919 57.4331C247.192 56.3446 245.535 55.1494 243.957 53.8544C244.765 52.9309 245.919 51.3147 246.15 51.4302C248.068 52.4467 249.884 53.6451 251.574 55.0088C251.975 55.4268 252.323 55.892 252.612 56.3942L253.42 55.9324Z" fill="#191B1D"/>
<path d="M323.59 376.975C325.527 373.676 328.594 371.191 332.223 369.982C335.851 368.772 339.795 368.919 343.324 370.395C351.056 374.32 358.557 378.707 367.212 383.325L355.672 384.71C353.133 381.593 351.517 378.476 348.978 377.091C344.377 374.621 339.377 372.98 334.207 372.242C330.86 372.011 327.283 375.128 323.59 376.975Z" fill="#191B1D"/>
<path d="M1155.52 389.443C1164.3 392.099 1165.8 396.024 1162.45 400.988C1159.1 405.952 1160.37 408.376 1166.49 409.646C1168.34 410.139 1170.15 410.757 1171.91 411.493L1169.83 415.995C1165.8 412.185 1159.1 412.993 1155.06 407.683C1151.02 402.373 1159.91 396.832 1155.52 389.443Z" fill="#191B1D"/>
<path d="M297.058 69.6697C296.986 70.7833 296.69 71.871 296.189 72.868C295.688 73.8649 294.991 74.7507 294.14 75.4725C293.29 76.1943 292.302 76.7374 291.237 77.0692C290.172 77.4011 289.051 77.5151 287.941 77.4043C287.133 77.4043 285.633 77.4042 285.518 78.0969C284.825 83.0609 281.132 81.3293 280.094 79.3668C279.055 77.4042 277.786 72.2094 279.286 70.4778C281.988 68.6129 285.242 67.7177 288.518 67.9381C291.424 68.1673 294.292 68.7488 297.058 69.6697Z" fill="#191B1D"/>
<path d="M1176.51 443.586L1177.44 448.204L1175.59 449.243L1168.67 440.238L1163.36 441.277L1162.55 439.892L1179.17 430.541L1180.32 443.586H1176.51Z" fill="#191B1D"/>
<path d="M1064.45 14.4892L1036.99 20.8386C1036.99 19.1069 1036.99 16.6827 1037.91 15.99C1041.64 13.033 1046.19 11.3016 1050.95 11.0329C1055.7 10.7642 1060.41 11.9714 1064.45 14.4892Z" fill="#191B1D"/>
<path d="M173.434 53.9701C177.596 51.396 181.957 49.1571 186.474 47.2745C190.939 46.142 195.496 45.408 200.091 45.0811L201.13 47.2745C199.034 49.3858 196.798 51.3529 194.437 53.162C193.223 52.4009 192.065 51.5521 190.975 50.6223C186.589 55.9326 175.626 58.0106 173.434 53.9701Z" fill="#191B1D"/>
<path d="M366.051 390.021L375.86 390.829L371.013 385.172C380.361 382.748 390.631 386.327 390.17 392.099C381.976 391.406 373.437 395.447 366.051 390.021Z" fill="#191B1D"/>
<path d="M337.673 143.668C334.211 143.668 331.095 144.938 329.941 143.668C326.364 140.667 324.171 143.668 321.055 143.668C317.802 144.134 314.499 144.134 311.246 143.668C317.939 133.163 319.67 132.124 327.979 137.204L329.595 138.127L337.673 143.668Z" fill="#191B1D"/>
<path d="M1073.61 16.5664L1071.76 22.9157C1058.49 24.9937 1054.8 24.5319 1048.11 18.7598L1073.61 16.5664Z" fill="#191B1D"/>
<path d="M777.342 19.6837C770.943 20.3971 764.506 20.7056 758.069 20.6073C753.124 19.7633 748.337 18.1671 743.875 15.8741H777.342V19.6837Z" fill="#191B1D"/>
<path d="M263.816 43.4644L242.236 38.9621L247.082 36.8842L240.043 34.9217V32.8438C242.946 33.019 245.836 33.3659 248.698 33.8827C251.559 34.4532 254.346 35.3439 257.007 36.5379C259.71 37.9885 262.295 39.6482 264.739 41.5019L263.816 43.4644Z" fill="#191B1D"/>
<path d="M1095.41 27.4182L1071.29 29.3807L1070.25 28.3417C1074.18 26.0329 1077.99 22.2233 1081.79 21.877C1086.55 22.2473 1091.2 23.4591 1095.53 25.4557L1095.41 27.4182Z" fill="#191B1D"/>
<path d="M993.615 429.848C996.134 433.5 998.335 437.362 1000.19 441.392C1000.19 442.662 998.115 446.356 996.269 446.933C992.692 448.318 991.307 445.894 991.653 442.431C991.999 438.968 991.653 434.581 991.653 430.887L993.615 429.848Z" fill="#191B1D"/>
<path d="M1261.37 675.276L1255.02 661.423C1258.86 661.055 1262.72 661.055 1266.56 661.423C1267.71 661.423 1269.33 665.464 1268.75 666.618C1266.66 669.798 1264.18 672.706 1261.37 675.276Z" fill="#191B1D"/>
<path d="M1196.73 281.39C1203.77 287.046 1203.31 293.857 1195.81 298.013V288.201L1192.93 286.469L1196.73 281.39Z" fill="#191B1D"/>
<path d="M702.211 242.024L706.365 240.293C706.365 241.563 707.866 242.948 707.519 243.641C706.135 246.758 709.481 252.645 702.211 252.991V242.024Z" fill="#191B1D"/>
<path d="M728.543 266.037L717.926 259.572V258.187H729.466L728.543 266.037Z" fill="#191B1D"/>
<path d="M334.562 70.0166L350.373 73.5953L349.68 76.135C344.949 73.5953 338.025 80.9836 334.562 70.0166Z" fill="#191B1D"/>
<path d="M266.34 35.8456C271.533 36.8846 274.995 37.4618 278.572 38.3853C278.875 38.6117 279.118 38.9092 279.279 39.2514C279.44 39.5936 279.514 39.9701 279.496 40.3479C279.136 41.269 278.433 42.0141 277.534 42.4258C272.687 43.9266 269.571 42.0795 266.34 35.8456Z" fill="#191B1D"/>
<path d="M1163.14 359.197L1157.95 374.782C1153.56 367.855 1154.72 363.815 1163.14 359.197Z" fill="#191B1D"/>
<path d="M1270.7 499.921C1273.37 500.382 1276.1 500.382 1278.77 499.921C1280.85 498.997 1282.35 496.342 1285.58 495.072C1284.65 497.086 1283.49 498.984 1282.12 500.729C1280.89 502.161 1279.15 503.048 1277.27 503.2C1275.39 503.351 1273.52 502.754 1272.08 501.537C1271.5 501.111 1271.03 500.558 1270.7 499.921Z" fill="#191B1D"/>
<path d="M273.844 60.8959L284.345 57.4326L285.269 64.0128C283.116 64.1282 280.959 64.1282 278.806 64.0128C277.153 63.5942 275.533 63.054 273.959 62.3966L273.844 60.8959Z" fill="#191B1D"/>
<path d="M1183.35 513.428L1167.08 524.972C1167.81 521.335 1169.9 518.114 1172.92 515.968C1175.95 513.822 1179.68 512.913 1183.35 513.428Z" fill="#191B1D"/>
<path d="M269.566 110.883L278.568 116.193V117.578L264.258 116.308L269.566 110.883Z" fill="#191B1D"/>
<path d="M273.162 48.6592L286.203 49.8137C281.356 55.7012 277.317 52.0071 273.047 49.8137L273.162 48.6592Z" fill="#191B1D"/>
<path d="M208.871 43.3496L222.027 41.1562C219.719 47.3901 215.218 48.3136 208.871 43.3496Z" fill="#191B1D"/>
<path d="M1212.32 278.851C1216.01 287.393 1206.09 283.815 1206.09 288.317C1202.63 281.39 1209.55 282.198 1212.32 278.851Z" fill="#191B1D"/>
<path d="M1198.46 491.493H1185.99C1185.99 490.224 1187.03 487.915 1187.61 487.915C1191.76 487.568 1196.26 486.76 1198.46 491.493Z" fill="#191B1D"/>
</g>
<path d="M23.6716 203.927C33.9967 203.927 42.3667 195.554 42.3667 185.226C42.3667 174.897 33.9967 166.524 23.6716 166.524C13.3466 166.524 4.97656 174.897 4.97656 185.226C4.97656 195.554 13.3466 203.927 23.6716 203.927Z" fill="#24285B"/>
<path d="M454.609 115.266C464.934 115.266 473.304 106.893 473.304 96.5647C473.304 86.2361 464.934 77.8632 454.609 77.8632C444.284 77.8632 435.914 86.2361 435.914 96.5647C435.914 106.893 444.284 115.266 454.609 115.266Z" fill="#24285B"/>
<path d="M858.055 245.485C868.38 245.485 876.75 237.112 876.75 226.784C876.75 216.455 868.38 208.082 858.055 208.082C847.73 208.082 839.359 216.455 839.359 226.784C839.359 237.112 847.73 245.485 858.055 245.485Z" fill="#24285B"/>
<path d="M1099.35 516.312C1109.67 516.312 1118.04 507.939 1118.04 497.61C1118.04 487.282 1109.67 478.909 1099.35 478.909C1089.02 478.909 1080.65 487.282 1080.65 497.61C1080.65 507.939 1089.02 516.312 1099.35 516.312Z" fill="#24285B"/>
<path d="M279.886 274.346C290.212 274.346 298.582 265.973 298.582 255.645C298.582 245.316 290.212 236.943 279.886 236.943C269.561 236.943 261.191 245.316 261.191 255.645C261.191 265.973 269.561 274.346 279.886 274.346Z" fill="#24285B"/>
<path d="M1209.8 140.088C1220.13 140.088 1228.5 131.715 1228.5 121.386C1228.5 111.058 1220.13 102.685 1209.8 102.685C1199.48 102.685 1191.11 111.058 1191.11 121.386C1191.11 131.715 1199.48 140.088 1209.8 140.088Z" fill="#24285B"/>
<path d="M42.3711 144.357C42.3711 144.357 42.9481 142.395 44.2176 138.932" stroke="#24285B" stroke-width="0.25375" stroke-linecap="round" stroke-linejoin="round"/>
<path d="M73.418 89.0625C99.3749 56.6297 134.288 32.5433 173.818 19.7976C279.757 -15.5276 489.558 -6.86945 449.167 96.2199C408.776 199.309 284.373 223.668 279.872 262.11C275.371 300.552 246.521 394.29 371.04 385.286C495.558 376.281 565.377 192.729 858.036 226.9C1064.49 251.027 1154.73 188.573 1189.93 149.785" stroke="#24285B" stroke-width="0.25375" stroke-linecap="round" stroke-linejoin="round" stroke-dasharray="1.01 5.09"/>
<path d="M1207.13 126.465C1208.98 123.233 1209.79 121.386 1209.79 121.386C1209.79 121.386 1211.4 122.656 1214.06 125.195" stroke="#24285B" stroke-width="0.25375" stroke-linecap="round" stroke-linejoin="round"/>
<path d="M1246.26 171.95C1257.41 197.388 1262.73 224.998 1261.84 252.759C1260.1 331.952 1235.52 408.836 1166.86 453.397" stroke="#24285B" stroke-width="0.25375" stroke-linecap="round" stroke-linejoin="round" stroke-dasharray="1 5.02"/>
<path d="M1141.68 467.479L1136.48 469.788" stroke="#24285B" stroke-width="0.25375" stroke-linecap="round" stroke-linejoin="round"/>
</g>
</svg>
