<svg width="64" height="66" viewBox="0 0 64 66" fill="none" xmlns="http://www.w3.org/2000/svg">
<g id="Group 18679">
<path id="layer2" d="M55.133 29.1133C57.0271 35.2227 56.7476 41.7994 54.3419 47.726C51.9362 53.6526 47.5527 58.5635 41.9363 61.6242C36.3199 64.6849 29.817 65.7066 23.5326 64.5158C17.2482 63.3249 11.5699 59.995 7.46261 55.0917C3.35532 50.1884 1.07238 44.0143 1.00169 37.6184C0.931007 31.2226 3.07694 24.9995 7.07486 20.0067C11.0728 15.0138 16.6761 11.5592 22.9326 10.2297C29.1892 8.90025 35.7131 9.77802 41.3958 12.7139M39.1595 11.649C32.983 14.6307 28.6169 14.9501 28.6169 18.7838C28.6169 22.6174 34.1544 20.3811 34.1544 24.3213C34.1544 28.2614 29.8948 31.0301 26.8066 29.0068C23.7184 26.9835 19.4588 25.8121 15.7316 30.9237C12.0045 36.0352 14.4538 41.9986 17.116 41.8921C19.7783 41.7856 22.2275 39.3364 23.3989 42.5311C24.5703 45.7258 24.7833 45.7258 25.9547 46.3647C27.1261 47.0037 27.2326 48.388 26.8066 50.1984C26.3807 52.0087 28.7234 57.5462 30.5338 57.5462C32.3441 57.5462 34.0479 56.8007 34.2609 53.819C34.4739 50.8373 36.7102 50.7308 37.7751 49.8789C38.84 49.027 37.0297 45.9388 38.9465 43.9154C40.8633 41.8921 45.0164 38.165 41.6087 37.2066C38.2011 36.2482 38.414 35.6092 37.8816 34.1184C37.3491 32.6275 35.9648 31.1366 38.84 31.0301C40.3075 31.0351 41.7612 30.7454 43.1148 30.1784C44.4684 29.6113 45.6944 28.7784 46.7203 27.729L47.4657 26.9835" stroke="#FF5B26" stroke-width="2" stroke-miterlimit="10" stroke-linecap="round" stroke-linejoin="round"/>
<path id="layer1" d="M52.0435 1C49.2192 1 46.5106 2.12195 44.5136 4.11902C42.5165 6.1161 41.3945 8.82471 41.3945 11.649C41.3945 21.2331 52.0435 32.947 52.0435 32.947C52.0435 32.947 62.6925 21.2331 62.6925 11.649C62.6925 10.2506 62.4171 8.8658 61.8819 7.57381C61.3468 6.28181 60.5624 5.10787 59.5735 4.11902C58.5847 3.13017 57.4107 2.34577 56.1187 1.81061C54.8267 1.27544 53.442 1 52.0435 1Z" stroke="#FF5B26" stroke-width="2" stroke-miterlimit="10" stroke-linecap="round" stroke-linejoin="round"/>
<path id="layer1_2" d="M52.1166 14.8435C53.881 14.8435 55.3113 13.4132 55.3113 11.6488C55.3113 9.88442 53.881 8.4541 52.1166 8.4541C50.3522 8.4541 48.9219 9.88442 48.9219 11.6488C48.9219 13.4132 50.3522 14.8435 52.1166 14.8435Z" stroke="#FF5B26" stroke-width="2" stroke-miterlimit="10" stroke-linecap="round" stroke-linejoin="round"/>
</g>
</svg>
