<svg width="66" height="66" viewBox="0 0 66 66" fill="none" xmlns="http://www.w3.org/2000/svg">
<g id="Group 18678">
<path id="layer2" d="M36.6267 60.7337H3.13333C2.56754 60.7337 2.02492 60.5089 1.62484 60.1089C1.22476 59.7088 1 59.1663 1 58.6005V9.53794C1 8.97219 1.22476 8.42962 1.62484 8.02957C2.02492 7.62953 2.56754 7.40479 3.13333 7.40479H13.6933M35.1333 7.40479H45.8C46.3658 7.40479 46.9084 7.62953 47.3085 8.02957C47.7086 8.42962 47.9333 8.97219 47.9333 9.53794V30.8695" stroke="#FF5B26" stroke-width="2" stroke-miterlimit="10" stroke-linecap="round" stroke-linejoin="round"/>
<path id="layer2_2" d="M13.8018 13.8043V7.40481C13.8018 6.83906 14.0266 6.29649 14.4267 5.89644C14.8267 5.4964 15.3694 5.27166 15.9352 5.27166H19.2418C19.4866 4.06612 20.1407 2.98227 21.0933 2.20378C22.0458 1.42528 23.2382 1 24.4685 1C25.6987 1 26.8912 1.42528 27.8437 2.20378C28.7962 2.98227 29.4503 4.06612 29.6952 5.27166H33.0018C33.5676 5.27166 34.1102 5.4964 34.5103 5.89644C34.9104 6.29649 35.1352 6.83906 35.1352 7.40481V13.8043M13.8018 13.8043H35.1352M13.8018 13.8043H9.53516V52.2011H31.4018M35.1352 13.8043H39.4018V33.1093M18.0685 22.3369H30.8685M18.0685 33.0027H30.8685M18.0685 43.6685H30.8685" stroke="#FF5B26" stroke-width="2" stroke-miterlimit="10" stroke-linecap="round" stroke-linejoin="round"/>
<path id="layer1" d="M47.9339 65.0001C57.3595 65.0001 65.0005 57.3597 65.0005 47.9349C65.0005 38.51 57.3595 30.8696 47.9339 30.8696C38.5082 30.8696 30.8672 38.51 30.8672 47.9349C30.8672 57.3597 38.5082 65.0001 47.9339 65.0001Z" stroke="#FF5B26" stroke-width="2" stroke-miterlimit="10" stroke-linecap="round" stroke-linejoin="round"/>
<path id="layer1_2" d="M55.4018 43.6685L46.8685 53.2685L41.5352 47.9351" stroke="#FF5B26" stroke-width="2" stroke-miterlimit="10" stroke-linecap="round" stroke-linejoin="round"/>
</g>
</svg>
