<svg width="66" height="66" viewBox="0 0 66 66" fill="none" xmlns="http://www.w3.org/2000/svg">
<g id="Group 18676">
<path id="layer2" d="M32.36 60.7333H3C1.89543 60.7333 1 59.8379 1 58.7333V3C1 1.89543 1.89543 1 3 1H45.9333C47.0379 1 47.9333 1.89543 47.9333 3V40.4667M11.6667 1V9.53333M9.53333 9.53333H13.8M24.4667 1V9.53333M22.3333 9.53333H26.6M37.2667 1V9.53333M35.1333 9.53333H39.4" stroke="#FF5B26" stroke-width="2" stroke-miterlimit="10" stroke-linecap="round" stroke-linejoin="round"/>
<path id="layer1" d="M35.3457 52.9467L57.5323 30.8667L64.999 38.3334L42.8123 60.4134M35.3457 52.9467L30.6523 65L42.8123 60.4134M35.3457 52.9467L42.8123 60.4134" stroke="#FF5B26" stroke-width="2" stroke-miterlimit="10" stroke-linecap="round" stroke-linejoin="round"/>
</g>
</svg>
