<svg width="66" height="66" viewBox="0 0 66 66" fill="none" xmlns="http://www.w3.org/2000/svg">
<g id="Group 18685">
<path id="layer1" d="M54.7558 42.9126L46.2402 52.4926L40.918 47.1704" stroke="#FF5B26" stroke-width="2" stroke-miterlimit="10" stroke-linecap="round" stroke-linejoin="round"/>
<path id="layer2" d="M24.5 33C29.1944 33 33 29.1944 33 24.5C33 19.8056 29.1944 16 24.5 16C19.8056 16 16 19.8056 16 24.5C16 29.1944 19.8056 33 24.5 33Z" stroke="#FF5B26" stroke-width="2" stroke-miterlimit="10" stroke-linecap="round" stroke-linejoin="round"/>
<path id="layer2_2" d="M47.0916 30.8046C47.3366 29.7166 47.5144 28.6146 47.6238 27.5048V27.079C47.7303 26.3339 47.7303 25.5888 47.7303 24.8437C47.7872 18.5945 45.3663 12.5774 40.9975 8.10879C36.6287 3.64023 30.6676 1.08419 24.4188 1C21.3156 1.02783 18.2482 1.66666 15.3918 2.88C12.5354 4.09334 9.94602 5.85744 7.77144 8.07155C5.59686 10.2857 3.87971 12.9064 2.71803 15.7842C1.55634 18.662 0.972884 21.7404 1.00097 24.8437C1.00097 25.5888 1.00097 26.4403 1.10741 27.1854V27.5048C3.02342 46.2391 24.4188 60.6091 24.4188 60.6091C27.1197 58.7007 29.6809 56.602 32.0829 54.3289" stroke="#FF5B26" stroke-width="2" stroke-miterlimit="10" stroke-linecap="round" stroke-linejoin="round"/>
<path id="layer1_2" d="M47.9687 65.0001C57.3748 65.0001 64.9999 57.375 64.9999 47.9689C64.9999 38.5629 57.3748 30.9377 47.9687 30.9377C38.5626 30.9377 30.9375 38.5629 30.9375 47.9689C30.9375 57.375 38.5626 65.0001 47.9687 65.0001Z" stroke="#FF5B26" stroke-width="2" stroke-miterlimit="10" stroke-linecap="round" stroke-linejoin="round"/>
</g>
</svg>
