<svg width="66" height="66" viewBox="0 0 66 66" fill="none" xmlns="http://www.w3.org/2000/svg">
<g id="Group 18833">
<path id="layer2" d="M33 65C50.6731 65 65 50.6731 65 33C65 15.3269 50.6731 1 33 1C15.3269 1 1 15.3269 1 33C1 50.6731 15.3269 65 33 65Z" stroke="#FF5B26" stroke-width="2" stroke-miterlimit="10" stroke-linecap="round" stroke-linejoin="round"/>
<path id="layer1" d="M50.0669 42.4937C48.3041 45.4668 45.7912 47.9247 42.7799 49.6214C39.7686 51.3181 36.3644 52.1941 32.9081 52.1616C29.4518 52.1292 26.0647 51.1896 23.0857 49.4367C20.1067 47.6839 17.6404 45.1793 15.9336 42.1737M18.0669 28.627C18.0669 27.4954 18.5165 26.4102 19.3166 25.61C20.1168 24.8099 21.202 24.3604 22.3336 24.3604C23.4652 24.3604 24.5504 24.8099 25.3506 25.61C26.1507 26.4102 26.6003 27.4954 26.6003 28.627M39.4003 28.627C39.4003 27.4954 39.8498 26.4102 40.6499 25.61C41.4501 24.8099 42.5353 24.3604 43.6669 24.3604C44.7985 24.3604 45.8838 24.8099 46.6839 25.61C47.4841 26.4102 47.9336 27.4954 47.9336 28.627" stroke="#FF5B26" stroke-width="2" stroke-miterlimit="10" stroke-linecap="round" stroke-linejoin="round"/>
</g>
</svg>
