<svg width="66" height="66" viewBox="0 0 66 66" fill="none" xmlns="http://www.w3.org/2000/svg">
<g id="Group 18681">
<path id="Vector" d="M41.4125 24.4666C41.0763 22.4782 40.0467 20.6732 38.5063 19.3717C36.966 18.0701 35.0145 17.3562 32.9979 17.3564C28.2855 17.3564 24.4648 20.4646 24.4648 25.1781C24.4648 29.8915 28.7314 32.0258 32.9979 33.0007C37.2644 33.9607 41.5309 36.1121 41.5309 40.8234C41.5309 45.5347 37.7103 48.645 32.9979 48.645C30.7348 48.645 28.5644 47.746 26.9641 46.1457C25.3639 44.5455 24.4648 42.3751 24.4648 40.112" stroke="#FF5B26" stroke-width="2" stroke-miterlimit="10" stroke-linecap="round" stroke-linejoin="round"/>
<path id="layer2" d="M32.9989 17.3568V11.6663M32.9989 54.3348V48.6443M25.6893 1.94479L22.3476 5.2858C21.9726 5.6607 21.4641 5.87135 20.9339 5.87143L16.2089 5.87216C15.4 5.87229 14.6708 6.35963 14.3613 7.10696L12.5539 11.4716C12.351 11.9616 11.9617 12.351 11.4716 12.554L7.10472 14.3633C6.35745 14.6729 5.87024 15.4021 5.87024 16.211V20.9347C5.87024 21.4651 5.65958 21.9737 5.28461 22.3488L1.94464 25.6895C1.37281 26.2615 1.20174 27.1215 1.51118 27.8688L3.31879 32.2338C3.52168 32.7237 3.52169 33.2742 3.31884 33.7641L1.51102 38.1304C1.20167 38.8775 1.37268 39.7374 1.94437 40.3094L5.28476 43.6512C5.65964 44.0263 5.87024 44.5348 5.87024 45.0651V49.7888C5.87024 50.5978 6.35758 51.3271 7.10499 51.6366L11.4714 53.4449C11.9616 53.6479 12.351 54.0374 12.554 54.5275L14.3613 58.892C14.6708 59.6393 15.4 60.1266 16.2089 60.1268L20.9337 60.1275C21.4641 60.1276 21.9726 60.3383 22.3476 60.7133L25.6893 64.055C26.2614 64.627 27.1217 64.7981 27.869 64.4885L32.2335 62.6804C32.7236 62.4774 33.2743 62.4774 33.7644 62.6804L38.1288 64.4885C38.8762 64.7981 39.7365 64.627 40.3085 64.055L43.6502 60.7133C44.0252 60.3383 44.5338 60.1276 45.0641 60.1275L49.789 60.1268C50.5979 60.1266 51.327 59.6393 51.6365 58.892L53.4439 54.5275C53.6469 54.0374 54.0363 53.6479 54.5265 53.4449L58.8929 51.6366C59.6403 51.3271 60.1276 50.5978 60.1276 49.7888V45.0651C60.1276 44.5348 60.3382 44.0263 60.7131 43.6512L64.0535 40.3094C64.6252 39.7374 64.7962 38.8775 64.4868 38.1304L62.679 33.7641C62.4762 33.2742 62.4762 32.7237 62.6791 32.2338L64.4867 27.8688C64.7961 27.1215 64.6251 26.2615 64.0532 25.6895L60.7133 22.3488C60.3383 21.9737 60.1276 21.4651 60.1276 20.9347V16.211C60.1276 15.4021 59.6404 14.6729 58.8931 14.3633L54.5263 12.554C54.0362 12.351 53.6469 11.9616 53.4439 11.4716L51.6365 7.10696C51.327 6.35963 50.5979 5.87229 49.789 5.87216L45.064 5.87143C44.5338 5.87135 44.0252 5.6607 43.6503 5.2858L40.3085 1.94479C39.7365 1.37288 38.8763 1.20185 38.129 1.51144L33.7644 3.31959C33.2743 3.52264 32.7236 3.52264 32.2335 3.31959L27.8689 1.51144C27.1216 1.20185 26.2614 1.37288 25.6893 1.94479Z" stroke="#FF5B26" stroke-width="2" stroke-miterlimit="10" stroke-linecap="round" stroke-linejoin="round"/>
</g>
</svg>
