<svg width="770" height="391" viewBox="0 0 770 391" fill="none" xmlns="http://www.w3.org/2000/svg">
<g opacity="0.07">
<g opacity="0.51">
<path d="M379.635 78.4338C380.068 79.4592 380.194 80.5886 379.997 81.6843C379.8 82.7799 379.288 83.7946 378.524 84.6046C378.425 85.0115 378.424 85.4361 378.52 85.8437C378.617 86.2512 378.808 86.6301 379.08 86.9494C380.009 87.8706 381.232 88.4381 382.535 88.5539C384.386 88.5539 386.546 86.7643 387.595 89.6646C391.359 89.6646 394.075 85.7153 398.147 87.6899C399.135 88.1836 401.109 86.5792 402.775 85.9004C402.652 84.7106 402.652 83.5112 402.775 82.3213C403.701 77.323 404.565 77.0762 408.576 80.2233C410.119 78.8657 410.736 77.6315 408.576 75.842C406.416 74.0525 407.403 73.1885 409.502 72.5715C411.6 71.9544 412.587 72.1395 414.13 72.0161L420.3 71.5224V70.6585C419.228 70.2732 418.106 70.0446 416.968 69.9797C414.799 70.6708 412.566 71.1463 410.304 71.399C407.772 71.2061 405.321 70.4242 403.146 69.1158C402.035 68.3753 403.516 62.1428 404.812 61.2172C407.095 59.366 409.44 57.5147 412.587 55.0464C410.982 54.4911 409.563 53.5037 408.452 53.8122C406.526 54.3848 404.74 55.3515 403.207 56.6508C401.911 57.7616 401.109 59.3043 399.875 60.5384C398.641 61.7726 396.728 62.4514 395.556 63.7472C393.272 66.1538 393.581 67.8817 396.173 69.918C396.489 70.0633 396.772 70.2707 397.006 70.5278C397.241 70.785 397.421 71.0867 397.536 71.4149C397.651 71.7431 397.699 72.0912 397.677 72.4383C397.655 72.7854 397.563 73.1245 397.407 73.4354C397.085 74.0685 396.533 74.5544 395.864 74.793C394.988 75.2017 394.242 75.8444 393.709 76.6502C393.175 77.456 392.875 78.3936 392.84 79.3594C392.84 81.2723 392.84 84.0492 389.2 83.3087C385.003 88.8007 385.127 83.3087 383.954 81.2723C383.786 80.8432 383.58 80.4301 383.337 80.0381C382.165 78.1252 381.301 75.3483 379.573 74.6078C377.845 73.8673 376.056 76.3357 374.143 77.1996C373.093 77.5717 371.941 77.53 370.921 77.083C369.9 76.6359 369.089 75.8171 368.651 74.793C367.83 72.8169 367.27 70.7426 366.985 68.6222C366.953 67.8928 367.074 67.1648 367.339 66.4847C367.605 65.8047 368.01 65.1875 368.527 64.6729C371.007 62.3764 373.985 60.6866 377.228 59.7362C379.695 58.509 381.816 56.6848 383.399 54.4294C385.991 51.5291 388.397 48.2586 390.557 45.6051L385.744 46.7775C386.861 45.7316 388.081 44.8013 389.385 44.0007C390.766 43.526 392.193 43.1951 393.643 43.0133C395.062 42.2111 397.407 39.496 399.196 39.8663C402.405 40.4834 404.75 38.0767 407.774 38.8172C409.193 39.1257 411.044 37.4597 413.389 36.3489L412.155 38.9406C413.432 38.2883 414.808 37.8506 416.228 37.6448C418.567 37.9544 420.878 38.4496 423.139 39.1258L422.337 40.3599C427.273 41.5324 432.272 42.458 437.085 43.8773C439.826 44.7376 442.473 45.8748 444.984 47.2712C447.082 48.3202 447.205 49.8629 444.984 50.9737C440.85 52.5492 436.282 52.5492 432.148 50.9737C430.854 50.4696 429.453 50.2999 428.076 50.48L431.963 52.5164C431.963 57.1445 434.802 59.5511 439.368 58.1935L436.283 56.2189V55.4784L444.181 56.7125L442.762 53.8122C444.305 53.0717 445.909 52.393 447.514 51.7759C449.263 51.4041 451.036 51.1567 452.821 51.0354C452.237 50.2418 451.817 49.3397 451.586 48.382C451.433 46.9668 451.433 45.5392 451.586 44.1241L457.757 45.42V46.5924L454.857 47.6414C457.078 51.0354 457.942 50.7269 461.028 48.4437C463.617 46.7787 466.419 45.4709 469.358 44.556C470.427 44.2355 471.521 44.0084 472.629 43.8773C474.974 47.6415 478.429 43.8773 481.515 43.8773C482.872 43.8773 484.415 41.9026 485.587 44.4326C486.82 44.1277 488.035 43.7569 489.228 43.3219L483.057 38.7555C487.359 39.3077 491.624 40.1113 495.831 41.1621C499.178 42.8928 502.82 43.9811 506.568 44.3709C505.245 43.6595 504.143 42.5985 503.381 41.3037C502.619 40.0089 502.228 38.5298 502.249 37.0277C503.486 35.2158 504.937 33.5585 506.568 32.0911C508.215 31.274 510.037 30.8715 511.875 30.9186C513.248 31.0428 514.598 31.3542 515.886 31.8442L513.911 34.6828L515.392 44.6795L516.812 45.1114L510.641 51.2822C511.697 51.5503 512.801 51.5695 513.865 51.3382C514.93 51.1069 515.926 50.6316 516.776 49.9495C517.626 49.2675 518.305 48.3974 518.761 47.4079C519.217 46.4184 519.437 45.3365 519.403 44.2475C521.44 44.2475 524.031 43.2602 524.217 46.901C526.562 44.8646 526.006 43.0751 523.168 42.8899H517.429C517.429 40.4833 516.935 38.0767 516.688 35.2382L520.761 32.5847V36.1021L524.34 36.6574L521.687 34.3743L526.006 34.9296V34.1891L523.908 32.7698V32.0293C526.561 32.8315 529.153 33.6955 531.992 34.4977C533.049 34.7477 534.121 34.9332 535.201 35.0531C535.229 34.7658 535.229 34.4763 535.201 34.1891C534.275 33.6954 533.288 33.3252 531.868 32.7081L530.943 29.6227L544.765 28.4503L542.729 26.2288C549.069 23.2105 556.092 21.9123 563.093 22.4646C565.577 22.402 568.044 22.0288 570.436 21.3539C570.436 21.3539 570.806 21.3539 570.991 21.0453C573.259 20.81 575.406 19.9082 577.162 18.4536C579.816 16.6024 582.839 14.3809 585.678 18.4536C586.233 19.2558 587.961 19.1941 589.072 19.5643C592.788 19.2558 596.524 19.2558 600.241 19.5643C601.598 19.5643 602.586 22.1561 603.82 23.637L588.27 29.1908V29.8078C589.257 29.8078 590.306 29.8078 591.355 29.8078C592.404 29.8078 594.008 29.8078 594.749 29.8078C598.266 27.1544 601.845 28.7588 605.424 29.1908C606.844 29.1908 608.448 28.3269 609.806 28.5737C611.501 28.9952 613.095 29.7504 614.495 30.7952C615.977 31.6916 617.738 32.0049 619.438 31.6742C621.137 31.3434 622.653 30.3922 623.69 29.0057C624.065 28.7251 624.495 28.5254 624.952 28.4192C625.409 28.313 625.883 28.3026 626.343 28.3886L636.834 30.0547C636.402 34.0657 636.834 37.4596 641.832 37.5831L643.251 35.2382H659.851L658.123 32.3996C662.178 31.5458 666.34 31.3169 670.465 31.7208C674.105 32.7081 678.795 31.7208 682.806 34.9296C686.18 36.5581 689.944 37.1998 693.667 36.7809C697.369 36.7809 701.257 36.1021 703.91 40.1131C704.527 40.977 706.811 40.8536 708.292 40.977C710.635 41.1004 712.983 41.1004 715.326 40.977C717.033 40.7884 718.724 40.479 720.386 40.0514C721.455 39.9897 722.526 39.9897 723.595 40.0514L724.274 41.1621L722.176 41.7792V42.458L727.853 44.1858L727.298 39.8046C733.345 39.9936 739.351 40.884 745.193 42.458C750.623 44.5561 756.856 45.1114 760.126 50.8503C761.916 48.3203 763.52 48.5671 770 52.6398C767.901 54.3676 764.446 54.4911 763.829 57.7616L757.102 55.6635C755.93 55.2933 754.819 54.7996 753.647 54.3676C752.759 54.1038 751.893 53.7737 751.055 53.3803C750.521 52.9199 750.063 52.3785 749.698 51.7759C749.455 52.464 749.249 53.1643 749.08 53.874C749.08 54.5527 749.08 54.491 749.08 54.923L742.91 57.0828C744.021 57.7755 744.913 58.7697 745.481 59.9496C746.049 61.1295 746.27 62.4465 746.118 63.7472C737.726 62.2045 732.111 66.9561 726.002 70.9054C725.167 69.8782 723.963 69.2189 722.648 69.0689C721.333 68.919 720.011 69.2903 718.967 70.1032C718.084 70.5252 717.097 70.6756 716.128 70.5351C711.562 70.1649 710.883 74.4227 707.921 76.7059L710.76 77.2613C710.76 79.1125 711.192 80.7169 711.439 82.5065C708.353 82.5065 707.366 84.1726 709.155 86.9494C707.551 88.6155 702.985 87.3197 704.712 91.8244C699.591 91.0839 701.319 97.5015 697.246 98.5505C696.012 91.3924 692.001 84.4194 697.246 78.1869C703.859 74.5698 709.607 69.5586 714.092 63.5004L713.537 62.6365C712.796 62.6365 711.5 63.1301 711.5 63.3153C711.5 65.7219 709.834 65.9687 708.23 66.6475C706.625 67.3263 704.527 70.9054 703.602 65.8453C701.528 65.6112 699.429 65.8002 697.431 66.4007C695.797 67.2128 694.412 68.4489 693.42 69.9797C692.865 70.5968 693.05 71.831 692.803 73.312L684.904 74.361L686.447 72.0161C682.782 72.66 679.053 72.8672 675.339 72.6332C667.441 70.9671 662.998 76.0271 658.185 80.1616L651.273 86.3324C652.251 87.5672 653.346 88.7038 654.544 89.7263C655.443 90.0366 656.421 90.0366 657.321 89.7263C658.493 89.7263 659.974 88.0602 660.53 88.4304C661.085 88.8007 663.677 90.8988 663.492 91.8861C662.257 97.2547 663.121 103.24 659.727 108.115C656.333 112.99 653.557 117.063 650.533 121.444C650.144 122.004 649.649 122.481 649.076 122.849C648.502 123.217 647.862 123.468 647.192 123.589C646.521 123.709 645.833 123.696 645.168 123.55C644.502 123.405 643.872 123.129 643.313 122.74C641.77 125.023 638.685 125.825 638.438 129.59C638.438 131.132 635.353 132.49 634.859 133.971C636.153 137.134 637.266 140.369 638.191 143.659C639.302 148.904 634.365 148.596 631.033 150.632C631.033 147.3 631.65 144.461 631.712 141.252C631.712 140.512 630.848 138.969 630.478 139.031C626.343 139.463 628.441 137.056 628.75 135.452C628.93 134.988 629.136 134.535 629.367 134.094C628.303 133.274 626.961 132.899 625.626 133.049C624.291 133.199 623.065 133.861 622.209 134.897L621.654 135.699L620.666 135.02L622.147 129.775C619 129.096 618.074 132.243 615.976 133.539C615.483 133.909 615.174 134.588 614.619 134.897C613.968 135.186 613.284 135.393 612.582 135.514L614.063 137.859C614.557 138.537 615.298 139.648 615.483 139.833H624.06L616.285 146.498C618.321 151.496 619.987 155.507 621.715 159.641L619.062 161.986L622.888 162.603C621.221 165.874 619.556 169.206 617.828 172.477C616.772 175.068 615.427 177.532 613.817 179.82C611.718 182.227 610.238 185.374 606.165 185.991C603.488 186.55 600.936 187.595 598.636 189.076C597.526 189.693 596.785 191.051 595.551 192.347L595.119 189.2C593.278 188.976 591.419 189.428 589.887 190.472C588.355 191.517 587.254 193.082 586.789 194.877C585.678 200.184 589.874 203.269 592.959 206.416L597.649 205.244L598.204 206.046C597.267 207.162 596.401 208.337 595.613 209.563C595.06 210.166 594.695 210.916 594.564 211.723C594.872 216.536 595.243 220.979 589.442 223.386C587.838 224.003 587.097 226.841 585.246 228.446V224.928L575.558 213.574C575.121 214.07 574.767 214.632 574.509 215.24C574.408 216.596 574.181 217.938 573.83 219.251C571.485 224.065 574.694 228.137 575.558 232.395C575.928 234.185 578.705 235.295 579.754 237.085C580.754 239.027 581.461 241.106 581.852 243.256C582.568 245.827 582.921 248.485 582.901 251.154C580.824 249.683 578.974 247.916 577.409 245.909C576.422 243.493 575.738 240.965 575.373 238.381C575.145 236.816 574.576 235.32 573.706 234C572.311 232.304 571.365 230.285 570.956 228.129C570.546 225.972 570.686 223.747 571.362 221.658C572.472 214.87 569.325 208.884 568.4 202.097C566.116 204.009 565.499 207.342 561.735 205.367C564.08 200.122 561.056 195.987 558.094 191.73C557.22 190.023 556.617 188.191 556.305 186.299C553.651 186.855 551.06 187.287 548.653 187.904C547.727 187.904 546.37 188.768 546.246 189.385C545.321 194.383 540.508 196.358 538.101 200.122C536.496 202.59 533.843 204.38 531.93 206.786C531.244 208.335 531.009 210.046 531.251 211.723C531.659 218.459 529.448 225.091 525.081 230.235C522.056 223.302 519.721 216.089 518.108 208.699C516.256 201.418 515.269 193.889 514.035 187.472L511.443 190.681L506.198 186.238L508.419 185.374C505.766 182.473 503.298 179.203 500.521 176.488C496.263 176.488 491.511 176.488 486.76 176.488C482.008 176.488 481.762 175.686 480.157 171.613C479.142 172.145 478.031 172.469 476.889 172.568C475.748 172.666 474.598 172.536 473.507 172.186C472.415 171.836 471.405 171.272 470.534 170.527C469.663 169.783 468.948 168.872 468.433 167.849C468.231 167.474 468.066 167.082 467.939 166.676C467.939 166.059 467.445 165.442 467.137 164.825C464.915 160.567 464.236 160.444 460.966 163.961L466.828 176.303L468.124 173.094C468.556 174.883 468.741 175.747 468.865 176.426C468.988 177.105 469.297 178.833 469.482 180.067C471.456 179.697 473.801 181.486 475.282 178.524C476.413 176.752 477.693 175.08 479.108 173.526C479.108 175.044 479.294 176.557 479.663 178.03C479.99 179.204 480.766 180.202 481.823 180.807C487.068 183.461 487.994 186.978 483.921 191.359C483.252 192.167 482.692 193.059 482.255 194.013C481.762 194.815 481.33 195.741 480.712 196.605C478.574 199.201 475.901 201.306 472.876 202.775C469.543 204.75 466.705 207.65 463.558 209.748C460.47 211.637 457.276 213.347 453.993 214.87C452.203 215.796 451.34 214.87 450.969 213.081C450.777 207.362 449.323 201.757 446.711 196.666C445.473 195.045 444.359 193.333 443.379 191.544C442.723 189.914 442.166 188.245 441.713 186.546C440.849 184.263 439.924 182.041 439.06 179.82C438.196 177.598 436.591 174.328 435.295 171.613C434.493 170.008 433.506 168.466 432.827 167.293L427.829 168.774L427.52 167.787L430.174 165.812L424.929 160.382C425.546 159.95 426.78 158.592 428.076 158.531C431.408 158.531 432.395 156.494 433.012 153.841L436.036 140.45L430.421 143.104C430.421 143.104 430.421 143.104 430.05 143.104C427.829 142.548 424.558 140.821 423.571 141.684C420.486 144.4 418.943 141.252 417.4 140.45C415.857 139.648 415.179 137.427 414.191 135.946L414.623 129.775C412.402 128.479 412.463 128.541 409.872 130.886C409.316 131.379 407.897 130.886 406.416 130.886C407.41 132.265 408.278 133.731 409.008 135.267C409.498 136.24 409.629 137.354 409.378 138.414C408.639 140.075 407.751 141.665 406.725 143.165C404.38 137.92 399.628 133.724 399.567 126.998C399.567 125.517 397.468 123.666 395.864 122.678C393.272 121.136 390.495 120.087 389.693 116.508C389.693 116.508 388.459 116.508 388.089 115.829C387.61 115.17 387.236 114.441 386.978 113.669C383.646 114.533 383.152 116.137 385.559 119.099C386.608 120.272 387.163 121.753 388.212 123.049C388.786 123.897 389.573 124.578 390.495 125.023C393.643 125.702 395.124 128.602 397.53 130.268C397.53 130.268 397.53 130.886 397.839 131.564L393.704 129.775L394.877 133.971L392.223 137.427C393.766 131.626 389.632 129.713 386.052 127.06C383.956 125.237 382.091 123.165 380.499 120.889C379.45 119.716 378.524 118.482 377.598 117.248C376.222 118.039 374.902 118.926 373.649 119.902C373.017 120.639 372.149 121.134 371.192 121.303C370.236 121.472 369.25 121.304 368.404 120.827C366.429 120.025 364.27 119.84 364.455 123.419C364.455 124.591 362.912 125.887 361.986 126.998C360.409 128.532 358.925 130.16 357.543 131.873C357.05 132.552 357.543 133.909 357.543 135.76C355.816 140.574 350.447 141.376 345.202 142.672L343.042 139.833L339.401 140.265C335.76 134.094 340.821 127.924 337.797 121.753C343.042 118.482 348.719 121.074 354.273 120.642C354.643 117.557 356.926 114.471 354.273 111.324C352.072 109.196 350.011 106.929 348.102 104.536H354.705L354.335 101.451C355.645 102.065 357.145 102.138 358.508 101.653C359.872 101.167 360.989 100.163 361.616 98.8591C361.616 98.8591 362.912 97.8101 363.529 97.193L369.33 91.4541L376.796 88.4304C376.858 87.3823 376.858 86.3315 376.796 85.2833C374.636 81.1489 374.575 81.2106 379.635 78.4338Z" fill="#191B1D"/>
<path d="M89.1063 120.704H92.994C91.5936 117.839 89.139 115.628 86.1444 114.533C81.6436 112.249 78.2277 108.279 76.6413 103.487C76.1476 102.315 74.2964 101.698 73.2473 100.895L72.3834 103.302C71.0258 100.217 67.1382 98.9824 70.1619 95.28C70.1619 95.28 68.1873 92.1329 67.5085 92.2563C66.043 92.3718 64.5691 92.1969 63.1713 91.7416C61.7735 91.2862 60.4793 90.5594 59.363 89.6028C57.6936 88.7961 55.9323 88.1952 54.1179 87.8133L41.4061 85.5301L41.838 87.4431L33.0138 89.7262L33.6926 85.0981L28.4474 89.4177C29.4347 91.4541 21.0424 98.5505 15.7972 99.9698L17.5868 101.636V102.685C13.5141 99.1059 10.1818 102.685 6.23247 102.685L11.8479 99.7229C13.9884 98.8224 16.0522 97.7493 18.0187 96.5141C19.738 94.9298 21.2889 93.1721 22.6468 91.2689H12.5267L11.7862 87.1345C6.29424 91.0838 6.54104 84.5428 3.94931 83.432C5.36859 77.8783 10.4903 78.6188 14.4396 77.2612L13.7609 74.2376C7.59005 74.7929 6.47934 76.5825 0 71.5841C1.41928 71.1522 2.65347 70.7819 3.88763 70.2883C5.12179 69.7946 6.29425 69.0541 7.46671 68.4987C9.62648 71.0905 11.3542 71.2756 14.4396 69.1158L1.5427 63.994C3.45565 63.2535 4.62815 62.8833 5.73889 62.3279C6.84963 61.7725 8.5774 60.7235 10.1201 60.1681C13.0204 58.934 15.9206 57.8232 18.8826 56.8359C23.7028 55.7135 28.7378 55.9269 33.4457 57.453C37.3051 58.1217 41.1987 58.575 45.1085 58.8106C51.1347 59.1643 57.0887 60.3053 62.8188 62.2045C64.1355 62.5144 65.4783 62.7004 66.8297 62.7599C66.8297 58.1318 70.3471 61.8342 71.9515 60.5384C73.9955 59.4581 76.3207 59.0275 78.616 59.3042L71.3962 62.2045L71.8897 63.1918L82.4418 58.3169L86.1444 61.5874L88.7361 59.4894L90.1553 61.8342C91.8215 58.9957 94.1664 59.9213 96.6347 60.5384C99.103 61.1555 103.361 61.7726 106.755 62.3896C107.866 62.3896 108.853 63.0067 110.396 63.4387L108.236 65.1048V65.9687C110.894 65.5996 113.574 65.414 116.258 65.4133C118.628 65.8411 120.96 66.4602 123.231 67.2645L122.861 64.6111C125.514 64.6111 127.797 64.6111 130.08 64.6111C134.462 64.6111 138.72 66.8326 143.224 64.0557C144.15 63.5621 146.371 65.2899 148.531 66.1538L152.419 63.0067L146.556 58.5637C146.063 56.2805 147.173 54.3676 150.197 54.1207C153.221 53.8739 155.751 57.6998 155.442 60.2915L159.207 60.9086L158.775 64.7345L162.045 60.9086L165.501 68.2519L171.116 60.4149L177.287 61.464V67.2645L178.028 68.1902L172.35 69.4243L174.202 72.3246L168.031 68.7456C168.771 71.8927 167.229 72.5097 165.254 72.3246C163.376 71.846 161.452 71.577 159.515 71.5224L167.229 73.8056L161.552 76.3973C160.712 76.7584 159.94 77.2592 159.268 77.8783C156.368 81.5191 150.506 82.8766 150.814 88.8623C150.844 89.3811 150.986 89.8872 151.232 90.3455C151.477 90.8037 151.819 91.203 152.234 91.5158C155.134 92.1946 155.319 94.1692 155.134 96.761C158.898 94.7246 161.305 96.761 164.76 98.4888C168.467 100.194 172.281 101.657 176.176 102.87C176.176 105.277 176.176 109.041 179.508 111.201C180.187 111.633 181.421 112.496 181.607 112.311C181.792 112.126 183.766 110.275 183.766 109.288C183.474 107.188 182.978 105.121 182.285 103.117C184.26 101.389 187.531 99.9698 187.901 97.8717C188.271 95.7737 186.05 93.1819 184.754 90.4667C187.962 88.1835 184.754 84.6662 185.124 81.1488C191.254 80.2882 197.478 81.8608 202.464 85.5301C202.197 86.0833 202.044 86.6846 202.014 87.2982C201.985 87.9118 202.08 88.525 202.293 89.1012C202.506 89.6773 202.833 90.2045 203.255 90.6512C203.677 91.0979 204.184 91.455 204.747 91.7009C205.115 91.8888 205.511 92.014 205.919 92.0712C210.116 93.1202 210.548 88.8006 212.09 86.3323C213.88 88.9858 215.793 91.1455 217.335 93.6139C218.199 95.0949 217.829 97.5632 218.94 98.6122C221.255 100.37 223.735 101.899 226.345 103.179L224.37 104.474C225.903 104.595 227.404 104.971 228.813 105.585C229.317 105.945 229.742 106.404 230.06 106.935C230.379 107.466 230.584 108.057 230.664 108.671C230.581 109.186 230.383 109.675 230.084 110.103C229.784 110.53 229.392 110.885 228.937 111.139C224.201 114.484 218.412 115.997 212.646 115.397C208.511 114.471 205.734 118.174 202.896 120.889C204.564 120.08 206.274 119.359 208.018 118.729C209.35 118.413 210.725 118.308 212.09 118.42C212.399 118.42 212.954 120.21 212.769 120.457C210.116 122.863 211.041 124.838 213.51 126.628C215.978 128.417 217.829 128.726 220.051 125.517C220.163 125.283 220.338 125.085 220.556 124.943C220.773 124.802 221.025 124.723 221.285 124.715L220.483 127.553L221.964 126.689L222.519 127.615L210.548 133.786H209.684L212.152 128.541C208.265 130.248 204.493 132.206 200.859 134.403C199.934 135.02 200.366 137.612 200.181 139.278L201.168 139.771C200.052 140.083 198.919 140.331 197.774 140.512C194.874 140.512 193.208 141.314 192.837 144.77C192.837 146.683 190.924 148.472 189.629 150.941L188.333 145.942C188.127 147.994 188.127 150.061 188.333 152.113C189.69 158.284 189.382 159.086 184.137 162.048C181.051 163.838 177.41 169.268 177.966 171.613C178.521 173.958 179.879 177.784 180.619 181.239C180.732 183.014 180.629 184.796 180.311 186.546H178.645L173.399 172.785L170.437 174.081C167.846 169.638 164.267 172.477 160.811 172.292L162.23 175.5C159.207 174.883 156.8 174.513 154.332 173.896C151.863 173.279 151.185 173.341 150.074 175.253C149.518 176.179 148.284 176.673 147.42 177.413C146.556 178.154 145.446 178.894 145.384 179.696C145.384 185.497 145.384 191.298 145.384 197.098C145.568 199.011 146.296 200.831 147.482 202.343C148.654 203.763 150.753 205.614 152.172 205.429C154.764 204.935 158.343 205.429 159.207 201.294C160.07 197.16 161.551 195.987 166.735 196.79L163.094 212.587C164.779 212.711 166.47 212.711 168.154 212.587C172.597 212.031 174.325 214.006 173.77 218.326C173.214 222.645 172.104 229.248 178.274 232.519C183.273 230.05 183.211 230.112 187.284 234.308C188.39 235.197 189.59 235.962 190.863 236.591C192.035 229.618 197.898 227.829 203.204 224.682C202.772 227.582 201.045 230.235 202.772 232.95L205.426 225.977L212.769 229.495C215.255 230.305 217.935 230.305 220.421 229.495C222.889 229.001 224.185 231.655 225.975 232.889C226.592 233.424 227.151 234.024 227.641 234.678C228.661 235.915 229.798 237.052 231.035 238.072C232.562 239.375 234.383 240.286 236.342 240.726C242.821 241.096 245.968 242.824 247.511 249.118C248.09 251.671 249.467 253.974 251.441 255.693C253.416 257.413 255.886 258.46 258.495 258.683C260.778 259.238 261.827 259.917 261.395 262.077C266.64 262.077 271.947 261.028 275.711 266.088C276.082 266.52 276.637 267.075 277.069 267.075C277.842 267.106 278.601 267.292 279.301 267.621C280.001 267.95 280.628 268.415 281.146 268.99C281.663 269.565 282.06 270.238 282.314 270.969C282.568 271.7 282.673 272.474 282.623 273.246V273.678C282.623 276.269 280.154 279.108 278.55 281.515C276.945 283.921 275.156 285.772 273.49 287.685C273.397 288.133 273.397 288.595 273.49 289.043C273.229 293.179 272.756 297.298 272.07 301.385C271.111 304.337 269.784 307.156 268.121 309.777C267.641 310.393 266.967 310.828 266.208 311.011C262.999 312.245 259.605 313.171 256.52 314.652C255.27 315.228 254.22 316.164 253.506 317.34C252.791 318.517 252.444 319.88 252.509 321.255C251.827 324.281 250.66 327.178 249.053 329.832C248.621 330.881 248.066 331.868 247.326 333.349L246.77 330.017C243.376 336.743 240.599 344.21 231.158 337.916C232.331 340.076 233.256 341.495 233.997 342.976C234.543 343.911 234.7 345.023 234.435 346.074C234.169 347.124 233.502 348.028 232.577 348.591C232.106 348.83 231.609 349.016 231.096 349.147C228.628 349.825 225.975 350.134 223.321 350.628C223.321 355.441 222.581 356.305 217.15 354.639C219.804 360.809 216.41 364.574 211.411 367.412C212.098 368.152 212.864 368.814 213.695 369.387C216.348 370.868 216.348 371.3 213.695 373.398C211.041 375.496 209.56 376.483 209.19 378.396C208.882 380.913 209.496 383.455 210.918 385.554C211.967 387.159 214.435 387.837 216.657 389.195C213.224 390.014 209.687 390.305 206.166 390.059C202.588 389.074 199.345 387.133 196.787 384.444C195.346 382.125 194.557 379.46 194.504 376.73C194.01 374.015 193.64 371.238 197.095 369.757H194.504L197.465 362.229H198.144L198.7 365.314H199.132L200.489 357.415C197.28 357.045 197.28 355.132 198.391 352.849C198.391 352.417 199.193 351.923 199.07 351.738C196.848 346.802 201.291 343.408 201.908 339.397C202.526 335.386 202.772 331.19 203.328 327.055C204.068 321.81 204.994 316.565 205.611 311.134C206.167 308.095 206.167 304.98 205.611 301.94C205.241 300.776 204.626 299.705 203.806 298.8C202.986 297.895 201.981 297.177 200.859 296.695C194.072 294.288 192.22 288.117 189.567 282.749C188.078 278.229 185.731 274.039 182.656 270.407C181.951 269.691 181.556 268.727 181.556 267.723C181.556 266.718 181.951 265.754 182.656 265.039C183.435 264.251 184.099 263.358 184.63 262.385C182.162 261.583 181.483 259.917 182.656 257.819C184.178 254.97 185.954 252.265 187.963 249.735C188.66 249.112 189.206 248.339 189.561 247.474C189.916 246.608 190.069 245.674 190.01 244.741C189.95 243.808 189.679 242.9 189.218 242.087C188.756 241.274 188.116 240.576 187.345 240.047C186.113 238.595 185.133 236.948 184.445 235.172L183.149 232.704H182.1L180.187 237.579L178.274 236.159C177.659 235.619 176.947 235.2 176.176 234.925C174.695 234.555 173.214 234.555 173.276 232.457C169.82 231.531 169.512 228.446 168.339 225.792C167.725 224.329 166.753 223.042 165.514 222.051C164.274 221.059 162.806 220.393 161.243 220.115C158.357 219.274 155.878 217.409 154.27 214.87C152.789 213.142 151.37 211.97 149.025 213.698C148.482 213.943 147.893 214.07 147.297 214.07C146.701 214.07 146.112 213.943 145.569 213.698C140.509 210.797 135.511 207.527 130.698 204.565C130.16 204.159 129.72 203.638 129.41 203.04C129.101 202.442 128.929 201.782 128.908 201.109C129.187 199.48 129.099 197.81 128.651 196.219C128.203 194.628 127.405 193.158 126.316 191.915C123.848 188.397 121.071 185.003 118.911 181.424C116.752 177.845 115.517 174.822 113.604 171.674C112.926 170.564 111.445 169.947 110.272 169.021L109.285 169.761C110.334 171.983 111.445 174.204 112.555 176.488L118.726 188.089C119.158 188.953 119.714 189.693 120.084 190.557C120.454 191.421 120.886 192.717 121.318 193.828L119.899 194.445C118.558 191.311 116.991 188.279 115.209 185.374C113.913 183.874 112.394 182.584 110.704 181.548C110.704 179.511 111.383 177.907 110.704 177.475C107.901 173.961 105.806 169.938 104.533 165.627C104.04 164.701 103.237 163.406 102.312 163.159C97.0666 161.863 96.141 156.988 94.1047 153.224C93.0037 151.66 92.1117 149.959 91.4513 148.164C90.1391 143.658 89.8025 138.925 90.4639 134.279C90.4253 129.722 89.9708 125.178 89.1063 120.704Z" fill="#191B1D"/>
<path d="M399.86 339.335C398.719 338.801 397.782 337.91 397.192 336.797C396.602 335.684 396.391 334.408 396.59 333.164C396.461 330.247 395.225 327.489 393.134 325.451C390.241 322.12 388.7 317.828 388.815 313.418C388.339 309.208 386.788 305.191 384.31 301.755C383.034 299.183 382.487 296.312 382.726 293.451C382.965 290.59 383.982 287.85 385.668 285.526C386.778 283.243 387.766 281.638 386.1 279.355C385.721 278.77 385.547 278.075 385.606 277.38C385.794 274.846 385.459 272.299 384.62 269.9C383.781 267.501 382.457 265.3 380.731 263.434C378.983 261.695 377.796 259.473 377.323 257.053C376.851 254.633 377.113 252.127 378.077 249.858C378.399 248.155 378.069 246.393 377.152 244.922C376.697 244.443 376.136 244.077 375.515 243.852C374.894 243.627 374.229 243.549 373.573 243.626C370.981 243.626 369.315 243.626 368.328 240.973C367.34 238.319 364.131 238.998 361.848 239.492C359.565 239.985 357.344 241.158 355.06 241.898C353.987 242.157 352.892 242.323 351.79 242.392C348.889 242.401 345.996 242.69 343.151 243.256C342.288 243.621 341.341 243.739 340.415 243.597C339.488 243.456 338.62 243.06 337.906 242.453C335.121 240.419 332.481 238.192 330.007 235.789C327.746 233.039 325.684 230.131 323.836 227.088C323.404 226.533 322.602 226.163 322.108 225.546C321.615 224.928 320.812 224.126 320.812 223.386C320.359 219.847 320.653 216.252 321.676 212.834C322.694 210.256 322.694 207.389 321.676 204.812C319.455 201.418 321.676 199.381 322.849 196.975C324.515 193.581 326.49 190.372 328.464 187.163C328.967 186.45 329.713 185.945 330.562 185.744C333.895 184.695 336.178 183.09 336.116 179.018C336.138 177.732 336.512 176.477 337.198 175.389C337.883 174.301 338.854 173.422 340.004 172.847C342.013 171.26 343.779 169.389 345.249 167.293C349.013 170.317 353.147 168.836 357.22 167.293C359.834 166.236 362.571 165.51 365.366 165.133C369.297 164.651 373.253 164.383 377.214 164.331C378.752 164.385 380.282 164.592 381.78 164.948C380.978 167.293 380.176 169.515 379.312 172.168C381.163 175.624 385.482 173.834 388.876 175.254C389.247 175.254 390.049 175.254 390.049 175.254C390.851 179.265 394.924 178.277 397.269 180.005C399.614 181.733 400.354 180.375 400.539 178.092C400.571 177.077 400.992 176.113 401.716 175.4C402.44 174.688 403.411 174.282 404.427 174.266C405.115 174.32 405.786 174.508 406.401 174.822C409.821 176.246 413.325 177.462 416.892 178.462C418.726 178.772 420.608 178.645 422.384 178.092C424.729 177.413 426.457 177.166 427.444 180.19C428.813 184.271 430.42 188.269 432.257 192.162C433.738 195.309 436.638 198.332 436.947 201.294C438.224 205.936 440.047 210.41 442.377 214.623C442.93 215.948 443.749 217.145 444.784 218.141C446.635 219.992 448.795 221.535 450.461 223.571C451.325 224.62 451.201 226.471 452.004 227.767C452.287 228.15 452.661 228.458 453.091 228.662C453.522 228.867 453.996 228.962 454.472 228.939C458.977 227.952 463.42 226.718 468.418 225.422C468.303 227.674 467.867 229.897 467.122 232.025C464.056 239.343 459.471 245.926 453.67 251.339C449.021 256.072 444.997 261.381 441.698 267.137C441.328 267.63 441.205 268.864 441.698 269.05C444.105 271.024 442.562 273.616 442.994 275.899C443.426 278.182 444.722 279.787 445.031 282.07C445.747 285.059 445.914 288.154 445.524 291.203C445.092 293.178 442.871 294.967 441.205 296.448C438.613 298.855 435.96 301.014 433.368 303.359C432.936 303.668 433.059 304.779 433.368 305.457C433.676 306.136 434.232 307.864 434.602 309.036C435.109 310.338 435.083 311.787 434.528 313.07C433.974 314.352 432.936 315.364 431.64 315.886C430.529 316.441 429.48 317.12 428.987 317.367C428.987 319.588 429.357 321.501 428.616 322.612C425.548 329.441 420.017 334.862 413.128 337.792C410.011 338.365 406.854 338.695 403.686 338.78C402.394 338.813 401.109 339 399.86 339.335Z" fill="#191B1D"/>
<path d="M235.487 62.7599L231.784 59.7979L239.991 55.6017V52.1461L233.142 49.5544V48.5054L240.3 49.4927L234.869 45.9753C231.537 47.95 230.488 47.1478 230.365 42.1494H232.71C231.229 39.9896 229.995 37.8916 228.452 35.9786C226.626 33.2855 223.996 31.2385 220.937 30.1302C217.878 29.0219 214.547 28.9091 211.42 29.8078C210.163 30.2912 208.816 30.5016 207.471 30.4249C206.052 30.4249 203.522 31.7208 203.337 28.3268C203.337 27.8949 200.683 27.5864 199.079 27.2778V26.0436L205.99 25.6734L194.266 22.3412C195.103 21.7844 195.991 21.3091 196.919 20.9219C200.313 20.3665 203.769 20.058 207.163 19.3792C209.199 19.009 211.729 18.9472 211.729 15.615H206.792V14.4425L218.147 11.4806V9.38249C218.147 9.38249 218.64 9.38249 218.825 9.38249C222.096 10.5549 224.996 8.08662 227.897 8.02491C228.809 7.98228 229.72 8.14284 230.563 8.495C231.406 8.84716 232.16 9.38214 232.771 10.0613C233.635 10.8018 235.425 7.22274 237.77 9.2591C238.202 9.62935 239.312 9.2591 240.361 9.2591L239.066 6.97589L250.914 9.99956V8.95054C249.917 8.87917 248.938 8.65005 248.013 8.27175C247.678 8.12837 247.38 7.90868 247.145 7.63015C246.909 7.35162 246.742 7.02194 246.656 6.66733C246.656 6.23537 247.581 5.3715 248.137 5.30979C251.099 5.30979 254.308 5.30975 257.146 4.69267C259.187 4.32904 261.248 4.08183 263.317 3.95221C271.647 3.95221 279.978 3.95221 288.309 4.631C292.097 5.23359 295.817 6.20492 299.416 7.53124L290.468 9.01226V10.4315H292.937C294.406 10.3586 295.869 10.1937 297.318 9.93789L295.59 12.7765C299.406 12.2953 303.18 11.5321 306.883 10.4932C308.927 9.71946 311.113 9.39076 313.294 9.5291C315.476 9.66744 317.603 10.2696 319.533 11.2954C312.313 14.7511 304.538 16.9726 299.91 23.637C301.565 23.512 303.229 23.6369 304.846 24.0073C305.895 24.4393 306.389 26.1054 307.315 27.5247H302.316C302.316 29.561 307.253 30.9186 303.304 33.6954L305.525 36.0403L300.403 36.7808L302.748 39.4343H294.85C293.307 41.4707 293.615 43.0751 296.577 44.2475C297.21 44.4255 297.801 44.7263 298.317 45.1328C298.833 45.5394 299.263 46.0436 299.584 46.6167C299.905 47.1898 300.11 47.8205 300.187 48.4728C300.264 49.1251 300.212 49.7862 300.033 50.4183L293.122 47.5797L290.777 50.4183L299.478 51.2822C293.628 55.2843 286.934 57.8818 279.916 58.8723C278.744 58.8723 277.325 60.3533 276.522 61.464C275.314 63.6048 273.493 65.3359 271.295 66.4353C269.096 67.5347 266.619 67.9524 264.181 67.6348C263.44 67.6348 261.774 69.4244 261.774 70.2883C261.995 71.6188 261.8 72.9852 261.214 74.2004C260.629 75.4155 259.682 76.42 258.504 77.0761C258.133 77.0761 257.948 77.8783 257.825 78.372C257.269 80.8403 256.529 83.3704 256.097 85.9004C255.665 88.4304 254.246 87.8133 252.703 87.1345C250.586 86.3965 248.524 85.5098 246.532 84.4811C245.188 83.7328 244.061 82.6485 243.262 81.334C240.423 76.0271 237.77 70.7819 235.24 65.5367C235.145 64.6038 235.229 63.6615 235.487 62.7599Z" fill="#191B1D"/>
<path d="M668.676 288.364C669.851 289.21 670.892 290.23 671.761 291.388C672.737 292.768 673.314 294.391 673.427 296.078C673.427 299.965 676.081 301.385 678.364 303.298C678.799 303.618 679.193 303.991 679.536 304.408C680.376 306.332 681.693 308.01 683.362 309.283C686 311.722 687.957 314.806 689.039 318.231C689.921 320.6 690.247 323.14 689.99 325.654C689.733 328.169 688.901 330.591 687.558 332.732C685.046 336.508 683.19 340.68 682.067 345.074C679.2 346.954 675.867 348 672.44 348.098L670.651 347.11C669.826 347.628 668.907 347.977 667.946 348.136C666.986 348.295 666.003 348.262 665.056 348.038C664.108 347.814 663.215 347.404 662.427 346.832C661.64 346.259 660.974 345.536 660.469 344.704C660.161 344.221 659.912 343.703 659.728 343.161C658.76 341.432 657.601 339.817 656.272 338.348L655.038 339.212L656.026 334.09L651.336 339.397C649.917 336.99 649.053 334.09 647.14 332.856C644.682 331.479 641.858 330.897 639.056 331.19C635.22 331.511 631.475 332.536 628.01 334.213C625.659 335.966 622.797 336.898 619.865 336.867C617.649 336.904 615.497 337.614 613.694 338.903C612.759 339.561 611.617 339.856 610.48 339.731C609.344 339.606 608.292 339.07 607.523 338.224C607.036 337.431 606.839 336.493 606.968 335.571C606.968 334.09 607.894 332.424 607.585 331.066C606.735 328.113 605.725 325.209 604.561 322.365C604.006 320.884 602.895 319.403 604.561 317.799C604.561 317.799 604.068 316.441 603.944 315.701C603.944 313.294 602.525 310.209 603.636 308.666C604.746 307.123 608.264 305.889 610.67 304.47C614.126 302.495 619.618 303.976 621.161 298.731C621.161 297.929 621.161 297.127 621.654 296.386L623.012 294.535L624.246 295.522C625.982 293.327 627.88 291.264 629.923 289.352C632.268 287.253 633.687 288.549 634.551 292.19C635.763 290.365 637.082 288.614 638.501 286.945C639.902 285.825 641.388 284.815 642.944 283.921C643.484 283.431 643.979 282.894 644.425 282.317L653.434 284.477C649.978 289.783 649.978 289.784 655.224 293.671L658.185 295.707L661.95 298.052L663.554 289.043C664.048 286.266 664.48 283.304 664.912 280.404H666.084L668.676 288.364Z" fill="#191B1D"/>
<path d="M188.703 55.972C189.073 52.0227 185.309 52.1462 183.458 50.2332C182.532 52.3313 181.977 54.5528 179.385 52.2079C178.892 51.7759 177.657 52.2079 176.794 52.2079C172.536 51.7759 168.34 51.3439 164.452 50.7268C163.588 50.7268 162.909 49.8012 161.799 49.1841L165.563 47.95C161.984 47.2712 158.96 47.0861 160.503 43.0751C161.122 41.2682 162.426 39.777 164.134 38.9228C165.843 38.0687 167.818 37.9199 169.635 38.5087C168.895 40.1131 167.476 41.8409 167.599 43.3219C167.722 44.8029 169.389 46.469 170.499 47.8883C169.389 40.6067 169.944 39.3109 175.189 38.6321C177.781 38.2618 179.077 39.8046 179.324 44.3092C181.469 43.0357 183.951 42.4424 186.44 42.6076C188.93 42.7729 191.311 43.6889 193.27 45.2348C194.354 45.7453 195.528 46.0388 196.725 46.0987H197.774C200.146 47.1621 202.435 48.3997 204.624 49.8013C206.224 51.2993 207.671 52.953 208.943 54.7379L205.858 55.2933L205.426 56.0954L219.31 63.5621L214.065 70.2266L207.154 64.0558L205.796 67.3263C208.45 69.7329 213.263 71.5225 211.967 77.5698L208.018 77.1996L209.746 81.2723C204.871 79.2359 200.057 79.1125 196.972 74.7313C196.072 73.5518 194.835 72.6727 193.425 72.2101C192.015 71.7474 190.498 71.7228 189.073 72.1395C187.752 72.1509 186.438 71.9423 185.186 71.5224C185.186 70.4117 185.556 69.3627 185.865 68.3136C185.982 67.633 186.233 66.9826 186.605 66.4007C187.166 65.5487 187.929 64.8491 188.827 64.3643C189.197 64.3643 190.061 65.1048 190.678 65.5368L188.395 68.4988L193.393 67.9434V67.0795L191.727 66.5241C192.529 63.8707 197.466 63.6855 195.738 59.8596C195.223 58.4781 194.231 57.3266 192.94 56.6135C191.65 55.9004 190.147 55.6728 188.703 55.972Z" fill="#191B1D"/>
<path d="M166.501 12.8998C163.292 14.751 160.33 11.6039 156.812 9.01219C161.705 8.14661 166.656 7.6515 171.622 7.53117C176.101 7.4067 180.534 6.59504 184.766 5.12456C188.062 4.66108 191.406 4.66108 194.701 5.12456C200.872 5.12456 207.043 5.49484 213.214 5.92679C215.13 6.32903 216.993 6.95016 218.767 7.77801C217.471 8.45679 216.361 9.1356 215.25 9.62926C210.005 11.9125 204.636 14.1956 199.144 16.3554C198.024 16.862 196.841 17.2149 195.627 17.4045C194.177 17.4977 192.806 18.0997 191.756 19.1043C190.706 20.109 190.045 21.4519 189.888 22.8965L182.298 26.0436L185.568 27.9565C182.73 28.3885 180.508 30.9802 177.855 27.9565C177.855 27.9565 176.559 27.9565 175.88 27.9565C170.639 28.988 165.228 28.7766 160.083 27.3395L165.328 25.7968L164.711 24.0689L169.463 24.4392L169.771 23.637L165.637 21.6623C168.105 17.8364 171.808 21.1069 174.646 20.3047L167.241 15.8618L168.167 15.1213C172.61 16.8491 176.682 14.1956 181.311 14.1339C176.806 11.1719 171.807 15.1213 166.501 12.8998Z" fill="#191B1D"/>
<path d="M103.989 51.0354L113.554 50.4183V49.8012C111.579 49.8012 109.605 49.3693 107.383 49.3076C105.162 49.2459 103.496 49.3076 101.583 49.3076V48.1968L105.532 46.7158L100.102 45.3583C101.953 40.977 105.84 40.4216 110.16 39.8045V42.1494H111.271C113.06 40.4216 114.603 41.0387 116.269 42.458C117.935 43.8773 118.614 39.8662 120.28 41.9643C121.218 43.2734 122.365 44.4199 123.674 45.3583L122.44 39.8663H127.438C128.227 42.6344 129.412 45.274 130.956 47.7031C132.56 49.6778 135.46 50.5417 137.558 52.5781L134.35 52.8866L135.769 55.4784C133.91 55.7868 132.012 55.7868 130.153 55.4784C126.156 54.5591 121.967 54.9932 118.244 56.7125C116.084 57.3296 112.998 58.502 111.332 54.9847C111.332 54.491 109.913 54.491 109.234 54.3059L103.681 52.7015L103.989 51.0354Z" fill="#191B1D"/>
<path d="M677.75 269.975L675.097 271.827L682.996 280.095C681.241 280.051 679.523 279.585 677.987 278.737C676.451 277.888 675.142 276.682 674.171 275.22C673.817 274.395 673.155 273.74 672.325 273.394C671.496 273.048 670.564 273.04 669.728 273.369C669.266 273.57 668.851 273.866 668.51 274.238C668.17 274.61 667.912 275.05 667.754 275.529C667.489 276.247 666.952 276.832 666.258 277.156C665.565 277.479 664.771 277.516 664.051 277.257C663.669 277.111 663.315 276.903 663.002 276.64C660.904 274.171 658.621 274.233 655.165 275.344L658.004 271.395C657.768 270.12 657.163 268.943 656.263 268.011C655.363 267.078 654.209 266.431 652.944 266.149C650.444 265.567 647.99 264.804 645.601 263.866C644.86 263.558 644.428 262.385 643.749 261.521L646.341 260.287L639.738 257.14C641.124 256.588 642.547 256.135 643.996 255.782C644.373 255.657 644.771 255.606 645.167 255.634C645.563 255.663 645.95 255.768 646.305 255.946C646.661 256.124 646.978 256.37 647.238 256.67C647.498 256.97 647.697 257.318 647.822 257.695C647.822 257.695 647.822 258.066 647.822 258.189C648.255 259.785 648.791 261.352 649.426 262.879H650.537C650.987 262.083 651.548 261.356 652.203 260.719C654.24 258.93 655.967 257.325 659.176 259.793C662.385 262.262 665.347 261.583 668.432 263.126C671.708 265.169 674.823 267.459 677.75 269.975Z" fill="#191B1D"/>
<path d="M593.939 249.612L597.209 250.722L611.155 237.579L615.289 241.713C611.217 245.601 611.032 248.254 614.857 252.265C612.946 253.653 611.448 255.535 610.524 257.709C609.6 259.883 609.285 262.267 609.612 264.607L596.407 262.015C595.851 257.757 592.272 254.363 593.939 249.612Z" fill="#191B1D"/>
<path d="M453.131 293.671C460.043 293.98 460.413 287.5 464.239 284.847C465.313 285.816 466.013 287.131 466.216 288.564C466.419 289.996 466.112 291.454 465.349 292.684C465.126 293.19 465 293.735 464.979 294.288C463.128 300.891 461.4 307.432 459.364 314.035C459.204 314.514 458.95 314.957 458.618 315.338C458.286 315.719 457.881 316.031 457.428 316.255C456.975 316.478 456.482 316.61 455.977 316.642C455.473 316.674 454.967 316.606 454.489 316.441C453.991 316.258 453.532 315.986 453.131 315.639C452.134 314.314 451.502 312.751 451.296 311.105C451.09 309.46 451.319 307.789 451.959 306.26C452.677 304.281 453.053 302.194 453.07 300.089C453.255 297.991 453.131 295.954 453.131 293.671Z" fill="#191B1D"/>
<path d="M350.14 97.3163L347.301 96.4524V92.318C347.301 91.8244 348.042 91.0221 348.165 91.0838C349.893 91.8243 350.757 90.5902 350.572 89.4177C350.386 88.2453 348.659 87.6899 347.61 86.826C346.561 85.9621 346.931 86.826 346.375 86.826L346.807 84.6662C343.784 81.8276 342.611 79.7296 343.413 78.4954C345.141 76.0271 348.967 74.5461 350.633 75.5952C352.299 76.6442 353.225 78.6805 351.374 82.2596L358.84 92.5649C359.527 92.6702 360.17 92.97 360.692 93.4288C360.692 93.799 360.136 95.0332 359.828 95.8354L358.717 99.0442L345.018 101.204L350.14 97.3163Z" fill="#191B1D"/>
<path d="M586.483 268.679L582.595 268.371C579.633 264.113 576.424 259.238 572.907 254.486C569.39 249.735 566.736 245.477 562.91 240.541C570.007 241.343 572.722 246.711 577.165 250.167C580.155 252.587 582.595 255.616 584.323 259.053C584.878 259.917 586.483 260.164 587.408 260.657L586.421 268.803L586.483 268.679Z" fill="#191B1D"/>
<path d="M482.196 38.632C479.733 39.0314 477.213 38.8965 474.807 38.2364C472.401 37.5763 470.164 36.4064 468.25 34.8062C471.179 32.3815 473.922 29.7413 476.457 26.9076C479.39 23.9958 483.214 22.1494 487.318 21.6623C491.522 20.8501 495.765 20.2528 500.03 19.8728C501.943 19.4409 503.856 18.8855 505.768 18.2684L506.324 19.5643C505.432 20.3081 504.405 20.8737 503.3 21.2304C499.322 21.7375 495.383 22.5211 491.514 23.5753C486.419 25.3757 481.887 28.4825 478.37 32.5847C477.876 33.2018 478.37 35.1764 478.925 35.9786C479.87 37.0293 480.973 37.9247 482.196 38.632Z" fill="#191B1D"/>
<path d="M300.511 73.8056L295.636 72.3863L300.017 70.1032H295.142L294.648 69.486L299.215 66.8326L298.845 65.7219L301.436 69.1158L311.988 66.4624V65.3516C313.838 66.7083 315.499 68.3063 316.925 70.1032C318.406 72.7566 315.382 73.4971 314.025 74.6078C312.177 75.9413 310.078 76.8859 307.854 77.3847C306.514 77.6934 305.121 77.6934 303.781 77.3847C301.691 76.8854 299.63 76.2673 297.61 75.5334L300.511 73.8056Z" fill="#191B1D"/>
<path d="M649.72 148.472L641.328 150.509C643.858 146.374 645.216 145.757 651.51 145.757C652.004 144.831 652.621 143.906 653.053 142.919C653.339 142.318 653.586 141.7 653.793 141.067C655.151 141.067 656.755 141.067 656.94 141.067C658.174 138.476 659.162 135.822 660.149 133.169C660.828 131.503 660.149 128.911 663.358 129.034C664.26 130.329 664.744 131.868 664.744 133.446C664.744 135.024 664.26 136.564 663.358 137.858C662.368 139.909 662.003 142.205 662.309 144.461C662.679 148.102 659.47 148.102 657.928 148.534C655.089 149.274 652.682 150.015 651.757 153.285H650.708L649.72 148.472Z" fill="#191B1D"/>
<path d="M88.6097 35.3615C94.9044 35.2119 101.175 36.1943 107.122 38.2618L98.5447 43.507C96.0147 45.1114 94.1635 46.6541 92.3739 47.8882L86.2031 44.0006C87.3139 41.7174 90.7695 39.8045 88.6097 35.3615Z" fill="#191B1D"/>
<path d="M152.296 20.1196L154.147 18.5153L146.742 17.096C148.161 13.3318 149.889 11.2337 153.468 11.8508C154.384 12.0878 155.274 12.4186 156.122 12.8381C157.12 13.2652 158.185 13.5158 159.269 13.5786C160.75 15.0596 161.922 17.2194 164.267 15.2447L167.476 17.8365C163.774 22.9582 159.207 23.6987 152.296 20.1196Z" fill="#191B1D"/>
<path d="M381.16 10.4315L392.268 11.3571L390.972 8.9505L409.484 16.4172V17.6513H403.313C402.881 16.7257 402.758 15.6767 402.203 15.3064C401.839 15.1221 401.438 15.0261 401.03 15.0261C400.623 15.0261 400.221 15.1221 399.858 15.3064C397.883 16.6023 396.032 18.2067 393.687 19.9962L388.38 18.6387L390.663 17.4662H387.331V16.8491L391.589 15.3681V14.5042C389.812 15.0559 387.956 15.3062 386.097 15.2447C384.325 14.4235 382.699 13.3188 381.284 11.9742L381.16 10.4315Z" fill="#191B1D"/>
<path d="M154.774 28.4503L157.366 27.7715V29.561C165.017 34.8679 173.471 29.561 181.493 32.2144C181.058 33.4977 180.131 34.556 178.917 35.1574C177.702 35.7588 176.299 35.8544 175.014 35.4233H174.459C173.393 35.3003 172.316 35.3003 171.25 35.4233C166.555 35.5054 161.858 35.3406 157.181 34.9296C156.44 34.9296 155.576 33.3869 155.144 32.3379C154.868 31.0611 154.744 29.7562 154.774 28.4503Z" fill="#191B1D"/>
<path d="M106.749 31.4739H105.7H104.775C104.466 31.4739 104.775 30.9803 104.775 30.8569C108.169 26.5373 111.809 29.129 115.327 30.3632C116.87 30.9185 118.35 31.4739 120.572 32.3996L118.721 28.2034L120.881 26.7224C121.251 26.7224 121.559 27.1543 121.683 27.4012C122.423 29.2524 122.979 31.2888 125.817 29.8078C126.187 29.8078 127.668 30.4249 127.854 30.9802C127.854 31.3941 127.753 31.8018 127.559 32.1676C127.366 32.5334 127.085 32.8462 126.743 33.0783C121.498 34.0657 116.252 34.8678 111.007 35.7317C111.007 35.7317 110.514 35.3615 109.835 34.7444L115.08 33.3869V32.5847L103.355 33.572V33.0166L106.873 31.7208L106.749 31.4739Z" fill="#191B1D"/>
<path d="M717.484 366.363L731.986 354.022C732.615 354.274 733.199 354.628 733.714 355.071C734.207 355.503 734.763 356.675 734.577 356.86C733.035 358.526 732.973 361.488 730.134 362.105C729.487 362.313 728.924 362.724 728.53 363.278C724.211 368.646 724.211 368.646 717.484 366.363Z" fill="#191B1D"/>
<path d="M620.982 259.176L623.635 264.73L621.414 266.396L618.76 261.151C618.76 266.89 618.76 267.322 616.786 268.494C616.354 266.396 615.86 264.298 615.428 262.323H614.688C615.798 258.683 616.909 255.104 618.02 251.339C621.414 250.846 625.363 254.61 628.51 249.673C627.399 253.314 627.029 253.561 624.129 253.376C622.555 253.129 620.952 253.129 619.377 253.376C616.292 254.425 618.328 256.029 618.945 257.387L624.499 255.536L624.808 256.276L620.982 259.176Z" fill="#191B1D"/>
<path d="M335.458 95.3417V90.0965C336.667 89.0468 337.82 87.9345 338.913 86.7643C340.765 84.6662 342.616 86.0855 344.22 86.7643C345.825 87.4431 345.516 88.8623 343.912 89.8497C343.912 89.8497 343.541 90.5285 343.541 90.9604C343.541 91.3924 343.912 94.3543 343.541 94.6629C341.263 95.7989 338.861 96.6686 336.383 97.2546C335.89 97.2546 335.211 96.3907 334.594 95.897L335.458 95.3417Z" fill="#191B1D"/>
<path d="M145.624 38.632L143.34 40.4833L146.673 41.9643C147.66 45.4816 144.019 45.3582 142.6 46.7775C142.6 46.7775 140.749 45.7285 139.761 45.1731L133.961 41.8409V40.7918L139.021 41.6558L136.368 38.8789C137.57 37.6319 139.214 36.9072 140.945 36.861C142.677 36.8148 144.357 37.4509 145.624 38.632Z" fill="#191B1D"/>
<path d="M669.584 103.981H666.684C666.993 106.943 667.301 109.843 667.61 112.497H664.771C666.622 104.66 662.303 96.2056 666.808 87.4431C667.795 93.4905 668.659 98.7356 669.584 103.981Z" fill="#191B1D"/>
<path d="M586.422 268.803C588.433 269.486 590.497 270.002 592.593 270.346C595.863 270.716 599.134 270.716 602.466 270.901C603.276 270.826 604.087 271.045 604.749 271.518L602.774 272.567L607.896 274.603V275.406C605.335 275.414 602.777 275.228 600.244 274.85C596.283 274.307 592.365 273.482 588.52 272.382C587.844 272.22 587.259 271.8 586.89 271.212C586.521 270.623 586.397 269.913 586.545 269.235C586.522 269.05 586.522 268.864 586.545 268.679L586.422 268.803Z" fill="#191B1D"/>
<path d="M662.863 124.776L661.321 128.17C659.963 123.912 660.58 122.493 663.481 122.431L664.468 115.212C667.121 116.754 667.738 121.012 671.749 119.655L672.367 122.678L666.813 125.887L662.863 124.776Z" fill="#191B1D"/>
<path d="M661.326 25.6734C659.567 25.6105 657.815 25.425 656.081 25.118C655.526 25.118 654.662 23.8221 654.785 23.3285C654.909 22.8348 655.834 22.0326 656.513 21.6007C656.728 21.509 656.959 21.4617 657.192 21.4617C657.425 21.4617 657.656 21.509 657.871 21.6007C661.757 22.1859 665.709 22.1859 669.595 21.6007C670.336 21.6007 671.076 22.588 671.755 23.0816C671.138 23.637 670.583 24.686 669.842 24.8095C667.004 25.2414 664.227 25.4265 661.326 25.6734Z" fill="#191B1D"/>
<path d="M744.325 346.37C743.959 347.296 743.505 348.185 742.967 349.023C741.363 351.245 739.635 353.404 737.907 355.194C737.855 355.248 737.793 355.291 737.724 355.321C737.655 355.35 737.581 355.365 737.506 355.365C737.431 355.365 737.357 355.35 737.288 355.321C737.219 355.291 737.157 355.248 737.105 355.194C737.043 355.035 737.043 354.859 737.105 354.7L734.637 349.887L736.858 344.087C739.08 343.037 740.746 349.455 744.263 345.012L744.325 346.37Z" fill="#191B1D"/>
<path d="M135.509 30.3632V28.2651L139.459 30.3632L138.533 28.08C140.091 27.8949 141.665 27.8949 143.223 28.08C143.778 28.08 144.457 29.8695 144.334 30.7335C144.21 31.5974 143.47 33.8189 142.667 33.9423C141.865 34.0657 140.076 33.1401 138.78 32.7081C137.484 32.2762 136.867 32.2761 135.941 32.0293C134.969 31.8355 134.018 31.5461 133.103 31.1654C132.179 30.5836 131.293 29.9447 130.449 29.2525C130.881 28.7588 131.498 27.8949 131.622 27.9566C132.647 28.5 133.619 29.1406 134.522 29.8695C134.736 30.093 134.923 30.3417 135.077 30.6101L135.509 30.3632Z" fill="#191B1D"/>
<path d="M173.031 201.973C174.067 200.21 175.707 198.881 177.647 198.235C179.588 197.588 181.697 197.666 183.583 198.456C187.718 200.554 191.729 202.899 196.357 205.367L190.186 206.107C188.829 204.441 187.965 202.775 186.607 202.035C184.146 200.715 181.473 199.837 178.708 199.443C176.919 199.32 175.006 200.986 173.031 201.973Z" fill="#191B1D"/>
<path d="M617.884 208.637C622.574 210.057 623.376 212.155 621.587 214.808C619.797 217.462 620.476 218.758 623.747 219.436C624.734 219.7 625.703 220.03 626.647 220.424L625.536 222.83C623.376 220.794 619.797 221.226 617.638 218.387C615.478 215.549 620.229 212.587 617.884 208.637Z" fill="#191B1D"/>
<path d="M158.844 37.7065C158.805 38.3018 158.647 38.8832 158.379 39.4161C158.111 39.949 157.739 40.4225 157.284 40.8083C156.829 41.1942 156.301 41.4844 155.731 41.6618C155.162 41.8392 154.562 41.9001 153.969 41.8409C153.537 41.8409 152.735 41.8409 152.673 42.2111C152.303 44.8646 150.328 43.939 149.773 42.8899C149.217 41.8409 148.538 39.0641 149.341 38.1384C150.786 37.1416 152.526 36.6631 154.277 36.7809C155.831 36.9034 157.365 37.2142 158.844 37.7065Z" fill="#191B1D"/>
<path d="M629.107 237.579L629.601 240.047L628.614 240.602L624.911 235.789L622.073 236.344L621.641 235.604L630.527 230.605L631.144 237.579H629.107Z" fill="#191B1D"/>
<path d="M569.187 8.20999L554.5 11.6039C554.5 10.6783 554.5 9.38247 554.994 9.01222C556.988 7.43157 559.422 6.50605 561.963 6.36245C564.504 6.21884 567.027 6.86413 569.187 8.20999Z" fill="#191B1D"/>
<path d="M92.7383 29.3142C94.9641 27.9382 97.2958 26.7414 99.7113 25.7351C102.099 25.1297 104.536 24.7374 106.993 24.5626L107.548 25.7351C106.428 26.8637 105.232 27.9152 103.969 28.8822C103.32 28.4754 102.701 28.0216 102.118 27.5246C99.773 30.3632 93.9107 31.4739 92.7383 29.3142Z" fill="#191B1D"/>
<path d="M195.734 208.946L200.98 209.378L198.388 206.354C203.386 205.058 208.878 206.971 208.631 210.057C204.25 209.687 199.684 211.846 195.734 208.946Z" fill="#191B1D"/>
<path d="M180.561 77.2612C178.71 77.2612 177.043 77.94 176.426 77.2612C174.513 75.6568 173.341 77.2612 171.675 77.2612C169.935 77.5102 168.169 77.5102 166.43 77.2612C170.009 71.6458 170.934 71.0905 175.377 73.8056L176.241 74.2992L180.561 77.2612Z" fill="#191B1D"/>
<path d="M574.083 9.32074L573.096 12.7147C565.999 13.8254 564.024 13.5786 560.445 10.4932L574.083 9.32074Z" fill="#191B1D"/>
<path d="M415.661 10.9869C412.24 11.3682 408.798 11.5331 405.356 11.4805C402.711 11.0294 400.152 10.1762 397.766 8.9505H415.661V10.9869Z" fill="#191B1D"/>
<path d="M141.067 23.6987L129.528 21.2921L132.12 20.1814L128.355 19.1324V18.0216C129.908 18.1153 131.453 18.3007 132.984 18.577C134.513 18.8819 136.003 19.3581 137.427 19.9963C138.872 20.7717 140.254 21.6588 141.561 22.6497L141.067 23.6987Z" fill="#191B1D"/>
<path d="M585.741 15.1213L572.844 16.1703L572.289 15.615C574.387 14.3808 576.423 12.3444 578.46 12.1593C581.002 12.3573 583.488 13.005 585.803 14.0723L585.741 15.1213Z" fill="#191B1D"/>
<path d="M531.307 230.235C532.654 232.188 533.831 234.252 534.824 236.406C534.824 237.085 533.714 239.059 532.726 239.368C530.813 240.109 530.073 238.813 530.258 236.961C530.443 235.11 530.258 232.765 530.258 230.791L531.307 230.235Z" fill="#191B1D"/>
<path d="M674.48 361.426L671.086 354.022C673.138 353.825 675.205 353.825 677.257 354.022C677.874 354.022 678.738 356.181 678.429 356.798C677.308 358.498 675.982 360.053 674.48 361.426Z" fill="#191B1D"/>
<path d="M639.919 150.879C643.683 153.903 643.437 157.543 639.426 159.765V154.52L637.883 153.594L639.919 150.879Z" fill="#191B1D"/>
<path d="M375.488 129.836L377.71 128.911C377.71 129.59 378.512 130.33 378.327 130.7C377.586 132.367 379.376 135.514 375.488 135.699V129.836Z" fill="#191B1D"/>
<path d="M389.568 142.672L383.891 139.216V138.476H390.061L389.568 142.672Z" fill="#191B1D"/>
<path d="M178.898 37.8916L187.352 39.8045L186.982 41.1621C184.452 39.8045 180.75 43.7538 178.898 37.8916Z" fill="#191B1D"/>
<path d="M142.418 19.626C145.195 20.1813 147.046 20.4898 148.959 20.9835C149.121 21.1046 149.251 21.2636 149.337 21.4465C149.423 21.6294 149.463 21.8307 149.453 22.0326C149.26 22.5249 148.884 22.9233 148.404 23.1433C145.812 23.9455 144.146 22.9582 142.418 19.626Z" fill="#191B1D"/>
<path d="M621.956 192.47L619.18 200.801C616.835 197.098 617.452 194.938 621.956 192.47Z" fill="#191B1D"/>
<path d="M679.469 267.692C680.898 267.938 682.359 267.938 683.788 267.692C684.899 267.198 685.701 265.779 687.429 265.1C686.931 266.177 686.31 267.191 685.578 268.124C684.921 268.889 683.988 269.364 682.982 269.445C681.977 269.526 680.98 269.206 680.209 268.556C679.9 268.328 679.647 268.032 679.469 267.692Z" fill="#191B1D"/>
<path d="M146.43 33.0167L152.045 31.1654L152.539 34.6828C151.388 34.7445 150.234 34.7445 149.083 34.6828C148.199 34.459 147.333 34.1703 146.491 33.8189L146.43 33.0167Z" fill="#191B1D"/>
<path d="M632.763 274.912L624.062 281.083C624.453 279.139 625.571 277.417 627.188 276.27C628.805 275.123 630.8 274.637 632.763 274.912Z" fill="#191B1D"/>
<path d="M144.143 59.7362L148.957 62.5748V63.3152L141.305 62.6364L144.143 59.7362Z" fill="#191B1D"/>
<path d="M146.066 26.4756L153.039 27.0927C150.447 30.2398 148.287 28.2652 146.004 27.0927L146.066 26.4756Z" fill="#191B1D"/>
<path d="M111.688 23.637L118.722 22.4646C117.488 25.7968 115.081 26.2905 111.688 23.637Z" fill="#191B1D"/>
<path d="M648.253 149.521C650.228 154.088 644.921 152.175 644.921 154.581C643.07 150.879 646.773 151.311 648.253 149.521Z" fill="#191B1D"/>
<path d="M640.84 263.187H634.176C634.176 262.509 634.731 261.274 635.04 261.274C637.261 261.089 639.668 260.657 640.84 263.187Z" fill="#191B1D"/>
</g>
<path d="M12.6568 109.473C18.1778 109.473 22.6535 104.997 22.6535 99.476C22.6535 93.955 18.1778 89.4793 12.6568 89.4793C7.1358 89.4793 2.66016 93.955 2.66016 99.476C2.66016 104.997 7.1358 109.473 12.6568 109.473Z" fill="#24285B"/>
<path d="M243.09 62.0797C248.611 62.0797 253.087 57.604 253.087 52.083C253.087 46.5619 248.611 42.0863 243.09 42.0863C237.569 42.0863 233.094 46.5619 233.094 52.083C233.094 57.604 237.569 62.0797 243.09 62.0797Z" fill="#24285B"/>
<path d="M458.821 131.686C464.342 131.686 468.818 127.211 468.818 121.69C468.818 116.169 464.342 111.693 458.821 111.693C453.3 111.693 448.824 116.169 448.824 121.69C448.824 127.211 453.3 131.686 458.821 131.686Z" fill="#24285B"/>
<path d="M587.844 276.454C593.365 276.454 597.841 271.978 597.841 266.457C597.841 260.936 593.365 256.461 587.844 256.461C582.323 256.461 577.848 260.936 577.848 266.457C577.848 271.978 582.323 276.454 587.844 276.454Z" fill="#24285B"/>
<path d="M149.661 147.114C155.182 147.114 159.657 142.638 159.657 137.117C159.657 131.596 155.182 127.121 149.661 127.121C144.14 127.121 139.664 131.596 139.664 137.117C139.664 142.638 144.14 147.114 149.661 147.114Z" fill="#24285B"/>
<path d="M646.907 75.3477C652.428 75.3477 656.903 70.872 656.903 65.351C656.903 59.8299 652.428 55.3542 646.907 55.3542C641.386 55.3542 636.91 59.8299 636.91 65.351C636.91 70.872 641.386 75.3477 646.907 75.3477Z" fill="#24285B"/>
<path d="M22.6562 77.6303C22.6562 77.6303 22.9648 76.5813 23.6436 74.73" stroke="#24285B" stroke-width="0.25375" stroke-linecap="round" stroke-linejoin="round"/>
<path d="M39.2578 48.0728C53.1376 30.7362 71.8064 17.8611 92.9437 11.048C149.592 -7.83463 261.777 -3.20652 240.179 51.8987C218.581 107.004 152.06 120.024 149.653 140.573C147.247 161.122 131.82 211.229 198.403 206.415C264.986 201.602 302.319 103.487 458.81 121.752C569.206 134.649 617.462 101.265 636.282 80.5312" stroke="#24285B" stroke-width="0.25375" stroke-linecap="round" stroke-linejoin="round" stroke-dasharray="1.01 5.09"/>
<path d="M645.48 68.0661C646.468 66.3382 646.9 65.3509 646.9 65.3509C646.9 65.3509 647.764 66.0297 649.183 67.3873" stroke="#24285B" stroke-width="0.25375" stroke-linecap="round" stroke-linejoin="round"/>
<path d="M666.4 92.3796C672.362 105.977 675.209 120.736 674.731 135.575C673.805 177.907 660.662 219.004 623.945 242.824" stroke="#24285B" stroke-width="0.25375" stroke-linecap="round" stroke-linejoin="round" stroke-dasharray="1 5.02"/>
<path d="M610.48 250.351L607.703 251.586" stroke="#24285B" stroke-width="0.25375" stroke-linecap="round" stroke-linejoin="round"/>
</g>
</svg>
